STARTFONT 2.1
COMMENT
COMMENT Converted from OpenType font "JetBrainsMono-Bold.otf" by "otf2bdf 3.0".
COMMENT
FONT -FreeType-JetBrains Mono-Bold-R-Normal--25-300-60-60-P-119-ISO10646-1
SIZE 30 60 60
FONTBOUNDINGBOX 33 36 -16 -9
STARTPROPERTIES 19
FOUNDRY "FreeType"
FAMILY_NAME "JetBrains Mono"
WEIGHT_NAME "Bold"
SLANT "R"
SETWIDTH_NAME "Normal"
ADD_STYLE_NAME ""
PIXEL_SIZE 25
POINT_SIZE 300
RESOLUTION_X 60
RESOLUTION_Y 60
SPACING "P"
AVERAGE_WIDTH 119
CHARSET_REGISTRY "ISO10646"
CHARSET_ENCODING "1"
FONT_ASCENT 24
FONT_DESCENT 6
COPYRIGHT "© 2000-2020 JetBrains s.r.o. Developed with drive and IntelliJ IDEA."
_OTF_FONTFILE "JetBrainsMono-Bold.otf"
_OTF_PSNAME "JetBrainsMono-Bold"
ENDPROPERTIES
CHARS 842
STARTCHAR 0000
ENCODING 0
SWIDTH 0 0
DWIDTH 0 0
BBX 0 0 0 0
BITMAP
ENDCHAR
STARTCHAR 000A
ENCODING 10
SWIDTH 600 0
DWIDTH 15 0
BBX 0 0 0 0
BITMAP
ENDCHAR
STARTCHAR 000D
ENCODING 13
SWIDTH 600 0
DWIDTH 15 0
BBX 0 0 0 0
BITMAP
ENDCHAR
STARTCHAR 0020
ENCODING 32
SWIDTH 600 0
DWIDTH 15 0
BBX 0 0 0 0
BITMAP
ENDCHAR
STARTCHAR 0021
ENCODING 33
SWIDTH 600 0
DWIDTH 15 0
BBX 5 18 5 0
BITMAP
70
70
70
70
70
70
70
70
70
70
70
70
00
00
00
70
F8
70
ENDCHAR
STARTCHAR 0022
ENCODING 34
SWIDTH 600 0
DWIDTH 15 0
BBX 9 7 3 11
BITMAP
E380
E380
E380
E380
E380
E380
E380
ENDCHAR
STARTCHAR 0023
ENCODING 35
SWIDTH 600 0
DWIDTH 15 0
BBX 13 18 1 0
BITMAP
0C30
0C30
0C70
1C60
FFF8
FFF8
1860
18E0
18E0
38C0
30C0
FFF8
FFF8
31C0
71C0
7180
6180
6180
ENDCHAR
STARTCHAR 0024
ENCODING 36
SWIDTH 600 0
DWIDTH 15 0
BBX 13 24 1 -3
BITMAP
0200
0200
0200
1FC0
3FE0
7AF0
7270
7270
7200
7A00
3F00
3FC0
0FE0
03F0
0270
0278
F278
7270
7FF0
3FE0
1FC0
0200
0200
0200
ENDCHAR
STARTCHAR 0025
ENCODING 37
SWIDTH 600 0
DWIDTH 15 0
BBX 15 18 0 0
BITMAP
7E0E
7E0C
E718
E730
E770
E660
7EC0
3DC0
0180
0300
0678
06FC
0DCE
19CE
39CE
31CE
60FC
E078
ENDCHAR
STARTCHAR 0026
ENCODING 38
SWIDTH 600 0
DWIDTH 15 0
BBX 13 18 1 0
BITMAP
1FC0
3FC0
39E0
70E0
7000
3800
3800
3C00
7E00
FE38
E770
E3F0
E3E0
E1E0
E1E0
F3F0
7FF0
3F38
ENDCHAR
STARTCHAR 0027
ENCODING 39
SWIDTH 600 0
DWIDTH 15 0
BBX 3 7 6 11
BITMAP
E0
E0
E0
E0
E0
E0
E0
ENDCHAR
STARTCHAR 0028
ENCODING 40
SWIDTH 600 0
DWIDTH 15 0
BBX 8 24 4 -3
BITMAP
03
0F
1F
3E
38
70
70
F0
E0
E0
E0
E0
E0
E0
E0
E0
F0
70
78
78
3E
1F
0F
03
ENDCHAR
STARTCHAR 0029
ENCODING 41
SWIDTH 600 0
DWIDTH 15 0
BBX 8 24 3 -3
BITMAP
C0
F0
F8
7C
1E
0E
0E
0F
07
07
07
07
07
07
07
07
0F
0E
0E
1E
7C
F8
F0
C0
ENDCHAR
STARTCHAR 002A
ENCODING 42
SWIDTH 600 0
DWIDTH 15 0
BBX 13 13 1 2
BITMAP
0700
0700
0700
4710
F278
FFF8
3FC0
0700
0D80
1DC0
38E0
38E0
1040
ENDCHAR
STARTCHAR 002B
ENCODING 43
SWIDTH 600 0
DWIDTH 15 0
BBX 13 12 1 2
BITMAP
0700
0700
0700
0700
FFF8
FFF8
FFF8
0700
0700
0700
0700
0700
ENDCHAR
STARTCHAR 002C
ENCODING 44
SWIDTH 600 0
DWIDTH 15 0
BBX 6 8 4 -4
BITMAP
3C
78
78
70
70
F0
E0
E0
ENDCHAR
STARTCHAR 002D
ENCODING 45
SWIDTH 600 0
DWIDTH 15 0
BBX 11 3 2 7
BITMAP
FFE0
FFE0
FFE0
ENDCHAR
STARTCHAR 002E
ENCODING 46
SWIDTH 600 0
DWIDTH 15 0
BBX 5 4 5 0
BITMAP
70
F8
F8
F0
ENDCHAR
STARTCHAR 002F
ENCODING 47
SWIDTH 600 0
DWIDTH 15 0
BBX 11 24 2 -3
BITMAP
00E0
00E0
01E0
01C0
01C0
03C0
0380
0380
0700
0700
0F00
0E00
0E00
1E00
1C00
1C00
3800
3800
7800
7000
7000
F000
E000
E000
ENDCHAR
STARTCHAR 0030
ENCODING 48
SWIDTH 600 0
DWIDTH 15 0
BBX 11 18 2 0
BITMAP
3F80
7FC0
F1E0
E0E0
E0E0
E0E0
E0E0
E4E0
EEE0
EEE0
E0E0
E0E0
E0E0
E0E0
E0E0
FBE0
7FC0
3F80
ENDCHAR
STARTCHAR 0031
ENCODING 49
SWIDTH 600 0
DWIDTH 15 0
BBX 12 18 2 0
BITMAP
1F00
3F00
FF00
F700
C700
8700
0700
0700
0700
0700
0700
0700
0700
0700
0700
FFF0
FFF0
FFF0
ENDCHAR
STARTCHAR 0032
ENCODING 50
SWIDTH 600 0
DWIDTH 15 0
BBX 11 18 2 0
BITMAP
3F80
7FC0
F1E0
E0E0
E0E0
00E0
00E0
01E0
03C0
0780
0F00
1E00
3C00
7800
F000
FFE0
FFE0
FFE0
ENDCHAR
STARTCHAR 0033
ENCODING 51
SWIDTH 600 0
DWIDTH 15 0
BBX 12 18 1 0
BITMAP
7FE0
7FE0
00E0
01E0
0380
0700
0F00
0FC0
0FE0
00F0
0070
0070
0070
F070
7070
7DF0
3FE0
1FC0
ENDCHAR
STARTCHAR 0034
ENCODING 52
SWIDTH 600 0
DWIDTH 15 0
BBX 11 18 2 0
BITMAP
03C0
0780
0700
0F00
1E00
1C00
3800
7800
70E0
E0E0
E0E0
E0E0
FFE0
FFE0
00E0
00E0
00E0
00E0
ENDCHAR
STARTCHAR 0035
ENCODING 53
SWIDTH 600 0
DWIDTH 15 0
BBX 11 18 2 0
BITMAP
FFE0
FFE0
FFE0
E000
E000
E000
EF80
FFC0
FFE0
E0E0
00E0
00E0
00E0
00E0
E0E0
FBE0
7FC0
3F80
ENDCHAR
STARTCHAR 0036
ENCODING 54
SWIDTH 600 0
DWIDTH 15 0
BBX 13 18 1 0
BITMAP
0380
0780
0700
0E00
1E00
1C00
3C00
3FC0
7FF0
78F0
7070
F078
E038
F078
7070
7DF0
3FE0
1FC0
ENDCHAR
STARTCHAR 0037
ENCODING 55
SWIDTH 600 0
DWIDTH 15 0
BBX 13 18 1 0
BITMAP
FFF8
FFF8
FFF8
F070
F070
00E0
00E0
01E0
01C0
01C0
0380
0380
0780
0700
0F00
0E00
0E00
1C00
ENDCHAR
STARTCHAR 0038
ENCODING 56
SWIDTH 600 0
DWIDTH 15 0
BBX 13 18 1 0
BITMAP
1FC0
3FE0
78F0
7070
7070
7070
7070
3FE0
1FC0
3FE0
7070
7070
F078
F078
7070
78F0
3FE0
1FC0
ENDCHAR
STARTCHAR 0039
ENCODING 57
SWIDTH 600 0
DWIDTH 15 0
BBX 13 18 1 0
BITMAP
1FC0
3FE0
78F0
7070
F078
E038
F078
7070
7DF0
3F70
1EE0
01E0
01C0
0380
0780
0700
0F00
1E00
ENDCHAR
STARTCHAR 003A
ENCODING 58
SWIDTH 600 0
DWIDTH 15 0
BBX 5 14 5 0
BITMAP
70
F8
F8
70
00
00
00
00
00
00
70
F8
F8
70
ENDCHAR
STARTCHAR 003B
ENCODING 59
SWIDTH 600 0
DWIDTH 15 0
BBX 6 18 4 -4
BITMAP
38
7C
7C
38
00
00
00
00
00
00
3C
38
78
70
70
70
E0
E0
ENDCHAR
STARTCHAR 003C
ENCODING 60
SWIDTH 600 0
DWIDTH 15 0
BBX 11 13 2 1
BITMAP
0020
00E0
03E0
0FC0
7E00
F800
E000
F000
FC00
3F80
0FE0
01E0
0060
ENDCHAR
STARTCHAR 003D
ENCODING 61
SWIDTH 600 0
DWIDTH 15 0
BBX 11 9 2 4
BITMAP
FFE0
FFE0
FFE0
0000
0000
0000
FFE0
FFE0
FFE0
ENDCHAR
STARTCHAR 003E
ENCODING 62
SWIDTH 600 0
DWIDTH 15 0
BBX 11 13 2 1
BITMAP
8000
E000
F800
7E00
1FC0
03E0
00E0
01E0
07E0
1F80
FC00
F000
C000
ENDCHAR
STARTCHAR 003F
ENCODING 63
SWIDTH 600 0
DWIDTH 15 0
BBX 10 18 3 0
BITMAP
FE00
FF00
FF80
0380
03C0
03C0
0380
0F80
3F80
3E00
3800
3800
3800
0000
0000
7800
7800
7800
ENDCHAR
STARTCHAR 0040
ENCODING 64
SWIDTH 600 0
DWIDTH 15 0
BBX 13 22 1 -4
BITMAP
1FE0
3FF0
7078
E038
E018
E018
C3D8
C7F8
C738
C618
C618
C618
C618
C618
C738
C7D8
E180
E000
E000
7800
3F80
1F80
ENDCHAR
STARTCHAR 0041
ENCODING 65
SWIDTH 600 0
DWIDTH 15 0
BBX 13 18 1 0
BITMAP
0F80
0F80
0F80
0D80
1DC0
1DC0
1DC0
18C0
38E0
38E0
38E0
3FE0
7FF0
7FF0
7070
F070
E038
E038
ENDCHAR
STARTCHAR 0042
ENCODING 66
SWIDTH 600 0
DWIDTH 15 0
BBX 12 18 2 0
BITMAP
FF80
FFC0
E3E0
E0E0
E0E0
E0E0
E0E0
FFC0
FF00
FFC0
E0E0
E0F0
E070
E0F0
E0E0
FFE0
FFC0
FF80
ENDCHAR
STARTCHAR 0043
ENCODING 67
SWIDTH 600 0
DWIDTH 15 0
BBX 11 18 2 0
BITMAP
3F80
7FC0
F1E0
E0E0
E0E0
E000
E000
E000
E000
E000
E000
E000
E000
E0E0
E0E0
FBE0
7FC0
3F80
ENDCHAR
STARTCHAR 0044
ENCODING 68
SWIDTH 600 0
DWIDTH 15 0
BBX 11 18 2 0
BITMAP
FF80
FFC0
FFE0
E0E0
E0E0
E0E0
E0E0
E0E0
E0E0
E0E0
E0E0
E0E0
E0E0
E0E0
E1E0
FFC0
FFC0
FF00
ENDCHAR
STARTCHAR 0045
ENCODING 69
SWIDTH 600 0
DWIDTH 15 0
BBX 11 18 2 0
BITMAP
FFE0
FFE0
E000
E000
E000
E000
E000
FFC0
FFC0
FFC0
E000
E000
E000
E000
E000
FFE0
FFE0
FFE0
ENDCHAR
STARTCHAR 0046
ENCODING 70
SWIDTH 600 0
DWIDTH 15 0
BBX 11 18 2 0
BITMAP
FFE0
FFE0
FFE0
E000
E000
E000
E000
E000
FFE0
FFE0
E000
E000
E000
E000
E000
E000
E000
E000
ENDCHAR
STARTCHAR 0047
ENCODING 71
SWIDTH 600 0
DWIDTH 15 0
BBX 11 18 2 0
BITMAP
3F80
7FC0
F1E0
E0E0
E0E0
E000
E000
E000
E7E0
E7E0
E7E0
E0E0
E0E0
E0E0
E0E0
FBE0
7FC0
3F80
ENDCHAR
STARTCHAR 0048
ENCODING 72
SWIDTH 600 0
DWIDTH 15 0
BBX 11 18 2 0
BITMAP
E0E0
E0E0
E0E0
E0E0
E0E0
E0E0
E0E0
FFE0
FFE0
FFE0
E0E0
E0E0
E0E0
E0E0
E0E0
E0E0
E0E0
E0E0
ENDCHAR
STARTCHAR 0049
ENCODING 73
SWIDTH 600 0
DWIDTH 15 0
BBX 11 18 2 0
BITMAP
FFE0
FFE0
FFE0
0E00
0E00
0E00
0E00
0E00
0E00
0E00
0E00
0E00
0E00
0E00
0E00
FFE0
FFE0
FFE0
ENDCHAR
STARTCHAR 004A
ENCODING 74
SWIDTH 600 0
DWIDTH 15 0
BBX 12 18 1 0
BITMAP
0FF0
0FF0
0FF0
0070
0070
0070
0070
0070
0070
0070
0070
0070
0070
E070
E0F0
FFE0
7FC0
3F80
ENDCHAR
STARTCHAR 004B
ENCODING 75
SWIDTH 600 0
DWIDTH 15 0
BBX 12 18 2 0
BITMAP
E0F0
E0E0
E1E0
E1C0
E3C0
E380
E780
FF00
FF00
FF00
E780
E380
E3C0
E1C0
E1E0
E0E0
E0F0
E0F0
ENDCHAR
STARTCHAR 004C
ENCODING 76
SWIDTH 600 0
DWIDTH 15 0
BBX 10 18 3 0
BITMAP
E000
E000
E000
E000
E000
E000
E000
E000
E000
E000
E000
E000
E000
E000
E000
FFC0
FFC0
FFC0
ENDCHAR
STARTCHAR 004D
ENCODING 77
SWIDTH 600 0
DWIDTH 15 0
BBX 13 18 1 0
BITMAP
F078
F8F8
F8F8
F8F8
FDF8
EDB8
EDB8
EDB8
E738
E738
E038
E038
E038
E038
E038
E038
E038
E038
ENDCHAR
STARTCHAR 004E
ENCODING 78
SWIDTH 600 0
DWIDTH 15 0
BBX 11 18 2 0
BITMAP
F0E0
F0E0
F8E0
F8E0
D8E0
FCE0
FCE0
ECE0
EEE0
EEE0
E6E0
E7E0
E760
E360
E3E0
E3E0
E1E0
E1E0
ENDCHAR
STARTCHAR 004F
ENCODING 79
SWIDTH 600 0
DWIDTH 15 0
BBX 11 18 2 0
BITMAP
3F80
7FC0
F1E0
E0E0
E0E0
E0E0
E0E0
E0E0
E0E0
E0E0
E0E0
E0E0
E0E0
E0E0
E0E0
FBE0
7FC0
3F80
ENDCHAR
STARTCHAR 0050
ENCODING 80
SWIDTH 600 0
DWIDTH 15 0
BBX 12 18 2 0
BITMAP
FF80
FFE0
FFE0
E0F0
E070
E070
E070
E0F0
FFE0
FFC0
FF80
E000
E000
E000
E000
E000
E000
E000
ENDCHAR
STARTCHAR 0051
ENCODING 81
SWIDTH 600 0
DWIDTH 15 0
BBX 11 22 2 -4
BITMAP
3F80
7FC0
F1E0
E0E0
E0E0
E0E0
E0E0
E0E0
E0E0
E0E0
E0E0
E0E0
E0E0
E0E0
E0E0
FBE0
7FC0
3F80
0380
03C0
01C0
00E0
ENDCHAR
STARTCHAR 0052
ENCODING 82
SWIDTH 600 0
DWIDTH 15 0
BBX 12 18 2 0
BITMAP
FF80
FFC0
E3E0
E0E0
E0F0
E0F0
E0F0
E1E0
FFE0
FFC0
FF00
E380
E380
E3C0
E1C0
E1E0
E0E0
E0F0
ENDCHAR
STARTCHAR 0053
ENCODING 83
SWIDTH 600 0
DWIDTH 15 0
BBX 13 18 1 0
BITMAP
1FC0
3FE0
78F0
7070
7070
7000
7800
3F00
3FC0
0FE0
01F0
0070
0078
F078
7070
7DF0
3FE0
1FC0
ENDCHAR
STARTCHAR 0054
ENCODING 84
SWIDTH 600 0
DWIDTH 15 0
BBX 13 18 1 0
BITMAP
FFF8
FFF8
FFF8
0700
0700
0700
0700
0700
0700
0700
0700
0700
0700
0700
0700
0700
0700
0700
ENDCHAR
STARTCHAR 0055
ENCODING 85
SWIDTH 600 0
DWIDTH 15 0
BBX 11 18 2 0
BITMAP
E0E0
E0E0
E0E0
E0E0
E0E0
E0E0
E0E0
E0E0
E0E0
E0E0
E0E0
E0E0
E0E0
E0E0
E0E0
FBE0
7FC0
3F80
ENDCHAR
STARTCHAR 0056
ENCODING 86
SWIDTH 600 0
DWIDTH 15 0
BBX 13 18 1 0
BITMAP
E038
F038
7070
7070
7070
7070
38E0
38E0
38E0
38E0
1DC0
1DC0
1DC0
1DC0
0D80
0F80
0F80
0F80
ENDCHAR
STARTCHAR 0057
ENCODING 87
SWIDTH 600 0
DWIDTH 15 0
BBX 15 18 0 0
BITMAP
E38E
638C
638C
628C
728C
729C
76DC
76DC
76DC
76DC
76D8
34D8
3458
3458
3458
3C78
3C78
3C78
ENDCHAR
STARTCHAR 0058
ENCODING 88
SWIDTH 600 0
DWIDTH 15 0
BBX 13 18 1 0
BITMAP
F078
7070
78F0
38E0
3DC0
1DC0
0F80
0F80
0700
0F80
0F80
1DC0
1DC0
39E0
38E0
7070
7070
E038
ENDCHAR
STARTCHAR 0059
ENCODING 89
SWIDTH 600 0
DWIDTH 15 0
BBX 13 18 1 0
BITMAP
E038
F078
7070
7870
38E0
38E0
1DC0
1DC0
0F80
0F80
0700
0700
0700
0700
0700
0700
0700
0700
ENDCHAR
STARTCHAR 005A
ENCODING 90
SWIDTH 600 0
DWIDTH 15 0
BBX 11 18 2 0
BITMAP
FFE0
FFE0
FFE0
01C0
03C0
0380
0700
0F00
0E00
1E00
1C00
3C00
7800
7000
F000
FFE0
FFE0
FFE0
ENDCHAR
STARTCHAR 005B
ENCODING 91
SWIDTH 600 0
DWIDTH 15 0
BBX 7 24 5 -3
BITMAP
FE
FE
FE
E0
E0
E0
E0
E0
E0
E0
E0
E0
E0
E0
E0
E0
E0
E0
E0
E0
E0
FE
FE
FE
ENDCHAR
STARTCHAR 005C
ENCODING 92
SWIDTH 600 0
DWIDTH 15 0
BBX 11 24 2 -3
BITMAP
E000
E000
F000
7000
7000
7800
3800
3800
1C00
1C00
1E00
0E00
0E00
0F00
0700
0700
0380
0380
03C0
01C0
01C0
01E0
00E0
00E0
ENDCHAR
STARTCHAR 005D
ENCODING 93
SWIDTH 600 0
DWIDTH 15 0
BBX 7 24 3 -3
BITMAP
FE
FE
FE
0E
0E
0E
0E
0E
0E
0E
0E
0E
0E
0E
0E
0E
0E
0E
0E
0E
0E
FE
FE
FE
ENDCHAR
STARTCHAR 005E
ENCODING 94
SWIDTH 600 0
DWIDTH 15 0
BBX 11 10 2 8
BITMAP
0E00
1F00
1B00
3B80
3B80
71C0
71C0
60C0
E0E0
E0E0
ENDCHAR
STARTCHAR 005F
ENCODING 95
SWIDTH 600 0
DWIDTH 15 0
BBX 12 2 1 -3
BITMAP
FFF0
FFF0
ENDCHAR
STARTCHAR 0060
ENCODING 96
SWIDTH 600 0
DWIDTH 15 0
BBX 6 4 4 16
BITMAP
E0
70
38
1C
ENDCHAR
STARTCHAR 0061
ENCODING 97
SWIDTH 600 0
DWIDTH 15 0
BBX 12 14 1 0
BITMAP
0F80
3FE0
3FF0
7070
0070
0070
3FF0
7FF0
7070
F070
F070
70F0
7FF0
3F70
ENDCHAR
STARTCHAR 0062
ENCODING 98
SWIDTH 600 0
DWIDTH 15 0
BBX 11 18 2 0
BITMAP
E000
E000
E000
E000
E780
EFC0
FFE0
F1E0
E0E0
E0E0
E0E0
E0E0
E0E0
E0E0
E0E0
FBE0
FFC0
EF80
ENDCHAR
STARTCHAR 0063
ENCODING 99
SWIDTH 600 0
DWIDTH 15 0
BBX 11 14 2 0
BITMAP
1F00
7FC0
7FE0
F0E0
E0E0
E000
E000
E000
E000
E0E0
E0E0
FBE0
7FC0
3F80
ENDCHAR
STARTCHAR 0064
ENCODING 100
SWIDTH 600 0
DWIDTH 15 0
BBX 11 18 2 0
BITMAP
00E0
00E0
00E0
00E0
3CE0
7FE0
FFE0
F1E0
E0E0
E0E0
E0E0
E0E0
E0E0
E0E0
E0E0
FBE0
7FE0
3EE0
ENDCHAR
STARTCHAR 0065
ENCODING 101
SWIDTH 600 0
DWIDTH 15 0
BBX 11 14 2 0
BITMAP
1F00
7FC0
7BC0
E0E0
E0E0
E0E0
FFE0
FFE0
E000
E000
E0E0
F1E0
7FC0
3F80
ENDCHAR
STARTCHAR 0066
ENCODING 102
SWIDTH 600 0
DWIDTH 15 0
BBX 13 18 1 0
BITMAP
03F8
07F8
0FF8
0E00
0E00
FFF8
FFF8
0E00
0E00
0E00
0E00
0E00
0E00
0E00
0E00
0E00
0E00
0E00
ENDCHAR
STARTCHAR 0067
ENCODING 103
SWIDTH 600 0
DWIDTH 15 0
BBX 11 18 2 -4
BITMAP
3CE0
7EE0
FFE0
E1E0
E0E0
E0E0
E0E0
E0E0
E0E0
E0E0
FBE0
7FE0
3EE0
00E0
00E0
01E0
3FC0
3F80
ENDCHAR
STARTCHAR 0068
ENCODING 104
SWIDTH 600 0
DWIDTH 15 0
BBX 11 18 2 0
BITMAP
E000
E000
E000
E000
E780
EFC0
FFE0
F1E0
E0E0
E0E0
E0E0
E0E0
E0E0
E0E0
E0E0
E0E0
E0E0
E0E0
ENDCHAR
STARTCHAR 0069
ENCODING 105
SWIDTH 600 0
DWIDTH 15 0
BBX 12 19 2 0
BITMAP
0F00
0F00
0F00
0000
0000
FF00
FF00
FF00
0700
0700
0700
0700
0700
0700
0700
0700
FFF0
FFF0
FFF0
ENDCHAR
STARTCHAR 006A
ENCODING 106
SWIDTH 600 0
DWIDTH 15 0
BBX 10 23 2 -4
BITMAP
03C0
03C0
03C0
0000
0000
7F80
7F80
7F80
0380
0380
0380
0380
0380
0380
0380
0380
0380
0380
0380
0380
0F80
FF00
FE00
ENDCHAR
STARTCHAR 006B
ENCODING 107
SWIDTH 600 0
DWIDTH 15 0
BBX 12 18 2 0
BITMAP
E000
E000
E000
E000
E0F0
E0E0
E1E0
E1C0
E380
E780
FF00
FF00
E780
E380
E3C0
E1E0
E0E0
E0F0
ENDCHAR
STARTCHAR 006C
ENCODING 108
SWIDTH 600 0
DWIDTH 15 0
BBX 13 18 1 0
BITMAP
FE00
FE00
FE00
0E00
0E00
0E00
0E00
0E00
0E00
0E00
0E00
0E00
0E00
0E00
0E00
0FF8
07F8
03F8
ENDCHAR
STARTCHAR 006D
ENCODING 109
SWIDTH 600 0
DWIDTH 15 0
BBX 13 14 1 0
BITMAP
EEF0
FEF0
F778
E738
E738
E738
E738
E738
E738
E738
E738
E738
E738
E738
ENDCHAR
STARTCHAR 006E
ENCODING 110
SWIDTH 600 0
DWIDTH 15 0
BBX 11 14 2 0
BITMAP
E780
EFC0
FFE0
F1E0
E0E0
E0E0
E0E0
E0E0
E0E0
E0E0
E0E0
E0E0
E0E0
E0E0
ENDCHAR
STARTCHAR 006F
ENCODING 111
SWIDTH 600 0
DWIDTH 15 0
BBX 11 14 2 0
BITMAP
1F00
7FC0
7FE0
F1E0
E0E0
E0E0
E0E0
E0E0
E0E0
E0E0
E0E0
FBE0
7FC0
3F80
ENDCHAR
STARTCHAR 0070
ENCODING 112
SWIDTH 600 0
DWIDTH 15 0
BBX 11 18 2 -4
BITMAP
E780
EFC0
FFE0
F1E0
E0E0
E0E0
E0E0
E0E0
E0E0
E0E0
E0E0
FBE0
FFC0
EF80
E000
E000
E000
E000
ENDCHAR
STARTCHAR 0071
ENCODING 113
SWIDTH 600 0
DWIDTH 15 0
BBX 11 18 2 -4
BITMAP
3CE0
7EE0
FFE0
E1E0
E0E0
E0E0
E0E0
E0E0
E0E0
E0E0
E0E0
FBE0
7FE0
3EE0
00E0
00E0
00E0
00E0
ENDCHAR
STARTCHAR 0072
ENCODING 114
SWIDTH 600 0
DWIDTH 15 0
BBX 12 14 2 0
BITMAP
E780
EFE0
FFE0
F0F0
F070
E070
E000
E000
E000
E000
E000
E000
E000
E000
ENDCHAR
STARTCHAR 0073
ENCODING 115
SWIDTH 600 0
DWIDTH 15 0
BBX 11 14 2 0
BITMAP
3F80
7FC0
FFE0
E0E0
E000
F800
7F80
3FE0
01E0
00E0
E0E0
F1E0
FFE0
3F80
ENDCHAR
STARTCHAR 0074
ENCODING 116
SWIDTH 600 0
DWIDTH 15 0
BBX 12 17 1 0
BITMAP
0E00
0E00
0E00
FFF0
FFF0
FFF0
0E00
0E00
0E00
0E00
0E00
0E00
0E00
0E00
0FF0
07F0
03F0
ENDCHAR
STARTCHAR 0075
ENCODING 117
SWIDTH 600 0
DWIDTH 15 0
BBX 11 14 2 0
BITMAP
E0E0
E0E0
E0E0
E0E0
E0E0
E0E0
E0E0
E0E0
E0E0
E0E0
E0E0
FBE0
7FC0
3F80
ENDCHAR
STARTCHAR 0076
ENCODING 118
SWIDTH 600 0
DWIDTH 15 0
BBX 13 14 1 0
BITMAP
E038
F078
7070
7070
7870
38E0
38E0
38E0
1DC0
1DC0
1DC0
0F80
0F80
0F80
ENDCHAR
STARTCHAR 0077
ENCODING 119
SWIDTH 600 0
DWIDTH 15 0
BBX 13 14 1 0
BITMAP
C718
C718
C718
E518
E538
EDB8
EDB8
6DB0
6DB0
69B0
68B0
78F0
78F0
78E0
ENDCHAR
STARTCHAR 0078
ENCODING 120
SWIDTH 600 0
DWIDTH 15 0
BBX 13 14 1 0
BITMAP
F078
78F0
38E0
3DE0
1DC0
0F80
0F80
0F80
0F80
1DC0
3DE0
38E0
7070
F078
ENDCHAR
STARTCHAR 0079
ENCODING 121
SWIDTH 600 0
DWIDTH 15 0
BBX 13 18 1 -4
BITMAP
E038
F078
7070
7870
38E0
38E0
3CE0
1DC0
1DC0
0FC0
0F80
0F80
0780
0700
0700
0F00
0E00
0E00
ENDCHAR
STARTCHAR 007A
ENCODING 122
SWIDTH 600 0
DWIDTH 15 0
BBX 11 14 2 0
BITMAP
FFE0
FFE0
FFE0
01C0
03C0
0780
0F00
1E00
3C00
7800
7000
FFE0
FFE0
FFE0
ENDCHAR
STARTCHAR 007B
ENCODING 123
SWIDTH 600 0
DWIDTH 15 0
BBX 11 24 2 -3
BITMAP
00E0
03E0
07E0
0780
0700
0700
0700
0700
0700
0700
0F00
FE00
FE00
1F00
0700
0700
0700
0700
0700
0700
0780
07E0
03E0
01E0
ENDCHAR
STARTCHAR 007C
ENCODING 124
SWIDTH 600 0
DWIDTH 15 0
BBX 3 24 6 -3
BITMAP
E0
E0
E0
E0
E0
E0
E0
E0
E0
E0
E0
E0
E0
E0
E0
E0
E0
E0
E0
E0
E0
E0
E0
E0
ENDCHAR
STARTCHAR 007D
ENCODING 125
SWIDTH 600 0
DWIDTH 15 0
BBX 11 24 2 -3
BITMAP
E000
F800
FC00
3C00
1C00
1C00
1C00
1C00
1C00
1C00
1E00
0FE0
0FE0
1F00
1C00
1C00
1C00
1C00
1C00
1C00
3C00
FC00
F800
E000
ENDCHAR
STARTCHAR 007E
ENCODING 126
SWIDTH 600 0
DWIDTH 15 0
BBX 13 6 1 6
BITMAP
3800
7E38
FF38
E7B8
E3F0
E1E0
ENDCHAR
STARTCHAR 00A0
ENCODING 160
SWIDTH 600 0
DWIDTH 15 0
BBX 0 0 0 0
BITMAP
ENDCHAR
STARTCHAR 00A1
ENCODING 161
SWIDTH 600 0
DWIDTH 15 0
BBX 5 18 5 -4
BITMAP
70
F8
70
00
00
00
70
70
70
70
70
70
70
70
70
70
70
70
ENDCHAR
STARTCHAR 00A2
ENCODING 162
SWIDTH 600 0
DWIDTH 15 0
BBX 11 20 2 -3
BITMAP
0400
0400
0400
1F00
7FC0
7FE0
F4E0
E4E0
E400
E400
E400
E400
E4E0
E4E0
FFE0
7FC0
3F80
0400
0400
0400
ENDCHAR
STARTCHAR 00A3
ENCODING 163
SWIDTH 600 0
DWIDTH 15 0
BBX 11 18 2 0
BITMAP
3F80
7FC0
F1E0
E0E0
E0E0
E000
F000
7000
FF80
FF80
FF80
1800
3800
7800
E000
FFE0
FFE0
FFE0
ENDCHAR
STARTCHAR 00A4
ENCODING 164
SWIDTH 600 0
DWIDTH 15 0
BBX 13 13 1 2
BITMAP
6010
FFB8
7FF0
30E0
3060
6030
6030
3060
3060
3FE0
7FF0
E030
4000
ENDCHAR
STARTCHAR 00A5
ENCODING 165
SWIDTH 600 0
DWIDTH 15 0
BBX 13 18 1 0
BITMAP
E038
F078
7070
7870
38E0
38E0
1DC0
1DC0
0F80
FFF0
FFF0
0700
0700
FFF0
FFF0
0700
0700
0700
ENDCHAR
STARTCHAR 00A6
ENCODING 166
SWIDTH 600 0
DWIDTH 15 0
BBX 3 24 6 -3
BITMAP
E0
E0
E0
E0
E0
E0
E0
E0
E0
E0
00
00
00
00
E0
E0
E0
E0
E0
E0
E0
E0
E0
E0
ENDCHAR
STARTCHAR 00A7
ENCODING 167
SWIDTH 600 0
DWIDTH 15 0
BBX 12 22 2 -4
BITMAP
7FC0
FFE0
E0E0
E000
E000
F800
7F80
1FC0
61E0
E0E0
E0F0
E0E0
F0E0
7F00
3FC0
03E0
00E0
00F0
E0E0
FFE0
7FC0
1F00
ENDCHAR
STARTCHAR 00A8
ENCODING 168
SWIDTH 600 0
DWIDTH 15 0
BBX 9 3 3 16
BITMAP
E380
E780
E380
ENDCHAR
STARTCHAR 00A9
ENCODING 169
SWIDTH 600 0
DWIDTH 15 0
BBX 13 15 1 3
BITMAP
1FC0
3060
4030
C798
CFD8
98D8
9818
9818
9818
D8D8
CF98
4710
6030
3060
1FC0
ENDCHAR
STARTCHAR 00AA
ENCODING 170
SWIDTH 600 0
DWIDTH 15 0
BBX 7 7 4 11
BITMAP
7C
46
1E
7E
C6
FE
76
ENDCHAR
STARTCHAR 00AB
ENCODING 171
SWIDTH 600 0
DWIDTH 15 0
BBX 13 12 1 1
BITMAP
0E38
1C70
38F0
79E0
71C0
E380
E380
71C0
79E0
3CF0
1C70
0E38
ENDCHAR
STARTCHAR 00AC
ENCODING 172
SWIDTH 600 0
DWIDTH 15 0
BBX 11 6 2 5
BITMAP
FFE0
FFE0
FFE0
00E0
00E0
00E0
ENDCHAR
STARTCHAR 00AD
ENCODING 173
SWIDTH 600 0
DWIDTH 15 0
BBX 8 3 3 7
BITMAP
FF
FF
FF
ENDCHAR
STARTCHAR 00AE
ENCODING 174
SWIDTH 600 0
DWIDTH 15 0
BBX 13 15 1 3
BITMAP
1FC0
3060
4030
CF98
C998
88D8
88D8
8F98
8918
C998
C998
48D0
6030
3060
1FC0
ENDCHAR
STARTCHAR 00AF
ENCODING 175
SWIDTH 600 0
DWIDTH 15 0
BBX 7 3 4 16
BITMAP
FE
FE
FE
ENDCHAR
STARTCHAR 00B0
ENCODING 176
SWIDTH 600 0
DWIDTH 15 0
BBX 7 7 4 11
BITMAP
7C
C6
C6
C2
C6
7C
38
ENDCHAR
STARTCHAR 00B1
ENCODING 177
SWIDTH 600 0
DWIDTH 15 0
BBX 12 14 2 0
BITMAP
0E00
0E00
0E00
0E00
FFF0
FFF0
FFF0
0E00
0E00
0E00
0E00
0E00
FFE0
FFE0
ENDCHAR
STARTCHAR 00B2
ENCODING 178
SWIDTH 600 0
DWIDTH 15 0
BBX 8 11 4 10
BITMAP
7C
FE
C6
C6
06
0E
1C
78
E0
FF
FF
ENDCHAR
STARTCHAR 00B3
ENCODING 179
SWIDTH 600 0
DWIDTH 15 0
BBX 8 11 3 10
BITMAP
7E
7E
06
0C
1C
1E
03
03
E3
7E
3C
ENDCHAR
STARTCHAR 00B4
ENCODING 180
SWIDTH 600 0
DWIDTH 15 0
BBX 6 4 5 16
BITMAP
1C
38
70
E0
ENDCHAR
STARTCHAR 00B5
ENCODING 181
SWIDTH 600 0
DWIDTH 15 0
BBX 11 18 2 -4
BITMAP
E0E0
E0E0
E0E0
E0E0
E0E0
E0E0
E0E0
E0E0
E0E0
E0E0
E0E0
FBE0
FFC0
DF80
C000
E000
E000
E000
ENDCHAR
STARTCHAR 00B6
ENCODING 182
SWIDTH 600 0
DWIDTH 15 0
BBX 12 22 1 -4
BITMAP
3F30
7F30
7F30
FF30
FF30
FF30
FF30
7F30
7F30
3F30
0730
0730
0730
0730
0730
0730
0730
0730
0730
0730
0730
0730
ENDCHAR
STARTCHAR 00B7
ENCODING 183
SWIDTH 600 0
DWIDTH 15 0
BBX 5 5 5 6
BITMAP
70
F8
F8
F8
70
ENDCHAR
STARTCHAR 00B8
ENCODING 184
SWIDTH 600 0
DWIDTH 15 0
BBX 6 5 5 -5
BITMAP
60
F0
1C
1C
F8
ENDCHAR
STARTCHAR 00B9
ENCODING 185
SWIDTH 600 0
DWIDTH 15 0
BBX 8 11 4 10
BITMAP
38
78
F8
98
18
18
18
18
18
FF
FF
ENDCHAR
STARTCHAR 00BA
ENCODING 186
SWIDTH 600 0
DWIDTH 15 0
BBX 7 7 4 11
BITMAP
7C
C6
C6
C6
C6
7C
38
ENDCHAR
STARTCHAR 00BB
ENCODING 187
SWIDTH 600 0
DWIDTH 15 0
BBX 13 12 1 1
BITMAP
E380
71C0
79E0
3CF0
1C70
0E38
0E38
1C70
3CF0
78E0
71C0
E380
ENDCHAR
STARTCHAR 00BC
ENCODING 188
SWIDTH 600 0
DWIDTH 15 0
BBX 13 18 1 0
BITMAP
7830
D860
9860
18C0
18C0
1980
FF80
FF00
0300
0600
0660
0CE0
0CC0
1998
1B18
33F8
3018
6018
ENDCHAR
STARTCHAR 00BD
ENCODING 189
SWIDTH 600 0
DWIDTH 15 0
BBX 13 18 1 0
BITMAP
7830
D860
9860
18C0
18C0
1980
FF80
FF00
0300
0600
06F0
0DD8
0D98
1818
1830
30E0
31B8
61F8
ENDCHAR
STARTCHAR 00BE
ENCODING 190
SWIDTH 600 0
DWIDTH 15 0
BBX 13 18 1 0
BITMAP
FC30
0860
3060
38C0
0CC0
8D80
FD80
7B00
0300
0600
0660
0CE0
0CC0
1998
1B18
33F8
3018
6018
ENDCHAR
STARTCHAR 00BF
ENCODING 191
SWIDTH 600 0
DWIDTH 15 0
BBX 10 18 2 -4
BITMAP
0700
0780
0780
0000
0000
0000
0700
0700
1F00
3F00
7F00
7000
E000
E000
F000
7FC0
3FC0
1FC0
ENDCHAR
STARTCHAR 00C0
ENCODING 192
SWIDTH 600 0
DWIDTH 15 0
BBX 13 24 1 0
BITMAP
3C00
1C00
0E00
0700
0000
0000
0F80
0F80
0F80
0D80
1DC0
1DC0
1DC0
18C0
38E0
38E0
38E0
3FE0
7FF0
7FF0
7070
F070
E038
E038
ENDCHAR
STARTCHAR 00C1
ENCODING 193
SWIDTH 600 0
DWIDTH 15 0
BBX 13 24 1 0
BITMAP
01E0
01C0
0380
0700
0000
0000
0F80
0F80
0F80
0D80
1DC0
1DC0
1DC0
18C0
38E0
38E0
38E0
3FE0
7FF0
7FF0
7070
F070
E038
E038
ENDCHAR
STARTCHAR 00C2
ENCODING 194
SWIDTH 600 0
DWIDTH 15 0
BBX 13 24 1 0
BITMAP
0700
0F80
1DC0
38E0
0000
0000
0F80
0F80
0F80
0D80
1DC0
1DC0
1DC0
18C0
38E0
38E0
38E0
3FE0
7FF0
7FF0
7070
F070
E038
E038
ENDCHAR
STARTCHAR 00C3
ENCODING 195
SWIDTH 600 0
DWIDTH 15 0
BBX 13 24 1 0
BITMAP
0800
1E60
37E0
31C0
0000
0000
0F80
0F80
0F80
0D80
1DC0
1DC0
1DC0
18C0
38E0
38E0
38E0
3FE0
7FF0
7FF0
7070
F070
E038
E038
ENDCHAR
STARTCHAR 00C4
ENCODING 196
SWIDTH 600 0
DWIDTH 15 0
BBX 13 24 1 0
BITMAP
1040
38E0
38E0
18C0
0000
0000
0F80
0F80
0F80
0D80
1DC0
1DC0
1DC0
18C0
38E0
38E0
38E0
3FE0
7FF0
7FF0
7070
F070
E038
E038
ENDCHAR
STARTCHAR 00C5
ENCODING 197
SWIDTH 600 0
DWIDTH 15 0
BBX 13 24 1 0
BITMAP
0700
0F80
18C0
18C0
0F80
0000
0F80
0F80
0F80
0D80
1DC0
1DC0
1DC0
18C0
38E0
38E0
38E0
3FE0
7FF0
7FF0
7070
F070
E038
E038
ENDCHAR
STARTCHAR 00C6
ENCODING 198
SWIDTH 600 0
DWIDTH 15 0
BBX 14 18 0 0
BITMAP
0FFC
1FFC
1DC0
1DC0
1DC0
1DC0
19C0
39FC
39FC
39FC
39C0
3FC0
7FC0
71C0
71C0
71FC
71FC
E1FC
ENDCHAR
STARTCHAR 00C7
ENCODING 199
SWIDTH 600 0
DWIDTH 15 0
BBX 11 23 2 -5
BITMAP
3F80
7FC0
F1E0
E0E0
E0E0
E000
E000
E000
E000
E000
E000
E000
E000
E0E0
E0E0
FBE0
7FC0
3F80
0C00
1E00
0380
0380
1F00
ENDCHAR
STARTCHAR 00C8
ENCODING 200
SWIDTH 600 0
DWIDTH 15 0
BBX 11 24 2 0
BITMAP
7800
3800
1C00
0E00
0000
0000
FFE0
FFE0
E000
E000
E000
E000
E000
FFC0
FFC0
FFC0
E000
E000
E000
E000
E000
FFE0
FFE0
FFE0
ENDCHAR
STARTCHAR 00C9
ENCODING 201
SWIDTH 600 0
DWIDTH 15 0
BBX 11 24 2 0
BITMAP
03C0
0380
0700
0E00
0000
0000
FFE0
FFE0
E000
E000
E000
E000
E000
FFC0
FFC0
FFC0
E000
E000
E000
E000
E000
FFE0
FFE0
FFE0
ENDCHAR
STARTCHAR 00CA
ENCODING 202
SWIDTH 600 0
DWIDTH 15 0
BBX 11 24 2 0
BITMAP
0E00
1F00
3B80
71C0
0000
0000
FFE0
FFE0
E000
E000
E000
E000
E000
FFC0
FFC0
FFC0
E000
E000
E000
E000
E000
FFE0
FFE0
FFE0
ENDCHAR
STARTCHAR 00CB
ENCODING 203
SWIDTH 600 0
DWIDTH 15 0
BBX 11 24 2 0
BITMAP
2080
71C0
71C0
3180
0000
0000
FFE0
FFE0
E000
E000
E000
E000
E000
FFC0
FFC0
FFC0
E000
E000
E000
E000
E000
FFE0
FFE0
FFE0
ENDCHAR
STARTCHAR 00CC
ENCODING 204
SWIDTH 600 0
DWIDTH 15 0
BBX 11 24 2 0
BITMAP
7800
3800
1C00
0E00
0000
0000
FFE0
FFE0
FFE0
0E00
0E00
0E00
0E00
0E00
0E00
0E00
0E00
0E00
0E00
0E00
0E00
FFE0
FFE0
FFE0
ENDCHAR
STARTCHAR 00CD
ENCODING 205
SWIDTH 600 0
DWIDTH 15 0
BBX 11 24 2 0
BITMAP
03C0
0380
0700
0E00
0000
0000
FFE0
FFE0
FFE0
0E00
0E00
0E00
0E00
0E00
0E00
0E00
0E00
0E00
0E00
0E00
0E00
FFE0
FFE0
FFE0
ENDCHAR
STARTCHAR 00CE
ENCODING 206
SWIDTH 600 0
DWIDTH 15 0
BBX 11 24 2 0
BITMAP
0E00
1F00
3B80
71C0
0000
0000
FFE0
FFE0
FFE0
0E00
0E00
0E00
0E00
0E00
0E00
0E00
0E00
0E00
0E00
0E00
0E00
FFE0
FFE0
FFE0
ENDCHAR
STARTCHAR 00CF
ENCODING 207
SWIDTH 600 0
DWIDTH 15 0
BBX 11 24 2 0
BITMAP
2080
71C0
71C0
3180
0000
0000
FFE0
FFE0
FFE0
0E00
0E00
0E00
0E00
0E00
0E00
0E00
0E00
0E00
0E00
0E00
0E00
FFE0
FFE0
FFE0
ENDCHAR
STARTCHAR 00D0
ENCODING 208
SWIDTH 600 0
DWIDTH 15 0
BBX 12 18 1 0
BITMAP
7FC0
7FE0
7FF0
7070
7070
7070
7070
7070
FC70
FC70
7070
7070
7070
7070
70F0
7FE0
7FE0
7F80
ENDCHAR
STARTCHAR 00D1
ENCODING 209
SWIDTH 600 0
DWIDTH 15 0
BBX 11 24 2 0
BITMAP
1000
3CC0
6FC0
6380
0000
0000
F0E0
F0E0
F8E0
F8E0
D8E0
FCE0
FCE0
ECE0
EEE0
EEE0
E6E0
E7E0
E760
E360
E3E0
E3E0
E1E0
E1E0
ENDCHAR
STARTCHAR 00D2
ENCODING 210
SWIDTH 600 0
DWIDTH 15 0
BBX 11 24 2 0
BITMAP
7800
3800
1C00
0E00
0000
0000
3F80
7FC0
F1E0
E0E0
E0E0
E0E0
E0E0
E0E0
E0E0
E0E0
E0E0
E0E0
E0E0
E0E0
E0E0
FBE0
7FC0
3F80
ENDCHAR
STARTCHAR 00D3
ENCODING 211
SWIDTH 600 0
DWIDTH 15 0
BBX 11 24 2 0
BITMAP
03C0
0380
0700
0E00
0000
0000
3F80
7FC0
F1E0
E0E0
E0E0
E0E0
E0E0
E0E0
E0E0
E0E0
E0E0
E0E0
E0E0
E0E0
E0E0
FBE0
7FC0
3F80
ENDCHAR
STARTCHAR 00D4
ENCODING 212
SWIDTH 600 0
DWIDTH 15 0
BBX 11 24 2 0
BITMAP
0E00
1F00
3B80
71C0
0000
0000
3F80
7FC0
F1E0
E0E0
E0E0
E0E0
E0E0
E0E0
E0E0
E0E0
E0E0
E0E0
E0E0
E0E0
E0E0
FBE0
7FC0
3F80
ENDCHAR
STARTCHAR 00D5
ENCODING 213
SWIDTH 600 0
DWIDTH 15 0
BBX 11 24 2 0
BITMAP
1000
3CC0
6FC0
6380
0000
0000
3F80
7FC0
F1E0
E0E0
E0E0
E0E0
E0E0
E0E0
E0E0
E0E0
E0E0
E0E0
E0E0
E0E0
E0E0
FBE0
7FC0
3F80
ENDCHAR
STARTCHAR 00D6
ENCODING 214
SWIDTH 600 0
DWIDTH 15 0
BBX 11 24 2 0
BITMAP
2080
71C0
71C0
3180
0000
0000
3F80
7FC0
F1E0
E0E0
E0E0
E0E0
E0E0
E0E0
E0E0
E0E0
E0E0
E0E0
E0E0
E0E0
E0E0
FBE0
7FC0
3F80
ENDCHAR
STARTCHAR 00D7
ENCODING 215
SWIDTH 600 0
DWIDTH 15 0
BBX 11 10 2 3
BITMAP
60C0
F1E0
7BC0
3F80
1F00
1F00
3F80
7BC0
71C0
2080
ENDCHAR
STARTCHAR 00D8
ENCODING 216
SWIDTH 600 0
DWIDTH 15 0
BBX 13 20 1 -1
BITMAP
0018
1FF8
3FF0
78F0
70F0
70F0
71F0
71F0
73F0
7370
7770
7E70
7C70
7C70
7870
7870
7DF0
7FE0
FFC0
C000
ENDCHAR
STARTCHAR 00D9
ENCODING 217
SWIDTH 600 0
DWIDTH 15 0
BBX 11 24 2 0
BITMAP
7800
3800
1C00
0E00
0000
0000
E0E0
E0E0
E0E0
E0E0
E0E0
E0E0
E0E0
E0E0
E0E0
E0E0
E0E0
E0E0
E0E0
E0E0
E0E0
FBE0
7FC0
3F80
ENDCHAR
STARTCHAR 00DA
ENCODING 218
SWIDTH 600 0
DWIDTH 15 0
BBX 11 24 2 0
BITMAP
03C0
0380
0700
0E00
0000
0000
E0E0
E0E0
E0E0
E0E0
E0E0
E0E0
E0E0
E0E0
E0E0
E0E0
E0E0
E0E0
E0E0
E0E0
E0E0
FBE0
7FC0
3F80
ENDCHAR
STARTCHAR 00DB
ENCODING 219
SWIDTH 600 0
DWIDTH 15 0
BBX 11 24 2 0
BITMAP
0E00
1F00
3B80
71C0
0000
0000
E0E0
E0E0
E0E0
E0E0
E0E0
E0E0
E0E0
E0E0
E0E0
E0E0
E0E0
E0E0
E0E0
E0E0
E0E0
FBE0
7FC0
3F80
ENDCHAR
STARTCHAR 00DC
ENCODING 220
SWIDTH 600 0
DWIDTH 15 0
BBX 11 24 2 0
BITMAP
2080
71C0
71C0
3180
0000
0000
E0E0
E0E0
E0E0
E0E0
E0E0
E0E0
E0E0
E0E0
E0E0
E0E0
E0E0
E0E0
E0E0
E0E0
E0E0
FBE0
7FC0
3F80
ENDCHAR
STARTCHAR 00DD
ENCODING 221
SWIDTH 600 0
DWIDTH 15 0
BBX 13 24 1 0
BITMAP
01E0
01C0
0380
0700
0000
0000
E038
F078
7070
7870
38E0
38E0
1DC0
1DC0
0F80
0F80
0700
0700
0700
0700
0700
0700
0700
0700
ENDCHAR
STARTCHAR 00DE
ENCODING 222
SWIDTH 600 0
DWIDTH 15 0
BBX 12 18 2 0
BITMAP
E000
E000
E000
FF00
FFC0
FFE0
E0F0
E070
E070
E070
E0F0
FFE0
FFC0
FF00
E000
E000
E000
E000
ENDCHAR
STARTCHAR 00DF
ENCODING 223
SWIDTH 600 0
DWIDTH 15 0
BBX 12 18 2 0
BITMAP
3F80
7FC0
F1E0
E0E0
E0E0
E0E0
E0E0
EFC0
EF80
EFC0
E0E0
E0F0
E0F0
E0F0
E0E0
EFE0
EFC0
EF00
ENDCHAR
STARTCHAR 00E0
ENCODING 224
SWIDTH 600 0
DWIDTH 15 0
BBX 12 20 1 0
BITMAP
3C00
1C00
0E00
0700
0000
0000
0F80
3FE0
3FF0
7070
0070
0070
3FF0
7FF0
7070
F070
F070
70F0
7FF0
3F70
ENDCHAR
STARTCHAR 00E1
ENCODING 225
SWIDTH 600 0
DWIDTH 15 0
BBX 12 20 1 0
BITMAP
01E0
01C0
0380
0700
0000
0000
0F80
3FE0
3FF0
7070
0070
0070
3FF0
7FF0
7070
F070
F070
70F0
7FF0
3F70
ENDCHAR
STARTCHAR 00E2
ENCODING 226
SWIDTH 600 0
DWIDTH 15 0
BBX 12 20 1 0
BITMAP
0700
0F80
1DC0
38E0
0000
0000
0F80
3FE0
3FF0
7070
0070
0070
3FF0
7FF0
7070
F070
F070
70F0
7FF0
3F70
ENDCHAR
STARTCHAR 00E3
ENCODING 227
SWIDTH 600 0
DWIDTH 15 0
BBX 12 20 1 0
BITMAP
0860
1E60
37E0
31C0
0000
0000
0F80
3FE0
3FF0
7070
0070
0070
3FF0
7FF0
7070
F070
F070
70F0
7FF0
3F70
ENDCHAR
STARTCHAR 00E4
ENCODING 228
SWIDTH 600 0
DWIDTH 15 0
BBX 12 19 1 0
BITMAP
38E0
39E0
38E0
0000
0000
0F80
3FE0
3FF0
7070
0070
0070
3FF0
7FF0
7070
F070
F070
70F0
7FF0
3F70
ENDCHAR
STARTCHAR 00E5
ENCODING 229
SWIDTH 600 0
DWIDTH 15 0
BBX 12 20 1 0
BITMAP
0F80
0980
18C0
0D80
0F80
0000
0F80
3FE0
3FF0
7070
0070
0070
3FF0
7FF0
7070
F070
F070
70F0
7FF0
3F70
ENDCHAR
STARTCHAR 00E6
ENCODING 230
SWIDTH 600 0
DWIDTH 15 0
BBX 13 14 1 0
BITMAP
38E0
7DF8
E7B8
E718
0718
0718
7FF8
FFF8
E700
C700
C700
E738
FDF8
7DF0
ENDCHAR
STARTCHAR 00E7
ENCODING 231
SWIDTH 600 0
DWIDTH 15 0
BBX 11 19 2 -5
BITMAP
1F00
7FC0
7FE0
F0E0
E0E0
E000
E000
E000
E000
E0E0
E0E0
FBE0
7FC0
3F80
0C00
1E00
0380
0380
1F00
ENDCHAR
STARTCHAR 00E8
ENCODING 232
SWIDTH 600 0
DWIDTH 15 0
BBX 11 20 2 0
BITMAP
7800
3800
1C00
0E00
0000
0000
1F00
7FC0
7BC0
E0E0
E0E0
E0E0
FFE0
FFE0
E000
E000
E0E0
F1E0
7FC0
3F80
ENDCHAR
STARTCHAR 00E9
ENCODING 233
SWIDTH 600 0
DWIDTH 15 0
BBX 11 20 2 0
BITMAP
03C0
0380
0700
0E00
0000
0000
1F00
7FC0
7BC0
E0E0
E0E0
E0E0
FFE0
FFE0
E000
E000
E0E0
F1E0
7FC0
3F80
ENDCHAR
STARTCHAR 00EA
ENCODING 234
SWIDTH 600 0
DWIDTH 15 0
BBX 11 20 2 0
BITMAP
0E00
1F00
3B80
71C0
0000
0000
1F00
7FC0
7BC0
E0E0
E0E0
E0E0
FFE0
FFE0
E000
E000
E0E0
F1E0
7FC0
3F80
ENDCHAR
STARTCHAR 00EB
ENCODING 235
SWIDTH 600 0
DWIDTH 15 0
BBX 11 19 2 0
BITMAP
71C0
73C0
71C0
0000
0000
1F00
7FC0
7BC0
E0E0
E0E0
E0E0
FFE0
FFE0
E000
E000
E0E0
F1E0
7FC0
3F80
ENDCHAR
STARTCHAR 00EC
ENCODING 236
SWIDTH 600 0
DWIDTH 15 0
BBX 12 20 2 0
BITMAP
3800
1C00
0E00
0700
0000
0000
FF00
FF00
FF00
0700
0700
0700
0700
0700
0700
0700
0700
FFF0
FFF0
FFF0
ENDCHAR
STARTCHAR 00ED
ENCODING 237
SWIDTH 600 0
DWIDTH 15 0
BBX 12 20 2 0
BITMAP
03C0
0380
0700
0E00
0000
0000
FF00
FF00
FF00
0700
0700
0700
0700
0700
0700
0700
0700
FFF0
FFF0
FFF0
ENDCHAR
STARTCHAR 00EE
ENCODING 238
SWIDTH 600 0
DWIDTH 15 0
BBX 12 20 2 0
BITMAP
0E00
1F00
3B80
71C0
0000
0000
FF00
FF00
FF00
0700
0700
0700
0700
0700
0700
0700
0700
FFF0
FFF0
FFF0
ENDCHAR
STARTCHAR 00EF
ENCODING 239
SWIDTH 600 0
DWIDTH 15 0
BBX 12 19 2 0
BITMAP
71C0
73C0
71C0
0000
0000
FF00
FF00
FF00
0700
0700
0700
0700
0700
0700
0700
0700
FFF0
FFF0
FFF0
ENDCHAR
STARTCHAR 00F0
ENCODING 240
SWIDTH 600 0
DWIDTH 15 0
BBX 13 18 1 1
BITMAP
1EE0
0FE0
1F80
3F80
33C0
01C0
00E0
1FF0
3FF0
78F0
7078
F078
E038
F078
7070
7FF0
3FE0
1F80
ENDCHAR
STARTCHAR 00F1
ENCODING 241
SWIDTH 600 0
DWIDTH 15 0
BBX 11 20 2 0
BITMAP
10C0
3CC0
6FC0
6380
0000
0000
E780
EFC0
FFE0
F1E0
E0E0
E0E0
E0E0
E0E0
E0E0
E0E0
E0E0
E0E0
E0E0
E0E0
ENDCHAR
STARTCHAR 00F2
ENCODING 242
SWIDTH 600 0
DWIDTH 15 0
BBX 11 20 2 0
BITMAP
7800
3800
1C00
0E00
0000
0000
1F00
7FC0
7FE0
F1E0
E0E0
E0E0
E0E0
E0E0
E0E0
E0E0
E0E0
FBE0
7FC0
3F80
ENDCHAR
STARTCHAR 00F3
ENCODING 243
SWIDTH 600 0
DWIDTH 15 0
BBX 11 20 2 0
BITMAP
03C0
0380
0700
0E00
0000
0000
1F00
7FC0
7FE0
F1E0
E0E0
E0E0
E0E0
E0E0
E0E0
E0E0
E0E0
FBE0
7FC0
3F80
ENDCHAR
STARTCHAR 00F4
ENCODING 244
SWIDTH 600 0
DWIDTH 15 0
BBX 11 20 2 0
BITMAP
0E00
1F00
3B80
71C0
0000
0000
1F00
7FC0
7FE0
F1E0
E0E0
E0E0
E0E0
E0E0
E0E0
E0E0
E0E0
FBE0
7FC0
3F80
ENDCHAR
STARTCHAR 00F5
ENCODING 245
SWIDTH 600 0
DWIDTH 15 0
BBX 11 20 2 0
BITMAP
10C0
3CC0
6FC0
6380
0000
0000
1F00
7FC0
7FE0
F1E0
E0E0
E0E0
E0E0
E0E0
E0E0
E0E0
E0E0
FBE0
7FC0
3F80
ENDCHAR
STARTCHAR 00F6
ENCODING 246
SWIDTH 600 0
DWIDTH 15 0
BBX 11 19 2 0
BITMAP
71C0
73C0
71C0
0000
0000
1F00
7FC0
7FE0
F1E0
E0E0
E0E0
E0E0
E0E0
E0E0
E0E0
E0E0
FBE0
7FC0
3F80
ENDCHAR
STARTCHAR 00F7
ENCODING 247
SWIDTH 600 0
DWIDTH 15 0
BBX 10 13 2 2
BITMAP
0E00
1F00
1E00
0400
0000
FFC0
FFC0
FFC0
0000
0000
0E00
1F00
0E00
ENDCHAR
STARTCHAR 00F8
ENCODING 248
SWIDTH 600 0
DWIDTH 15 0
BBX 13 16 1 -1
BITMAP
0038
0FB0
3FF0
3FF0
78F0
71F0
73F0
7370
7670
7E70
7C70
7870
7DF0
7FE0
7FC0
E000
ENDCHAR
STARTCHAR 00F9
ENCODING 249
SWIDTH 600 0
DWIDTH 15 0
BBX 11 20 2 0
BITMAP
7800
3800
1C00
0E00
0000
0000
E0E0
E0E0
E0E0
E0E0
E0E0
E0E0
E0E0
E0E0
E0E0
E0E0
E0E0
FBE0
7FC0
3F80
ENDCHAR
STARTCHAR 00FA
ENCODING 250
SWIDTH 600 0
DWIDTH 15 0
BBX 11 20 2 0
BITMAP
03C0
0380
0700
0E00
0000
0000
E0E0
E0E0
E0E0
E0E0
E0E0
E0E0
E0E0
E0E0
E0E0
E0E0
E0E0
FBE0
7FC0
3F80
ENDCHAR
STARTCHAR 00FB
ENCODING 251
SWIDTH 600 0
DWIDTH 15 0
BBX 11 20 2 0
BITMAP
0E00
1F00
3B80
71C0
0000
0000
E0E0
E0E0
E0E0
E0E0
E0E0
E0E0
E0E0
E0E0
E0E0
E0E0
E0E0
FBE0
7FC0
3F80
ENDCHAR
STARTCHAR 00FC
ENCODING 252
SWIDTH 600 0
DWIDTH 15 0
BBX 11 19 2 0
BITMAP
71C0
73C0
71C0
0000
0000
E0E0
E0E0
E0E0
E0E0
E0E0
E0E0
E0E0
E0E0
E0E0
E0E0
E0E0
FBE0
7FC0
3F80
ENDCHAR
STARTCHAR 00FD
ENCODING 253
SWIDTH 600 0
DWIDTH 15 0
BBX 13 24 1 -4
BITMAP
01E0
01C0
0380
0700
0000
0000
E038
F078
7070
7870
38E0
38E0
3CE0
1DC0
1DC0
0FC0
0F80
0F80
0780
0700
0700
0F00
0E00
0E00
ENDCHAR
STARTCHAR 00FE
ENCODING 254
SWIDTH 600 0
DWIDTH 15 0
BBX 11 22 2 -4
BITMAP
E000
E000
E000
E000
E780
EFC0
FFE0
F1E0
E0E0
E0E0
E0E0
E0E0
E0E0
E0E0
E0E0
FBE0
FFC0
EF80
E000
E000
E000
E000
ENDCHAR
STARTCHAR 00FF
ENCODING 255
SWIDTH 600 0
DWIDTH 15 0
BBX 13 23 1 -4
BITMAP
38E0
39E0
38E0
0000
0000
E038
F078
7070
7870
38E0
38E0
3CE0
1DC0
1DC0
0FC0
0F80
0F80
0780
0700
0700
0F00
0E00
0E00
ENDCHAR
STARTCHAR 0100
ENCODING 256
SWIDTH 600 0
DWIDTH 15 0
BBX 13 23 1 0
BITMAP
1FC0
1FC0
1FC0
0000
0000
0F80
0F80
0F80
0D80
1DC0
1DC0
1DC0
18C0
38E0
38E0
38E0
3FE0
7FF0
7FF0
7070
F070
E038
E038
ENDCHAR
STARTCHAR 0101
ENCODING 257
SWIDTH 600 0
DWIDTH 15 0
BBX 12 19 1 0
BITMAP
1FC0
1FC0
1FC0
0000
0000
0F80
3FE0
3FF0
7070
0070
0070
3FF0
7FF0
7070
F070
F070
70F0
7FF0
3F70
ENDCHAR
STARTCHAR 0102
ENCODING 258
SWIDTH 600 0
DWIDTH 15 0
BBX 13 24 1 0
BITMAP
3060
38E0
1FC0
0F80
0000
0000
0F80
0F80
0F80
0D80
1DC0
1DC0
1DC0
18C0
38E0
38E0
38E0
3FE0
7FF0
7FF0
7070
F070
E038
E038
ENDCHAR
STARTCHAR 0103
ENCODING 259
SWIDTH 600 0
DWIDTH 15 0
BBX 12 20 1 0
BITMAP
38E0
38E0
1FC0
0F80
0000
0000
0F80
3FE0
3FF0
7070
0070
0070
3FF0
7FF0
7070
F070
F070
70F0
7FF0
3F70
ENDCHAR
STARTCHAR 0104
ENCODING 260
SWIDTH 600 0
DWIDTH 15 0
BBX 14 23 1 -5
BITMAP
0F80
0F80
0F80
0D80
1DC0
1DC0
1DC0
18C0
38E0
38E0
38E0
3FE0
7FF0
7FF0
7070
F070
E038
E038
0030
0060
00E0
00FC
007C
ENDCHAR
STARTCHAR 0105
ENCODING 261
SWIDTH 600 0
DWIDTH 15 0
BBX 13 19 1 -5
BITMAP
0F80
3FE0
3FF0
7070
0070
0070
3FF0
7FF0
7070
F070
F070
70F0
7FF0
3F70
0060
00C0
01C0
01F8
00F8
ENDCHAR
STARTCHAR 0106
ENCODING 262
SWIDTH 600 0
DWIDTH 15 0
BBX 11 24 2 0
BITMAP
03C0
0380
0700
0E00
0000
0000
3F80
7FC0
F1E0
E0E0
E0E0
E000
E000
E000
E000
E000
E000
E000
E000
E0E0
E0E0
FBE0
7FC0
3F80
ENDCHAR
STARTCHAR 0107
ENCODING 263
SWIDTH 600 0
DWIDTH 15 0
BBX 11 20 2 0
BITMAP
03C0
0380
0700
0E00
0000
0000
1F00
7FC0
7FE0
F0E0
E0E0
E000
E000
E000
E000
E0E0
E0E0
FBE0
7FC0
3F80
ENDCHAR
STARTCHAR 0108
ENCODING 264
SWIDTH 600 0
DWIDTH 15 0
BBX 11 24 2 0
BITMAP
0E00
1F00
3B80
71C0
0000
0000
3F80
7FC0
F1E0
E0E0
E0E0
E000
E000
E000
E000
E000
E000
E000
E000
E0E0
E0E0
FBE0
7FC0
3F80
ENDCHAR
STARTCHAR 0109
ENCODING 265
SWIDTH 600 0
DWIDTH 15 0
BBX 11 20 2 0
BITMAP
0E00
1F00
3B80
71C0
0000
0000
1F00
7FC0
7FE0
F0E0
E0E0
E000
E000
E000
E000
E0E0
E0E0
FBE0
7FC0
3F80
ENDCHAR
STARTCHAR 010A
ENCODING 266
SWIDTH 600 0
DWIDTH 15 0
BBX 11 23 2 0
BITMAP
0E00
1F00
0E00
0000
0000
3F80
7FC0
F1E0
E0E0
E0E0
E000
E000
E000
E000
E000
E000
E000
E000
E0E0
E0E0
FBE0
7FC0
3F80
ENDCHAR
STARTCHAR 010B
ENCODING 267
SWIDTH 600 0
DWIDTH 15 0
BBX 11 19 2 0
BITMAP
1E00
1E00
0E00
0000
0000
1F00
7FC0
7FE0
F0E0
E0E0
E000
E000
E000
E000
E0E0
E0E0
FBE0
7FC0
3F80
ENDCHAR
STARTCHAR 010C
ENCODING 268
SWIDTH 600 0
DWIDTH 15 0
BBX 11 24 2 0
BITMAP
71C0
3B80
1F00
0E00
0000
0000
3F80
7FC0
F1E0
E0E0
E0E0
E000
E000
E000
E000
E000
E000
E000
E000
E0E0
E0E0
FBE0
7FC0
3F80
ENDCHAR
STARTCHAR 010D
ENCODING 269
SWIDTH 600 0
DWIDTH 15 0
BBX 11 20 2 0
BITMAP
71C0
3B80
1F00
0E00
0000
0000
1F00
7FC0
7FE0
F0E0
E0E0
E000
E000
E000
E000
E0E0
E0E0
FBE0
7FC0
3F80
ENDCHAR
STARTCHAR 010E
ENCODING 270
SWIDTH 600 0
DWIDTH 15 0
BBX 11 24 2 0
BITMAP
71C0
3B80
1F00
0E00
0000
0000
FF80
FFC0
FFE0
E0E0
E0E0
E0E0
E0E0
E0E0
E0E0
E0E0
E0E0
E0E0
E0E0
E0E0
E1E0
FFC0
FFC0
FF00
ENDCHAR
STARTCHAR 010F
ENCODING 271
SWIDTH 600 0
DWIDTH 15 0
BBX 15 19 1 0
BITMAP
0006
0076
0074
007C
0070
1E70
3F70
7FF0
70F0
F0F0
F070
F070
F070
F070
F070
70F0
7FF0
7F70
3E70
ENDCHAR
STARTCHAR 0110
ENCODING 272
SWIDTH 600 0
DWIDTH 15 0
BBX 12 18 1 0
BITMAP
7FC0
7FE0
7FF0
7070
7070
7070
7070
7070
FC70
FC70
7070
7070
7070
7070
70F0
7FE0
7FE0
7F80
ENDCHAR
STARTCHAR 0111
ENCODING 273
SWIDTH 600 0
DWIDTH 15 0
BBX 13 18 2 0
BITMAP
00E0
00E0
0FF8
0FF8
00E0
00E0
3EE0
7FE0
F1E0
E0E0
E0E0
E0E0
E0E0
E0E0
E0E0
FBE0
7FE0
3EE0
ENDCHAR
STARTCHAR 0112
ENCODING 274
SWIDTH 600 0
DWIDTH 15 0
BBX 11 23 2 0
BITMAP
3F80
3F80
3F80
0000
0000
FFE0
FFE0
E000
E000
E000
E000
E000
FFC0
FFC0
FFC0
E000
E000
E000
E000
E000
FFE0
FFE0
FFE0
ENDCHAR
STARTCHAR 0113
ENCODING 275
SWIDTH 600 0
DWIDTH 15 0
BBX 11 19 2 0
BITMAP
3F80
3F80
3F80
0000
0000
1F00
7FC0
7BC0
E0E0
E0E0
E0E0
FFE0
FFE0
E000
E000
E0E0
F1E0
7FC0
3F80
ENDCHAR
STARTCHAR 0114
ENCODING 276
SWIDTH 600 0
DWIDTH 15 0
BBX 11 24 2 0
BITMAP
60C0
71C0
3F80
1F00
0000
0000
FFE0
FFE0
E000
E000
E000
E000
E000
FFC0
FFC0
FFC0
E000
E000
E000
E000
E000
FFE0
FFE0
FFE0
ENDCHAR
STARTCHAR 0115
ENCODING 277
SWIDTH 600 0
DWIDTH 15 0
BBX 11 20 2 0
BITMAP
71C0
71C0
3F80
1F00
0000
0000
1F00
7FC0
7BC0
E0E0
E0E0
E0E0
FFE0
FFE0
E000
E000
E0E0
F1E0
7FC0
3F80
ENDCHAR
STARTCHAR 0116
ENCODING 278
SWIDTH 600 0
DWIDTH 15 0
BBX 11 23 2 0
BITMAP
0E00
1F00
0E00
0000
0000
FFE0
FFE0
E000
E000
E000
E000
E000
FFC0
FFC0
FFC0
E000
E000
E000
E000
E000
FFE0
FFE0
FFE0
ENDCHAR
STARTCHAR 0117
ENCODING 279
SWIDTH 600 0
DWIDTH 15 0
BBX 11 19 2 0
BITMAP
1E00
1E00
0E00
0000
0000
1F00
7FC0
7BC0
E0E0
E0E0
E0E0
FFE0
FFE0
E000
E000
E0E0
F1E0
7FC0
3F80
ENDCHAR
STARTCHAR 0118
ENCODING 280
SWIDTH 600 0
DWIDTH 15 0
BBX 11 23 2 -5
BITMAP
FFE0
FFE0
E000
E000
E000
E000
E000
FFC0
FFC0
FFC0
E000
E000
E000
E000
E000
FFE0
FFE0
FFE0
0180
0300
0300
03E0
03E0
ENDCHAR
STARTCHAR 0119
ENCODING 281
SWIDTH 600 0
DWIDTH 15 0
BBX 11 19 2 -5
BITMAP
1F00
7FC0
7BC0
E0E0
E0E0
E0E0
FFE0
FFE0
E000
E000
E0E0
F1E0
7FC0
3F80
0600
0E00
0C00
0F80
0F80
ENDCHAR
STARTCHAR 011A
ENCODING 282
SWIDTH 600 0
DWIDTH 15 0
BBX 11 24 2 0
BITMAP
71C0
3B80
1F00
0E00
0000
0000
FFE0
FFE0
E000
E000
E000
E000
E000
FFC0
FFC0
FFC0
E000
E000
E000
E000
E000
FFE0
FFE0
FFE0
ENDCHAR
STARTCHAR 011B
ENCODING 283
SWIDTH 600 0
DWIDTH 15 0
BBX 11 20 2 0
BITMAP
71C0
3B80
1F00
0E00
0000
0000
1F00
7FC0
7BC0
E0E0
E0E0
E0E0
FFE0
FFE0
E000
E000
E0E0
F1E0
7FC0
3F80
ENDCHAR
STARTCHAR 011C
ENCODING 284
SWIDTH 600 0
DWIDTH 15 0
BBX 11 24 2 0
BITMAP
0E00
1F00
3B80
71C0
0000
0000
3F80
7FC0
F1E0
E0E0
E0E0
E000
E000
E000
E7E0
E7E0
E7E0
E0E0
E0E0
E0E0
E0E0
FBE0
7FC0
3F80
ENDCHAR
STARTCHAR 011D
ENCODING 285
SWIDTH 600 0
DWIDTH 15 0
BBX 11 24 2 -4
BITMAP
0E00
1F00
3B80
71C0
0000
0000
3CE0
7EE0
FFE0
E1E0
E0E0
E0E0
E0E0
E0E0
E0E0
E0E0
FBE0
7FE0
3EE0
00E0
00E0
01E0
3FC0
3F80
ENDCHAR
STARTCHAR 011E
ENCODING 286
SWIDTH 600 0
DWIDTH 15 0
BBX 11 24 2 0
BITMAP
60C0
71C0
3F80
1F00
0000
0000
3F80
7FC0
F1E0
E0E0
E0E0
E000
E000
E000
E7E0
E7E0
E7E0
E0E0
E0E0
E0E0
E0E0
FBE0
7FC0
3F80
ENDCHAR
STARTCHAR 011F
ENCODING 287
SWIDTH 600 0
DWIDTH 15 0
BBX 11 24 2 -4
BITMAP
71C0
71C0
3F80
1F00
0000
0000
3CE0
7EE0
FFE0
E1E0
E0E0
E0E0
E0E0
E0E0
E0E0
E0E0
FBE0
7FE0
3EE0
00E0
00E0
01E0
3FC0
3F80
ENDCHAR
STARTCHAR 0120
ENCODING 288
SWIDTH 600 0
DWIDTH 15 0
BBX 11 23 2 0
BITMAP
0E00
1F00
0E00
0000
0000
3F80
7FC0
F1E0
E0E0
E0E0
E000
E000
E000
E7E0
E7E0
E7E0
E0E0
E0E0
E0E0
E0E0
FBE0
7FC0
3F80
ENDCHAR
STARTCHAR 0121
ENCODING 289
SWIDTH 600 0
DWIDTH 15 0
BBX 11 23 2 -4
BITMAP
1E00
1E00
0E00
0000
0000
3CE0
7EE0
FFE0
E1E0
E0E0
E0E0
E0E0
E0E0
E0E0
E0E0
FBE0
7FE0
3EE0
00E0
00E0
01E0
3FC0
3F80
ENDCHAR
STARTCHAR 0122
ENCODING 290
SWIDTH 600 0
DWIDTH 15 0
BBX 11 24 2 -6
BITMAP
3F80
7FC0
F1E0
E0E0
E0E0
E000
E000
E000
E7E0
E7E0
E7E0
E0E0
E0E0
E0E0
E0E0
FBE0
7FC0
3F80
0000
0000
0700
0E00
0E00
1C00
ENDCHAR
STARTCHAR 0123
ENCODING 291
SWIDTH 600 0
DWIDTH 15 0
BBX 11 24 2 -4
BITMAP
0700
0700
0E00
1C00
0000
0000
3CE0
7EE0
FFE0
E1E0
E0E0
E0E0
E0E0
E0E0
E0E0
E0E0
FBE0
7FE0
3EE0
00E0
00E0
01E0
3FC0
3F80
ENDCHAR
STARTCHAR 0124
ENCODING 292
SWIDTH 600 0
DWIDTH 15 0
BBX 11 24 2 0
BITMAP
0E00
1F00
3B80
71C0
0000
0000
E0E0
E0E0
E0E0
E0E0
E0E0
E0E0
E0E0
FFE0
FFE0
FFE0
E0E0
E0E0
E0E0
E0E0
E0E0
E0E0
E0E0
E0E0
ENDCHAR
STARTCHAR 0125
ENCODING 293
SWIDTH 600 0
DWIDTH 15 0
BBX 14 24 -1 0
BITMAP
1C00
3E00
7700
E380
0000
0000
1C00
1C00
1C00
1C00
1CF0
1DF8
1FFC
1E3C
1C1C
1C1C
1C1C
1C1C
1C1C
1C1C
1C1C
1C1C
1C1C
1C1C
ENDCHAR
STARTCHAR 0126
ENCODING 294
SWIDTH 600 0
DWIDTH 15 0
BBX 15 18 0 0
BITMAP
3838
3838
3838
FFFE
FFFE
3838
3838
3FF8
3FF8
3FF8
3838
3838
3838
3838
3838
3838
3838
3838
ENDCHAR
STARTCHAR 0127
ENCODING 295
SWIDTH 600 0
DWIDTH 15 0
BBX 13 18 0 0
BITMAP
3800
3800
FF80
FF80
3800
3800
3BF0
3FF0
3C78
3838
3838
3838
3838
3838
3838
3838
3838
3838
ENDCHAR
STARTCHAR 0128
ENCODING 296
SWIDTH 600 0
DWIDTH 15 0
BBX 11 24 2 0
BITMAP
1000
3CC0
6FC0
6380
0000
0000
FFE0
FFE0
FFE0
0E00
0E00
0E00
0E00
0E00
0E00
0E00
0E00
0E00
0E00
0E00
0E00
FFE0
FFE0
FFE0
ENDCHAR
STARTCHAR 0129
ENCODING 297
SWIDTH 600 0
DWIDTH 15 0
BBX 12 20 2 0
BITMAP
10C0
3CC0
6FC0
6380
0000
0000
FF00
FF00
FF00
0700
0700
0700
0700
0700
0700
0700
0700
FFF0
FFF0
FFF0
ENDCHAR
STARTCHAR 012A
ENCODING 298
SWIDTH 600 0
DWIDTH 15 0
BBX 11 23 2 0
BITMAP
3F80
3F80
3F80
0000
0000
FFE0
FFE0
FFE0
0E00
0E00
0E00
0E00
0E00
0E00
0E00
0E00
0E00
0E00
0E00
0E00
FFE0
FFE0
FFE0
ENDCHAR
STARTCHAR 012B
ENCODING 299
SWIDTH 600 0
DWIDTH 15 0
BBX 12 19 2 0
BITMAP
3F80
3F80
3F80
0000
0000
FF00
FF00
FF00
0700
0700
0700
0700
0700
0700
0700
0700
FFF0
FFF0
FFF0
ENDCHAR
STARTCHAR 012C
ENCODING 300
SWIDTH 600 0
DWIDTH 15 0
BBX 11 24 2 0
BITMAP
60C0
71C0
3F80
1F00
0000
0000
FFE0
FFE0
FFE0
0E00
0E00
0E00
0E00
0E00
0E00
0E00
0E00
0E00
0E00
0E00
0E00
FFE0
FFE0
FFE0
ENDCHAR
STARTCHAR 012D
ENCODING 301
SWIDTH 600 0
DWIDTH 15 0
BBX 12 20 2 0
BITMAP
71C0
71C0
3F80
1F00
0000
0000
FF00
FF00
FF00
0700
0700
0700
0700
0700
0700
0700
0700
FFF0
FFF0
FFF0
ENDCHAR
STARTCHAR 012E
ENCODING 302
SWIDTH 600 0
DWIDTH 15 0
BBX 11 23 2 -5
BITMAP
FFE0
FFE0
FFE0
0E00
0E00
0E00
0E00
0E00
0E00
0E00
0E00
0E00
0E00
0E00
0E00
FFE0
FFE0
FFE0
0C00
1800
3800
1F00
1F00
ENDCHAR
STARTCHAR 012F
ENCODING 303
SWIDTH 600 0
DWIDTH 15 0
BBX 12 24 2 -5
BITMAP
0F00
0F00
0F00
0000
0000
FF00
FF00
FF00
0700
0700
0700
0700
0700
0700
0700
0700
FFF0
FFF0
FFF0
0600
0C00
1C00
1F80
0F80
ENDCHAR
STARTCHAR 0130
ENCODING 304
SWIDTH 600 0
DWIDTH 15 0
BBX 11 23 2 0
BITMAP
0E00
1F00
0E00
0000
0000
FFE0
FFE0
FFE0
0E00
0E00
0E00
0E00
0E00
0E00
0E00
0E00
0E00
0E00
0E00
0E00
FFE0
FFE0
FFE0
ENDCHAR
STARTCHAR 0131
ENCODING 305
SWIDTH 600 0
DWIDTH 15 0
BBX 12 14 2 0
BITMAP
FF00
FF00
FF00
0700
0700
0700
0700
0700
0700
0700
0700
FFF0
FFF0
FFF0
ENDCHAR
STARTCHAR 0132
ENCODING 306
SWIDTH 600 0
DWIDTH 15 0
BBX 13 18 1 0
BITMAP
F3F8
F3F8
F3F8
F038
F038
F038
F038
F038
F038
F038
F038
F038
F038
F078
F070
F7F0
F7E0
F7C0
ENDCHAR
STARTCHAR 0133
ENCODING 307
SWIDTH 600 0
DWIDTH 15 0
BBX 11 23 2 -4
BITMAP
E0E0
F1E0
F1E0
0000
0000
E0E0
E0E0
E0E0
E0E0
E0E0
E0E0
E0E0
E0E0
E0E0
E0E0
E0E0
E0E0
E0E0
E0E0
01E0
1FC0
1FC0
1F00
ENDCHAR
STARTCHAR 0134
ENCODING 308
SWIDTH 600 0
DWIDTH 15 0
BBX 13 24 1 0
BITMAP
03C0
07E0
0E70
1C38
0000
0000
0FF0
0FF0
0FF0
0070
0070
0070
0070
0070
0070
0070
0070
0070
0070
E070
E0F0
FFE0
7FC0
3F80
ENDCHAR
STARTCHAR 0135
ENCODING 309
SWIDTH 600 0
DWIDTH 15 0
BBX 11 24 2 -4
BITMAP
0F00
1F80
3BC0
79E0
0000
0000
7F80
7F80
7F80
0380
0380
0380
0380
0380
0380
0380
0380
0380
0380
0380
0380
0F80
FF00
FE00
ENDCHAR
STARTCHAR 0136
ENCODING 310
SWIDTH 600 0
DWIDTH 15 0
BBX 12 24 2 -6
BITMAP
E0F0
E0E0
E1E0
E1C0
E3C0
E380
E780
FF00
FF00
FF00
E780
E380
E3C0
E1C0
E1E0
E0E0
E0F0
E0F0
0000
0000
0700
0E00
0E00
1C00
ENDCHAR
STARTCHAR 0137
ENCODING 311
SWIDTH 600 0
DWIDTH 15 0
BBX 12 24 2 -6
BITMAP
E000
E000
E000
E000
E0F0
E0E0
E1E0
E1C0
E380
E780
FF00
FF00
E780
E380
E3C0
E1E0
E0E0
E0F0
0000
0000
0700
0E00
0E00
1C00
ENDCHAR
STARTCHAR 0138
ENCODING 312
SWIDTH 600 0
DWIDTH 15 0
BBX 12 14 2 0
BITMAP
E0F0
E0E0
E1E0
E1C0
E380
E780
FF00
FF00
E780
E380
E3C0
E1E0
E0E0
E0F0
ENDCHAR
STARTCHAR 0139
ENCODING 313
SWIDTH 600 0
DWIDTH 15 0
BBX 10 24 3 0
BITMAP
3800
7000
F000
E000
0000
0000
E000
E000
E000
E000
E000
E000
E000
E000
E000
E000
E000
E000
E000
E000
E000
FFC0
FFC0
FFC0
ENDCHAR
STARTCHAR 013A
ENCODING 314
SWIDTH 600 0
DWIDTH 15 0
BBX 13 24 1 0
BITMAP
01C0
0380
0700
0E00
0000
0000
FE00
FE00
FE00
0E00
0E00
0E00
0E00
0E00
0E00
0E00
0E00
0E00
0E00
0E00
0E00
0FF8
07F8
03F8
ENDCHAR
STARTCHAR 013B
ENCODING 315
SWIDTH 600 0
DWIDTH 15 0
BBX 10 24 3 -6
BITMAP
E000
E000
E000
E000
E000
E000
E000
E000
E000
E000
E000
E000
E000
E000
E000
FFC0
FFC0
FFC0
0000
0000
0E00
1C00
1C00
3800
ENDCHAR
STARTCHAR 013C
ENCODING 316
SWIDTH 600 0
DWIDTH 15 0
BBX 13 24 1 -6
BITMAP
FE00
FE00
FE00
0E00
0E00
0E00
0E00
0E00
0E00
0E00
0E00
0E00
0E00
0E00
0E00
0FF8
07F8
03F8
0000
0000
0380
0700
0700
0E00
ENDCHAR
STARTCHAR 013D
ENCODING 317
SWIDTH 600 0
DWIDTH 15 0
BBX 10 18 3 0
BITMAP
E3C0
E380
E700
E000
E000
E000
E000
E000
E000
E000
E000
E000
E000
E000
E000
FFC0
FFC0
FFC0
ENDCHAR
STARTCHAR 013E
ENCODING 318
SWIDTH 600 0
DWIDTH 15 0
BBX 14 19 1 0
BITMAP
001C
FE38
FE70
FEE0
0E00
0E00
0E00
0E00
0E00
0E00
0E00
0E00
0E00
0E00
0E00
0E00
0FF8
07F8
03F8
ENDCHAR
STARTCHAR 013F
ENCODING 319
SWIDTH 600 0
DWIDTH 15 0
BBX 10 18 3 0
BITMAP
E000
E000
E000
E000
E000
E000
E000
E380
E7C0
E7C0
E7C0
E300
E000
E000
E000
FFC0
FFC0
FFC0
ENDCHAR
STARTCHAR 0140
ENCODING 320
SWIDTH 600 0
DWIDTH 15 0
BBX 14 18 0 0
BITMAP
FF00
FF00
FF00
0F00
0F00
0F00
0F00
0F38
0F3C
0F7C
0F3C
0F18
0F00
0F00
0700
07F8
07F8
01F8
ENDCHAR
STARTCHAR 0141
ENCODING 321
SWIDTH 600 0
DWIDTH 15 0
BBX 14 18 0 0
BITMAP
1C00
1C00
1C00
1C00
1C40
1DC0
1FC0
1F80
3E00
FC00
FC00
DC00
1C00
1C00
1C00
1FFC
1FFC
1FFC
ENDCHAR
STARTCHAR 0142
ENCODING 322
SWIDTH 600 0
DWIDTH 15 0
BBX 13 18 1 0
BITMAP
FE00
FE00
FE00
0E00
0E20
0EE0
0FE0
0FC0
1F00
7E00
7E00
6E00
0E00
0E00
0E00
0FF8
07F8
03F8
ENDCHAR
STARTCHAR 0143
ENCODING 323
SWIDTH 600 0
DWIDTH 15 0
BBX 11 24 2 0
BITMAP
03C0
0380
0700
0E00
0000
0000
F0E0
F0E0
F8E0
F8E0
D8E0
FCE0
FCE0
ECE0
EEE0
EEE0
E6E0
E7E0
E760
E360
E3E0
E3E0
E1E0
E1E0
ENDCHAR
STARTCHAR 0144
ENCODING 324
SWIDTH 600 0
DWIDTH 15 0
BBX 11 20 2 0
BITMAP
03C0
0380
0700
0E00
0000
0000
E780
EFC0
FFE0
F1E0
E0E0
E0E0
E0E0
E0E0
E0E0
E0E0
E0E0
E0E0
E0E0
E0E0
ENDCHAR
STARTCHAR 0145
ENCODING 325
SWIDTH 600 0
DWIDTH 15 0
BBX 11 24 2 -6
BITMAP
F0E0
F0E0
F8E0
F8E0
D8E0
FCE0
FCE0
ECE0
EEE0
EEE0
E6E0
E7E0
E760
E360
E3E0
E3E0
E1E0
E1E0
0000
0000
0700
0E00
0E00
1C00
ENDCHAR
STARTCHAR 0146
ENCODING 326
SWIDTH 600 0
DWIDTH 15 0
BBX 11 20 2 -6
BITMAP
E780
EFC0
FFE0
F1E0
E0E0
E0E0
E0E0
E0E0
E0E0
E0E0
E0E0
E0E0
E0E0
E0E0
0000
0000
0700
0E00
0E00
1C00
ENDCHAR
STARTCHAR 0147
ENCODING 327
SWIDTH 600 0
DWIDTH 15 0
BBX 11 24 2 0
BITMAP
71C0
3B80
1F00
0E00
0000
0000
F0E0
F0E0
F8E0
F8E0
D8E0
FCE0
FCE0
ECE0
EEE0
EEE0
E6E0
E7E0
E760
E360
E3E0
E3E0
E1E0
E1E0
ENDCHAR
STARTCHAR 0148
ENCODING 328
SWIDTH 600 0
DWIDTH 15 0
BBX 11 20 2 0
BITMAP
71C0
3B80
1F00
0E00
0000
0000
E780
EFC0
FFE0
F1E0
E0E0
E0E0
E0E0
E0E0
E0E0
E0E0
E0E0
E0E0
E0E0
E0E0
ENDCHAR
STARTCHAR 0149
ENCODING 329
SWIDTH 600 0
DWIDTH 15 0
BBX 13 20 0 0
BITMAP
3800
7000
7000
E000
0000
0000
39E0
3BF0
3FF8
3C78
3838
3838
3838
3838
3838
3838
3838
3838
3838
3838
ENDCHAR
STARTCHAR 014A
ENCODING 330
SWIDTH 600 0
DWIDTH 15 0
BBX 11 22 2 -4
BITMAP
F0E0
F0E0
F8E0
F8E0
DCE0
FCE0
ECE0
EEE0
EEE0
E7E0
E760
E360
E3E0
E3E0
E1E0
E1E0
E0E0
E0E0
00E0
03E0
0FC0
0F80
ENDCHAR
STARTCHAR 014B
ENCODING 331
SWIDTH 600 0
DWIDTH 15 0
BBX 11 18 2 -4
BITMAP
E780
EFC0
FFE0
F1E0
E0E0
E0E0
E0E0
E0E0
E0E0
E0E0
E0E0
E0E0
E0E0
E0E0
00E0
03E0
0FC0
0F80
ENDCHAR
STARTCHAR 014C
ENCODING 332
SWIDTH 600 0
DWIDTH 15 0
BBX 11 23 2 0
BITMAP
3F80
3F80
3F80
0000
0000
3F80
7FC0
F1E0
E0E0
E0E0
E0E0
E0E0
E0E0
E0E0
E0E0
E0E0
E0E0
E0E0
E0E0
E0E0
FBE0
7FC0
3F80
ENDCHAR
STARTCHAR 014D
ENCODING 333
SWIDTH 600 0
DWIDTH 15 0
BBX 11 19 2 0
BITMAP
3F80
3F80
3F80
0000
0000
1F00
7FC0
7FE0
F1E0
E0E0
E0E0
E0E0
E0E0
E0E0
E0E0
E0E0
FBE0
7FC0
3F80
ENDCHAR
STARTCHAR 014E
ENCODING 334
SWIDTH 600 0
DWIDTH 15 0
BBX 11 24 2 0
BITMAP
60C0
71C0
3F80
1F00
0000
0000
3F80
7FC0
F1E0
E0E0
E0E0
E0E0
E0E0
E0E0
E0E0
E0E0
E0E0
E0E0
E0E0
E0E0
E0E0
FBE0
7FC0
3F80
ENDCHAR
STARTCHAR 014F
ENCODING 335
SWIDTH 600 0
DWIDTH 15 0
BBX 11 20 2 0
BITMAP
71C0
71C0
3F80
1F00
0000
0000
1F00
7FC0
7FE0
F1E0
E0E0
E0E0
E0E0
E0E0
E0E0
E0E0
E0E0
FBE0
7FC0
3F80
ENDCHAR
STARTCHAR 0150
ENCODING 336
SWIDTH 600 0
DWIDTH 15 0
BBX 12 24 2 0
BITMAP
0E70
1CE0
19C0
3980
0000
0000
3F80
7FC0
F1E0
E0E0
E0E0
E0E0
E0E0
E0E0
E0E0
E0E0
E0E0
E0E0
E0E0
E0E0
E0E0
FBE0
7FC0
3F80
ENDCHAR
STARTCHAR 0151
ENCODING 337
SWIDTH 600 0
DWIDTH 15 0
BBX 12 20 2 0
BITMAP
0E70
1CE0
19C0
3980
0000
0000
1F00
7FC0
7FE0
F1E0
E0E0
E0E0
E0E0
E0E0
E0E0
E0E0
E0E0
FBE0
7FC0
3F80
ENDCHAR
STARTCHAR 0152
ENCODING 338
SWIDTH 600 0
DWIDTH 15 0
BBX 13 18 1 0
BITMAP
7FF8
FFF8
F380
E380
E380
E380
E380
E3F8
E3F8
E3F8
E380
E380
E380
E380
E380
FFF8
7FF8
7BF8
ENDCHAR
STARTCHAR 0153
ENCODING 339
SWIDTH 600 0
DWIDTH 15 0
BBX 13 14 1 0
BITMAP
38E0
7DF8
EFB8
C718
C718
C718
C7F8
C7F8
C700
C700
C700
E738
FDF8
7DF0
ENDCHAR
STARTCHAR 0154
ENCODING 340
SWIDTH 600 0
DWIDTH 15 0
BBX 12 24 2 0
BITMAP
03C0
0380
0700
0E00
0000
0000
FF80
FFC0
E3E0
E0E0
E0F0
E0F0
E0F0
E1E0
FFE0
FFC0
FF00
E380
E380
E3C0
E1C0
E1E0
E0E0
E0F0
ENDCHAR
STARTCHAR 0155
ENCODING 341
SWIDTH 600 0
DWIDTH 15 0
BBX 12 20 2 0
BITMAP
03C0
0380
0700
0E00
0000
0000
E780
EFE0
FFE0
F0F0
F070
E070
E000
E000
E000
E000
E000
E000
E000
E000
ENDCHAR
STARTCHAR 0156
ENCODING 342
SWIDTH 600 0
DWIDTH 15 0
BBX 12 24 2 -6
BITMAP
FF80
FFC0
E3E0
E0E0
E0F0
E0F0
E0F0
E1E0
FFE0
FFC0
FF00
E380
E380
E3C0
E1C0
E1E0
E0E0
E0F0
0000
0000
0700
0E00
0E00
1C00
ENDCHAR
STARTCHAR 0157
ENCODING 343
SWIDTH 600 0
DWIDTH 15 0
BBX 13 20 1 -6
BITMAP
73C0
77F0
7FF0
7878
7838
7038
7000
7000
7000
7000
7000
7000
7000
7000
0000
0000
3800
7800
7000
E000
ENDCHAR
STARTCHAR 0158
ENCODING 344
SWIDTH 600 0
DWIDTH 15 0
BBX 12 24 2 0
BITMAP
71C0
3B80
1F00
0E00
0000
0000
FF80
FFC0
E3E0
E0E0
E0F0
E0F0
E0F0
E1E0
FFE0
FFC0
FF00
E380
E380
E3C0
E1C0
E1E0
E0E0
E0F0
ENDCHAR
STARTCHAR 0159
ENCODING 345
SWIDTH 600 0
DWIDTH 15 0
BBX 12 20 2 0
BITMAP
71C0
3B80
1F00
0E00
0000
0000
E780
EFE0
FFE0
F0F0
F070
E070
E000
E000
E000
E000
E000
E000
E000
E000
ENDCHAR
STARTCHAR 015A
ENCODING 346
SWIDTH 600 0
DWIDTH 15 0
BBX 13 24 1 0
BITMAP
01E0
01C0
0380
0700
0000
0000
1FC0
3FE0
78F0
7070
7070
7000
7800
3F00
3FC0
0FE0
01F0
0070
0078
F078
7070
7DF0
3FE0
1FC0
ENDCHAR
STARTCHAR 015B
ENCODING 347
SWIDTH 600 0
DWIDTH 15 0
BBX 11 20 2 0
BITMAP
03C0
0380
0700
0E00
0000
0000
3F80
7FC0
FFE0
E0E0
E000
F800
7F80
3FE0
01E0
00E0
E0E0
F1E0
FFE0
3F80
ENDCHAR
STARTCHAR 015C
ENCODING 348
SWIDTH 600 0
DWIDTH 15 0
BBX 13 24 1 0
BITMAP
0700
0F80
1DC0
38E0
0000
0000
1FC0
3FE0
78F0
7070
7070
7000
7800
3F00
3FC0
0FE0
01F0
0070
0078
F078
7070
7DF0
3FE0
1FC0
ENDCHAR
STARTCHAR 015D
ENCODING 349
SWIDTH 600 0
DWIDTH 15 0
BBX 11 20 2 0
BITMAP
0E00
1F00
3B80
71C0
0000
0000
3F80
7FC0
FFE0
E0E0
E000
F800
7F80
3FE0
01E0
00E0
E0E0
F1E0
FFE0
3F80
ENDCHAR
STARTCHAR 015E
ENCODING 350
SWIDTH 600 0
DWIDTH 15 0
BBX 13 23 1 -5
BITMAP
1FC0
3FE0
78F0
7070
7070
7000
7800
3F00
3FC0
0FE0
01F0
0070
0078
F078
7070
7DF0
3FE0
1FC0
0600
0F00
01C0
01C0
0F80
ENDCHAR
STARTCHAR 015F
ENCODING 351
SWIDTH 600 0
DWIDTH 15 0
BBX 11 19 2 -5
BITMAP
3F80
7FC0
FFE0
E0E0
E000
F800
7F80
3FE0
01E0
00E0
E0E0
F1E0
FFE0
3F80
0C00
1E00
0380
0380
1F00
ENDCHAR
STARTCHAR 0160
ENCODING 352
SWIDTH 600 0
DWIDTH 15 0
BBX 13 24 1 0
BITMAP
38E0
1DC0
0F80
0700
0000
0000
1FC0
3FE0
78F0
7070
7070
7000
7800
3F00
3FC0
0FE0
01F0
0070
0078
F078
7070
7DF0
3FE0
1FC0
ENDCHAR
STARTCHAR 0161
ENCODING 353
SWIDTH 600 0
DWIDTH 15 0
BBX 11 20 2 0
BITMAP
71C0
3B80
1F00
0E00
0000
0000
3F80
7FC0
FFE0
E0E0
E000
F800
7F80
3FE0
01E0
00E0
E0E0
F1E0
FFE0
3F80
ENDCHAR
STARTCHAR 0162
ENCODING 354
SWIDTH 600 0
DWIDTH 15 0
BBX 13 23 1 -5
BITMAP
FFF8
FFF8
FFF8
0700
0700
0700
0700
0700
0700
0700
0700
0700
0700
0700
0700
0700
0700
0700
0600
0780
00C0
01C0
07C0
ENDCHAR
STARTCHAR 0163
ENCODING 355
SWIDTH 600 0
DWIDTH 15 0
BBX 12 22 1 -5
BITMAP
0E00
0E00
0E00
FFF0
FFF0
FFF0
0E00
0E00
0E00
0E00
0E00
0E00
0E00
0E00
0FF0
07F0
03F0
0300
03C0
00E0
00E0
07E0
ENDCHAR
STARTCHAR 0164
ENCODING 356
SWIDTH 600 0
DWIDTH 15 0
BBX 13 24 1 0
BITMAP
38E0
1DC0
0F80
0700
0000
0000
FFF8
FFF8
FFF8
0700
0700
0700
0700
0700
0700
0700
0700
0700
0700
0700
0700
0700
0700
0700
ENDCHAR
STARTCHAR 0165
ENCODING 357
SWIDTH 600 0
DWIDTH 15 0
BBX 13 19 1 0
BITMAP
0038
0030
0E60
0EE0
0E00
FFF0
FFF0
FFF0
0E00
0E00
0E00
0E00
0E00
0E00
0E00
0E00
0FF0
07F0
03F0
ENDCHAR
STARTCHAR 0166
ENCODING 358
SWIDTH 600 0
DWIDTH 15 0
BBX 13 18 1 0
BITMAP
FFF8
FFF8
FFF8
0700
0700
0700
0700
0700
3FE0
3FE0
3FE0
0700
0700
0700
0700
0700
0700
0700
ENDCHAR
STARTCHAR 0167
ENCODING 359
SWIDTH 600 0
DWIDTH 15 0
BBX 12 17 1 0
BITMAP
0E00
0E00
0E00
FFF0
FFF0
FFF0
0E00
0E00
0E00
7FE0
7FE0
0E00
0E00
0E00
0FF0
07F0
03F0
ENDCHAR
STARTCHAR 0168
ENCODING 360
SWIDTH 600 0
DWIDTH 15 0
BBX 11 24 2 0
BITMAP
1000
3CC0
6FC0
6380
0000
0000
E0E0
E0E0
E0E0
E0E0
E0E0
E0E0
E0E0
E0E0
E0E0
E0E0
E0E0
E0E0
E0E0
E0E0
E0E0
FBE0
7FC0
3F80
ENDCHAR
STARTCHAR 0169
ENCODING 361
SWIDTH 600 0
DWIDTH 15 0
BBX 11 20 2 0
BITMAP
10C0
3CC0
6FC0
6380
0000
0000
E0E0
E0E0
E0E0
E0E0
E0E0
E0E0
E0E0
E0E0
E0E0
E0E0
E0E0
FBE0
7FC0
3F80
ENDCHAR
STARTCHAR 016A
ENCODING 362
SWIDTH 600 0
DWIDTH 15 0
BBX 11 23 2 0
BITMAP
3F80
3F80
3F80
0000
0000
E0E0
E0E0
E0E0
E0E0
E0E0
E0E0
E0E0
E0E0
E0E0
E0E0
E0E0
E0E0
E0E0
E0E0
E0E0
FBE0
7FC0
3F80
ENDCHAR
STARTCHAR 016B
ENCODING 363
SWIDTH 600 0
DWIDTH 15 0
BBX 11 19 2 0
BITMAP
3F80
3F80
3F80
0000
0000
E0E0
E0E0
E0E0
E0E0
E0E0
E0E0
E0E0
E0E0
E0E0
E0E0
E0E0
FBE0
7FC0
3F80
ENDCHAR
STARTCHAR 016C
ENCODING 364
SWIDTH 600 0
DWIDTH 15 0
BBX 11 24 2 0
BITMAP
60C0
71C0
3F80
1F00
0000
0000
E0E0
E0E0
E0E0
E0E0
E0E0
E0E0
E0E0
E0E0
E0E0
E0E0
E0E0
E0E0
E0E0
E0E0
E0E0
FBE0
7FC0
3F80
ENDCHAR
STARTCHAR 016D
ENCODING 365
SWIDTH 600 0
DWIDTH 15 0
BBX 11 20 2 0
BITMAP
71C0
71C0
3F80
1F00
0000
0000
E0E0
E0E0
E0E0
E0E0
E0E0
E0E0
E0E0
E0E0
E0E0
E0E0
E0E0
FBE0
7FC0
3F80
ENDCHAR
STARTCHAR 016E
ENCODING 366
SWIDTH 600 0
DWIDTH 15 0
BBX 11 24 2 0
BITMAP
0E00
1F00
3180
3180
1F00
0000
E0E0
E0E0
E0E0
E0E0
E0E0
E0E0
E0E0
E0E0
E0E0
E0E0
E0E0
E0E0
E0E0
E0E0
E0E0
FBE0
7FC0
3F80
ENDCHAR
STARTCHAR 016F
ENCODING 367
SWIDTH 600 0
DWIDTH 15 0
BBX 11 20 2 0
BITMAP
1F00
1300
3180
1B00
1F00
0000
E0E0
E0E0
E0E0
E0E0
E0E0
E0E0
E0E0
E0E0
E0E0
E0E0
E0E0
FBE0
7FC0
3F80
ENDCHAR
STARTCHAR 0170
ENCODING 368
SWIDTH 600 0
DWIDTH 15 0
BBX 12 24 2 0
BITMAP
0E70
1CE0
19C0
3980
0000
0000
E0E0
E0E0
E0E0
E0E0
E0E0
E0E0
E0E0
E0E0
E0E0
E0E0
E0E0
E0E0
E0E0
E0E0
E0E0
FBE0
7FC0
3F80
ENDCHAR
STARTCHAR 0171
ENCODING 369
SWIDTH 600 0
DWIDTH 15 0
BBX 12 20 2 0
BITMAP
0E70
1CE0
19C0
3980
0000
0000
E0E0
E0E0
E0E0
E0E0
E0E0
E0E0
E0E0
E0E0
E0E0
E0E0
E0E0
FBE0
7FC0
3F80
ENDCHAR
STARTCHAR 0172
ENCODING 370
SWIDTH 600 0
DWIDTH 15 0
BBX 11 23 2 -5
BITMAP
E0E0
E0E0
E0E0
E0E0
E0E0
E0E0
E0E0
E0E0
E0E0
E0E0
E0E0
E0E0
E0E0
E0E0
E0E0
FBE0
7FC0
3F80
0600
0C00
0C00
0F80
0F80
ENDCHAR
STARTCHAR 0173
ENCODING 371
SWIDTH 600 0
DWIDTH 15 0
BBX 11 19 2 -5
BITMAP
E0E0
E0E0
E0E0
E0E0
E0E0
E0E0
E0E0
E0E0
E0E0
E0E0
E0E0
FBE0
7FC0
3F80
0600
0C00
1C00
1F80
0F80
ENDCHAR
STARTCHAR 0174
ENCODING 372
SWIDTH 600 0
DWIDTH 15 0
BBX 15 24 0 0
BITMAP
0380
07C0
0EE0
1C70
0000
0000
E38E
638C
638C
628C
728C
729C
76DC
76DC
76DC
76DC
76D8
34D8
3458
3458
3458
3C78
3C78
3C78
ENDCHAR
STARTCHAR 0175
ENCODING 373
SWIDTH 600 0
DWIDTH 15 0
BBX 13 20 1 0
BITMAP
0700
0F80
1DC0
38E0
0000
0000
C718
C718
C718
E518
E538
EDB8
EDB8
6DB0
6DB0
69B0
68B0
78F0
78F0
78E0
ENDCHAR
STARTCHAR 0176
ENCODING 374
SWIDTH 600 0
DWIDTH 15 0
BBX 13 24 1 0
BITMAP
0700
0F80
1DC0
38E0
0000
0000
E038
F078
7070
7870
38E0
38E0
1DC0
1DC0
0F80
0F80
0700
0700
0700
0700
0700
0700
0700
0700
ENDCHAR
STARTCHAR 0177
ENCODING 375
SWIDTH 600 0
DWIDTH 15 0
BBX 13 24 1 -4
BITMAP
0700
0F80
1DC0
38E0
0000
0000
E038
F078
7070
7870
38E0
38E0
3CE0
1DC0
1DC0
0FC0
0F80
0F80
0780
0700
0700
0F00
0E00
0E00
ENDCHAR
STARTCHAR 0178
ENCODING 376
SWIDTH 600 0
DWIDTH 15 0
BBX 13 24 1 0
BITMAP
1040
38E0
38E0
18C0
0000
0000
E038
F078
7070
7870
38E0
38E0
1DC0
1DC0
0F80
0F80
0700
0700
0700
0700
0700
0700
0700
0700
ENDCHAR
STARTCHAR 0179
ENCODING 377
SWIDTH 600 0
DWIDTH 15 0
BBX 11 24 2 0
BITMAP
03C0
0380
0700
0E00
0000
0000
FFE0
FFE0
FFE0
01C0
03C0
0380
0700
0F00
0E00
1E00
1C00
3C00
7800
7000
F000
FFE0
FFE0
FFE0
ENDCHAR
STARTCHAR 017A
ENCODING 378
SWIDTH 600 0
DWIDTH 15 0
BBX 11 20 2 0
BITMAP
03C0
0380
0700
0E00
0000
0000
FFE0
FFE0
FFE0
01C0
03C0
0780
0F00
1E00
3C00
7800
7000
FFE0
FFE0
FFE0
ENDCHAR
STARTCHAR 017B
ENCODING 379
SWIDTH 600 0
DWIDTH 15 0
BBX 11 23 2 0
BITMAP
0E00
1F00
0E00
0000
0000
FFE0
FFE0
FFE0
01C0
03C0
0380
0700
0F00
0E00
1E00
1C00
3C00
7800
7000
F000
FFE0
FFE0
FFE0
ENDCHAR
STARTCHAR 017C
ENCODING 380
SWIDTH 600 0
DWIDTH 15 0
BBX 11 19 2 0
BITMAP
0E00
1F00
0E00
0000
0000
FFE0
FFE0
FFE0
01C0
03C0
0780
0F00
1E00
3C00
7800
7000
FFE0
FFE0
FFE0
ENDCHAR
STARTCHAR 017D
ENCODING 381
SWIDTH 600 0
DWIDTH 15 0
BBX 11 24 2 0
BITMAP
71C0
3B80
1F00
0E00
0000
0000
FFE0
FFE0
FFE0
01C0
03C0
0380
0700
0F00
0E00
1E00
1C00
3C00
7800
7000
F000
FFE0
FFE0
FFE0
ENDCHAR
STARTCHAR 017E
ENCODING 382
SWIDTH 600 0
DWIDTH 15 0
BBX 11 20 2 0
BITMAP
71C0
3B80
1F00
0E00
0000
0000
FFE0
FFE0
FFE0
01C0
03C0
0780
0F00
1E00
3C00
7800
7000
FFE0
FFE0
FFE0
ENDCHAR
STARTCHAR 017F
ENCODING 383
SWIDTH 600 0
DWIDTH 15 0
BBX 9 18 4 0
BITMAP
3F80
7F80
F800
E000
E000
E000
E000
E000
E000
E000
E000
E000
E000
E000
E000
E000
E000
E000
ENDCHAR
STARTCHAR 018F
ENCODING 399
SWIDTH 600 0
DWIDTH 15 0
BBX 11 18 2 0
BITMAP
3F80
7FC0
F1E0
E0E0
E0E0
00E0
00E0
00E0
FFE0
FFE0
E0E0
E0E0
E0E0
E0E0
E0E0
F1E0
7FC0
3F80
ENDCHAR
STARTCHAR 0192
ENCODING 402
SWIDTH 600 0
DWIDTH 15 0
BBX 14 22 0 -4
BITMAP
01FC
03FC
07C0
0700
0700
0700
7FFC
7FFC
7FFC
0700
0700
0700
0700
0700
0700
0700
0700
0700
0700
1F00
FE00
FC00
ENDCHAR
STARTCHAR 01A0
ENCODING 416
SWIDTH 600 0
DWIDTH 15 0
BBX 13 21 2 0
BITMAP
0038
0038
0038
3FB0
7FF0
F1E0
E0E0
E0E0
E0E0
E0E0
E0E0
E0E0
E0E0
E0E0
E0E0
E0E0
E0E0
E0E0
FBE0
7FC0
3F80
ENDCHAR
STARTCHAR 01A1
ENCODING 417
SWIDTH 600 0
DWIDTH 15 0
BBX 12 16 2 0
BITMAP
0030
0030
1F30
7FF0
7FE0
F1E0
E0E0
E0E0
E0E0
E0E0
E0E0
E0E0
E0E0
FBE0
7FC0
3F80
ENDCHAR
STARTCHAR 01AF
ENCODING 431
SWIDTH 600 0
DWIDTH 15 0
BBX 14 21 2 0
BITMAP
001C
001C
001C
E0F8
E0F0
E0E0
E0E0
E0E0
E0E0
E0E0
E0E0
E0E0
E0E0
E0E0
E0E0
E0E0
E0E0
E0E0
FBE0
7FC0
3F80
ENDCHAR
STARTCHAR 01B0
ENCODING 432
SWIDTH 600 0
DWIDTH 15 0
BBX 13 16 2 0
BITMAP
0018
0018
E0F8
E0F0
E0E0
E0E0
E0E0
E0E0
E0E0
E0E0
E0E0
E0E0
E0E0
FBE0
7FC0
3F80
ENDCHAR
STARTCHAR 01E6
ENCODING 486
SWIDTH 600 0
DWIDTH 15 0
BBX 11 24 2 0
BITMAP
71C0
3B80
1F00
0E00
0000
0000
3F80
7FC0
F1E0
E0E0
E0E0
E000
E000
E000
E7E0
E7E0
E7E0
E0E0
E0E0
E0E0
E0E0
FBE0
7FC0
3F80
ENDCHAR
STARTCHAR 01E7
ENCODING 487
SWIDTH 600 0
DWIDTH 15 0
BBX 11 24 2 -4
BITMAP
71C0
3B80
1F00
0E00
0000
0000
3CE0
7EE0
FFE0
E1E0
E0E0
E0E0
E0E0
E0E0
E0E0
E0E0
FBE0
7FE0
3EE0
00E0
00E0
01E0
3FC0
3F80
ENDCHAR
STARTCHAR 01EA
ENCODING 490
SWIDTH 600 0
DWIDTH 15 0
BBX 11 23 2 -5
BITMAP
3F80
7FC0
F1E0
E0E0
E0E0
E0E0
E0E0
E0E0
E0E0
E0E0
E0E0
E0E0
E0E0
E0E0
E0E0
FBE0
7FC0
3F80
0600
0C00
0C00
0F80
0F80
ENDCHAR
STARTCHAR 01EB
ENCODING 491
SWIDTH 600 0
DWIDTH 15 0
BBX 11 19 2 -5
BITMAP
1F00
7FC0
7FE0
F1E0
E0E0
E0E0
E0E0
E0E0
E0E0
E0E0
E0E0
FBE0
7FC0
3F80
0600
0C00
0C00
0F80
0F80
ENDCHAR
STARTCHAR 01F4
ENCODING 500
SWIDTH 600 0
DWIDTH 15 0
BBX 11 24 2 0
BITMAP
03C0
0380
0700
0E00
0000
0000
3F80
7FC0
F1E0
E0E0
E0E0
E000
E000
E000
E7E0
E7E0
E7E0
E0E0
E0E0
E0E0
E0E0
FBE0
7FC0
3F80
ENDCHAR
STARTCHAR 01F5
ENCODING 501
SWIDTH 600 0
DWIDTH 15 0
BBX 11 24 2 -4
BITMAP
03C0
0380
0700
0E00
0000
0000
3CE0
7EE0
FFE0
E1E0
E0E0
E0E0
E0E0
E0E0
E0E0
E0E0
FBE0
7FE0
3EE0
00E0
00E0
01E0
3FC0
3F80
ENDCHAR
STARTCHAR 01FC
ENCODING 508
SWIDTH 600 0
DWIDTH 15 0
BBX 14 24 0 0
BITMAP
00F0
00E0
01C0
0380
0000
0000
0FFC
1FFC
1DC0
1DC0
1DC0
1DC0
19C0
39FC
39FC
39FC
39C0
3FC0
7FC0
71C0
71C0
71FC
71FC
E1FC
ENDCHAR
STARTCHAR 01FD
ENCODING 509
SWIDTH 600 0
DWIDTH 15 0
BBX 13 20 1 0
BITMAP
01E0
01C0
0380
0700
0000
0000
38E0
7DF8
E7B8
E718
0718
0718
7FF8
FFF8
E700
C700
C700
E738
FDF8
7DF0
ENDCHAR
STARTCHAR 01FE
ENCODING 510
SWIDTH 600 0
DWIDTH 15 0
BBX 13 25 1 -1
BITMAP
01E0
01C0
0380
0700
0000
0018
1FF8
3FF0
78F0
70F0
70F0
71F0
71F0
73F0
7370
7770
7E70
7C70
7C70
7870
7870
7DF0
7FE0
FFC0
C000
ENDCHAR
STARTCHAR 01FF
ENCODING 511
SWIDTH 600 0
DWIDTH 15 0
BBX 13 21 1 -1
BITMAP
01E0
01C0
0380
0700
0000
0038
0FB0
3FF0
3FF0
78F0
71F0
73F0
7370
7670
7E70
7C70
7870
7DF0
7FE0
7FC0
E000
ENDCHAR
STARTCHAR 0218
ENCODING 536
SWIDTH 600 0
DWIDTH 15 0
BBX 13 24 1 -6
BITMAP
1FC0
3FE0
78F0
7070
7070
7000
7800
3F00
3FC0
0FE0
01F0
0070
0078
F078
7070
7DF0
3FE0
1FC0
0000
0000
0380
0700
0700
0E00
ENDCHAR
STARTCHAR 0219
ENCODING 537
SWIDTH 600 0
DWIDTH 15 0
BBX 11 20 2 -6
BITMAP
3F80
7FC0
FFE0
E0E0
E000
F800
7F80
3FE0
01E0
00E0
E0E0
F1E0
FFE0
3F80
0000
0000
0700
0E00
1C00
1C00
ENDCHAR
STARTCHAR 021A
ENCODING 538
SWIDTH 600 0
DWIDTH 15 0
BBX 13 24 1 -6
BITMAP
FFF8
FFF8
FFF8
0700
0700
0700
0700
0700
0700
0700
0700
0700
0700
0700
0700
0700
0700
0700
0000
0000
0700
0E00
0E00
1C00
ENDCHAR
STARTCHAR 021B
ENCODING 539
SWIDTH 600 0
DWIDTH 15 0
BBX 12 23 1 -6
BITMAP
0E00
0E00
0E00
FFF0
FFF0
FFF0
0E00
0E00
0E00
0E00
0E00
0E00
0E00
0E00
0FF0
07F0
03F0
0000
0000
0380
0700
0700
0E00
ENDCHAR
STARTCHAR 0237
ENCODING 567
SWIDTH 600 0
DWIDTH 15 0
BBX 9 18 2 -4
BITMAP
7F80
7F80
7F80
0380
0380
0380
0380
0380
0380
0380
0380
0380
0380
0380
0380
0F80
FF00
FE00
ENDCHAR
STARTCHAR 0259
ENCODING 601
SWIDTH 600 0
DWIDTH 15 0
BBX 11 14 2 0
BITMAP
1F00
7FC0
FBC0
E0E0
00E0
00E0
FFE0
FFE0
E0E0
E0E0
E0E0
F1E0
7FC0
3F80
ENDCHAR
STARTCHAR 02B9
ENCODING 697
SWIDTH 600 0
DWIDTH 15 0
BBX 6 8 4 10
BITMAP
3C
78
78
70
70
E0
E0
E0
ENDCHAR
STARTCHAR 02BA
ENCODING 698
SWIDTH 600 0
DWIDTH 15 0
BBX 13 8 1 10
BITMAP
3C78
3870
38F0
78F0
70E0
70E0
E1C0
E1C0
ENDCHAR
STARTCHAR 02BC
ENCODING 700
SWIDTH 600 0
DWIDTH 15 0
BBX 5 7 4 12
BITMAP
78
78
78
70
F0
E0
E0
ENDCHAR
STARTCHAR 02C6
ENCODING 710
SWIDTH 600 0
DWIDTH 15 0
BBX 9 4 3 16
BITMAP
1C00
3E00
7700
E380
ENDCHAR
STARTCHAR 02C7
ENCODING 711
SWIDTH 600 0
DWIDTH 15 0
BBX 9 4 3 16
BITMAP
E380
7700
3E00
1C00
ENDCHAR
STARTCHAR 02C9
ENCODING 713
SWIDTH 600 0
DWIDTH 15 0
BBX 7 3 4 16
BITMAP
FE
FE
FE
ENDCHAR
STARTCHAR 02D8
ENCODING 728
SWIDTH 600 0
DWIDTH 15 0
BBX 9 4 3 16
BITMAP
E380
E380
7F00
3E00
ENDCHAR
STARTCHAR 02D9
ENCODING 729
SWIDTH 600 0
DWIDTH 15 0
BBX 4 3 5 16
BITMAP
F0
F0
70
ENDCHAR
STARTCHAR 02DA
ENCODING 730
SWIDTH 600 0
DWIDTH 15 0
BBX 7 5 4 15
BITMAP
7C
4C
C6
6C
7C
ENDCHAR
STARTCHAR 02DB
ENCODING 731
SWIDTH 600 0
DWIDTH 15 0
BBX 6 5 4 -5
BITMAP
30
60
E0
FC
7C
ENDCHAR
STARTCHAR 02DC
ENCODING 732
SWIDTH 600 0
DWIDTH 15 0
BBX 9 4 3 16
BITMAP
2180
7980
DF80
C700
ENDCHAR
STARTCHAR 02DD
ENCODING 733
SWIDTH 600 0
DWIDTH 15 0
BBX 10 4 4 16
BITMAP
39C0
7380
6700
E600
ENDCHAR
STARTCHAR 02F3
ENCODING 755
SWIDTH 600 0
DWIDTH 15 0
BBX 7 5 4 -6
BITMAP
38
6C
C6
C6
7C
ENDCHAR
STARTCHAR 02F7
ENCODING 759
SWIDTH 600 0
DWIDTH 15 0
BBX 9 3 3 -5
BITMAP
7980
FF80
CF00
ENDCHAR
STARTCHAR 0309
ENCODING 777
SWIDTH 0 0
DWIDTH 0 0
BBX 5 5 -10 16
BITMAP
F0
F8
18
38
30
ENDCHAR
STARTCHAR 031B
ENCODING 795
SWIDTH 0 0
DWIDTH 0 0
BBX 4 4 -4 12
BITMAP
70
70
F0
E0
ENDCHAR
STARTCHAR 0323
ENCODING 803
SWIDTH 0 0
DWIDTH 0 0
BBX 4 3 -10 -5
BITMAP
70
F0
F0
ENDCHAR
STARTCHAR 0325
ENCODING 805
SWIDTH 0 0
DWIDTH 0 0
BBX 7 5 -11 -6
BITMAP
38
6C
C6
C6
7C
ENDCHAR
STARTCHAR 0326
ENCODING 806
SWIDTH 0 0
DWIDTH 0 0
BBX 5 4 -10 -6
BITMAP
38
70
70
E0
ENDCHAR
STARTCHAR 0336
ENCODING 822
SWIDTH 0 0
DWIDTH 0 0
BBX 17 2 -16 7
BITMAP
FFFF80
FFFF80
ENDCHAR
STARTCHAR 0338
ENCODING 824
SWIDTH 0 0
DWIDTH 0 0
BBX 9 20 -12 -1
BITMAP
0180
0300
0300
0300
0600
0600
0600
0C00
0C00
0C00
1800
1800
1800
3000
3000
3000
6000
6000
6000
C000
ENDCHAR
STARTCHAR 0374
ENCODING 884
SWIDTH 600 0
DWIDTH 15 0
BBX 6 8 4 10
BITMAP
3C
78
78
70
70
E0
E0
E0
ENDCHAR
STARTCHAR 0394
ENCODING 916
SWIDTH 600 0
DWIDTH 15 0
BBX 13 18 1 0
BITMAP
0F80
0F80
0F80
0D80
1DC0
1DC0
1DC0
19C0
38E0
38E0
38E0
38E0
7070
7070
7070
FFF0
FFF8
FFF8
ENDCHAR
STARTCHAR 03A9
ENCODING 937
SWIDTH 600 0
DWIDTH 15 0
BBX 13 18 1 0
BITMAP
1FC0
3FE0
78F0
7070
7070
7070
7070
7070
7070
7070
7070
7070
7070
78F0
39E0
F9F8
F9F8
F9F8
ENDCHAR
STARTCHAR 03BB
ENCODING 955
SWIDTH 600 0
DWIDTH 15 0
BBX 13 18 1 0
BITMAP
0E00
0E00
0F00
0700
0700
0780
0F80
0F80
0DC0
1DC0
1DC0
38E0
38E0
38F0
7070
7070
F078
E038
ENDCHAR
STARTCHAR 03BC
ENCODING 956
SWIDTH 600 0
DWIDTH 15 0
BBX 11 18 2 -4
BITMAP
E0E0
E0E0
E0E0
E0E0
E0E0
E0E0
E0E0
E0E0
E0E0
E0E0
E0E0
FBE0
FFC0
DF80
C000
E000
E000
E000
ENDCHAR
STARTCHAR 03C0
ENCODING 960
SWIDTH 600 0
DWIDTH 15 0
BBX 15 14 0 0
BITMAP
FFFC
FFFC
FFFC
3870
3870
3870
3870
3870
3870
3870
3878
383E
383E
381E
ENDCHAR
STARTCHAR 0401
ENCODING 1025
SWIDTH 600 0
DWIDTH 15 0
BBX 11 24 2 0
BITMAP
2080
71C0
71C0
3180
0000
0000
FFE0
FFE0
E000
E000
E000
E000
E000
FFC0
FFC0
FFC0
E000
E000
E000
E000
E000
FFE0
FFE0
FFE0
ENDCHAR
STARTCHAR 0402
ENCODING 1026
SWIDTH 600 0
DWIDTH 15 0
BBX 14 22 0 -4
BITMAP
FF80
FF80
FF80
1C00
1C00
1C00
1DF0
1FF8
1F3C
1E1C
1C1C
1C1C
1C1C
1C1C
1C1C
1C1C
1C1C
1C1C
001C
007C
01F8
01F0
ENDCHAR
STARTCHAR 0403
ENCODING 1027
SWIDTH 600 0
DWIDTH 15 0
BBX 10 24 3 0
BITMAP
0780
0700
0E00
1C00
0000
0000
FFC0
FFC0
FFC0
E000
E000
E000
E000
E000
E000
E000
E000
E000
E000
E000
E000
E000
E000
E000
ENDCHAR
STARTCHAR 0404
ENCODING 1028
SWIDTH 600 0
DWIDTH 15 0
BBX 11 18 2 0
BITMAP
3F80
7FC0
F1E0
E0E0
E0E0
E000
E000
FF00
FF00
FF00
E000
E000
E000
E0E0
E0E0
FBE0
7FC0
3F80
ENDCHAR
STARTCHAR 0405
ENCODING 1029
SWIDTH 600 0
DWIDTH 15 0
BBX 13 18 1 0
BITMAP
1FC0
3FE0
78F0
7070
7070
7000
7800
3F00
3FC0
0FE0
01F0
0070
0078
F078
7070
7DF0
3FE0
1FC0
ENDCHAR
STARTCHAR 0406
ENCODING 1030
SWIDTH 600 0
DWIDTH 15 0
BBX 11 18 2 0
BITMAP
FFE0
FFE0
FFE0
0E00
0E00
0E00
0E00
0E00
0E00
0E00
0E00
0E00
0E00
0E00
0E00
FFE0
FFE0
FFE0
ENDCHAR
STARTCHAR 0407
ENCODING 1031
SWIDTH 600 0
DWIDTH 15 0
BBX 11 24 2 0
BITMAP
2080
71C0
71C0
3180
0000
0000
FFE0
FFE0
FFE0
0E00
0E00
0E00
0E00
0E00
0E00
0E00
0E00
0E00
0E00
0E00
0E00
FFE0
FFE0
FFE0
ENDCHAR
STARTCHAR 0408
ENCODING 1032
SWIDTH 600 0
DWIDTH 15 0
BBX 12 18 1 0
BITMAP
0FF0
0FF0
0FF0
0070
0070
0070
0070
0070
0070
0070
0070
0070
0070
E070
E0F0
FFE0
7FC0
3F80
ENDCHAR
STARTCHAR 0409
ENCODING 1033
SWIDTH 600 0
DWIDTH 15 0
BBX 15 18 0 0
BITMAP
3F80
3F80
3180
3180
3180
3180
3180
31F0
31FC
319C
318E
318E
318E
318E
318E
719C
E1FC
C1F0
ENDCHAR
STARTCHAR 040A
ENCODING 1034
SWIDTH 600 0
DWIDTH 15 0
BBX 14 18 1 0
BITMAP
E300
E300
E300
E300
E300
E300
E300
FFF0
FFF8
E338
E31C
E31C
E31C
E31C
E31C
E338
E3F8
E3E0
ENDCHAR
STARTCHAR 040B
ENCODING 1035
SWIDTH 600 0
DWIDTH 15 0
BBX 14 18 0 0
BITMAP
FF80
FF80
FF80
1C00
1C00
1C00
1DF0
1FF8
1F3C
1E1C
1C1C
1C1C
1C1C
1C1C
1C1C
1C1C
1C1C
1C1C
ENDCHAR
STARTCHAR 040C
ENCODING 1036
SWIDTH 600 0
DWIDTH 15 0
BBX 12 24 2 0
BITMAP
03C0
0380
0700
0E00
0000
0000
E0F0
E0E0
E1E0
E1C0
E3C0
E380
E780
FF00
FF00
FF00
E780
E380
E3C0
E1C0
E1E0
E0E0
E0F0
E0F0
ENDCHAR
STARTCHAR 040E
ENCODING 1038
SWIDTH 600 0
DWIDTH 15 0
BBX 13 24 1 0
BITMAP
3060
38E0
1FC0
0F80
0000
0000
F038
7070
7070
7870
38E0
38E0
3CE0
1DC0
1DC0
0FC0
0F80
0F80
0780
0700
0700
0E00
0E00
0E00
ENDCHAR
STARTCHAR 040F
ENCODING 1039
SWIDTH 600 0
DWIDTH 15 0
BBX 11 21 2 -3
BITMAP
E0E0
E0E0
E0E0
E0E0
E0E0
E0E0
E0E0
E0E0
E0E0
E0E0
E0E0
E0E0
E0E0
E0E0
E0E0
FFE0
FFE0
FFE0
0E00
0E00
0E00
ENDCHAR
STARTCHAR 0410
ENCODING 1040
SWIDTH 600 0
DWIDTH 15 0
BBX 13 18 1 0
BITMAP
0F80
0F80
0F80
0D80
1DC0
1DC0
1DC0
18C0
38E0
38E0
38E0
3FE0
7FF0
7FF0
7070
F070
E038
E038
ENDCHAR
STARTCHAR 0411
ENCODING 1041
SWIDTH 600 0
DWIDTH 15 0
BBX 12 18 2 0
BITMAP
FFE0
FFE0
FFE0
E000
E000
E000
E000
FF00
FFC0
FFE0
E0E0
E0F0
E070
E0F0
E0E0
FFE0
FFC0
FF00
ENDCHAR
STARTCHAR 0412
ENCODING 1042
SWIDTH 600 0
DWIDTH 15 0
BBX 12 18 2 0
BITMAP
FF80
FFC0
E3E0
E0E0
E0E0
E0E0
E0E0
FFC0
FF00
FFC0
E0E0
E0F0
E070
E0F0
E0E0
FFE0
FFC0
FF80
ENDCHAR
STARTCHAR 0413
ENCODING 1043
SWIDTH 600 0
DWIDTH 15 0
BBX 10 18 3 0
BITMAP
FFC0
FFC0
FFC0
E000
E000
E000
E000
E000
E000
E000
E000
E000
E000
E000
E000
E000
E000
E000
ENDCHAR
STARTCHAR 0414
ENCODING 1044
SWIDTH 600 0
DWIDTH 15 0
BBX 13 21 1 -3
BITMAP
3FF0
3FF0
3870
3870
3870
3870
3870
3870
3870
3870
3870
3870
3870
7070
7070
FFF8
FFF8
FFF8
C018
C018
C018
ENDCHAR
STARTCHAR 0415
ENCODING 1045
SWIDTH 600 0
DWIDTH 15 0
BBX 11 18 2 0
BITMAP
FFE0
FFE0
E000
E000
E000
E000
E000
FFC0
FFC0
FFC0
E000
E000
E000
E000
E000
FFE0
FFE0
FFE0
ENDCHAR
STARTCHAR 0416
ENCODING 1046
SWIDTH 600 0
DWIDTH 15 0
BBX 15 18 0 0
BITMAP
638C
739C
739C
3398
33B8
3BB8
3BB8
1BB0
1FF0
1BB0
3BB0
3BB8
3BB8
3398
739C
739C
638C
E38E
ENDCHAR
STARTCHAR 0417
ENCODING 1047
SWIDTH 600 0
DWIDTH 15 0
BBX 13 18 1 0
BITMAP
1FE0
3FF0
78F0
7070
E070
0070
0070
0FE0
0FC0
0FF0
00F0
0078
0078
E078
F070
7DF0
3FE0
1FC0
ENDCHAR
STARTCHAR 0418
ENCODING 1048
SWIDTH 600 0
DWIDTH 15 0
BBX 11 18 2 0
BITMAP
E1E0
E1E0
E3E0
E3E0
E360
E760
E7E0
E6E0
EEE0
EEE0
ECE0
FCE0
FCE0
D8E0
F8E0
F0E0
F0E0
F0E0
ENDCHAR
STARTCHAR 0419
ENCODING 1049
SWIDTH 600 0
DWIDTH 15 0
BBX 11 24 2 0
BITMAP
60C0
71C0
3F80
1F00
0000
0000
E1E0
E1E0
E3E0
E3E0
E360
E760
E7E0
E6E0
EEE0
EEE0
ECE0
FCE0
FCE0
D8E0
F8E0
F0E0
F0E0
F0E0
ENDCHAR
STARTCHAR 041A
ENCODING 1050
SWIDTH 600 0
DWIDTH 15 0
BBX 12 18 2 0
BITMAP
E0F0
E0E0
E1E0
E1C0
E3C0
E380
E780
FF00
FF00
FF00
E780
E380
E3C0
E1C0
E1E0
E0E0
E0F0
E0F0
ENDCHAR
STARTCHAR 041B
ENCODING 1051
SWIDTH 600 0
DWIDTH 15 0
BBX 13 18 0 0
BITMAP
1FF8
1FF8
1FF8
1C38
1C38
1C38
1C38
1C38
1C38
1C38
1C38
1C38
1C38
1C38
3C38
F838
F838
F038
ENDCHAR
STARTCHAR 041C
ENCODING 1052
SWIDTH 600 0
DWIDTH 15 0
BBX 13 18 1 0
BITMAP
F078
F8F8
F8F8
F8F8
FDF8
EDB8
EDB8
EDB8
E738
E738
E038
E038
E038
E038
E038
E038
E038
E038
ENDCHAR
STARTCHAR 041D
ENCODING 1053
SWIDTH 600 0
DWIDTH 15 0
BBX 11 18 2 0
BITMAP
E0E0
E0E0
E0E0
E0E0
E0E0
E0E0
E0E0
FFE0
FFE0
FFE0
E0E0
E0E0
E0E0
E0E0
E0E0
E0E0
E0E0
E0E0
ENDCHAR
STARTCHAR 041E
ENCODING 1054
SWIDTH 600 0
DWIDTH 15 0
BBX 11 18 2 0
BITMAP
3F80
7FC0
F1E0
E0E0
E0E0
E0E0
E0E0
E0E0
E0E0
E0E0
E0E0
E0E0
E0E0
E0E0
E0E0
FBE0
7FC0
3F80
ENDCHAR
STARTCHAR 041F
ENCODING 1055
SWIDTH 600 0
DWIDTH 15 0
BBX 11 18 2 0
BITMAP
FFE0
FFE0
FFE0
E0E0
E0E0
E0E0
E0E0
E0E0
E0E0
E0E0
E0E0
E0E0
E0E0
E0E0
E0E0
E0E0
E0E0
E0E0
ENDCHAR
STARTCHAR 0420
ENCODING 1056
SWIDTH 600 0
DWIDTH 15 0
BBX 12 18 2 0
BITMAP
FF80
FFE0
FFE0
E0F0
E070
E070
E070
E0F0
FFE0
FFC0
FF80
E000
E000
E000
E000
E000
E000
E000
ENDCHAR
STARTCHAR 0421
ENCODING 1057
SWIDTH 600 0
DWIDTH 15 0
BBX 11 18 2 0
BITMAP
3F80
7FC0
F1E0
E0E0
E0E0
E000
E000
E000
E000
E000
E000
E000
E000
E0E0
E0E0
FBE0
7FC0
3F80
ENDCHAR
STARTCHAR 0422
ENCODING 1058
SWIDTH 600 0
DWIDTH 15 0
BBX 13 18 1 0
BITMAP
FFF8
FFF8
FFF8
0700
0700
0700
0700
0700
0700
0700
0700
0700
0700
0700
0700
0700
0700
0700
ENDCHAR
STARTCHAR 0423
ENCODING 1059
SWIDTH 600 0
DWIDTH 15 0
BBX 13 18 1 0
BITMAP
F038
7070
7070
7870
38E0
38E0
3CE0
1DC0
1DC0
0FC0
0F80
0F80
0780
0700
0700
0E00
0E00
0E00
ENDCHAR
STARTCHAR 0424
ENCODING 1060
SWIDTH 600 0
DWIDTH 15 0
BBX 13 20 1 -1
BITMAP
0700
0700
3FE0
7FF0
F778
E738
E738
E738
E738
E738
E738
E738
E738
E738
E738
7FF0
3FE0
1FC0
0700
0700
ENDCHAR
STARTCHAR 0425
ENCODING 1061
SWIDTH 600 0
DWIDTH 15 0
BBX 13 18 1 0
BITMAP
F078
7070
78F0
38E0
3DC0
1DC0
0F80
0F80
0700
0F80
0F80
1DC0
1DC0
39E0
38E0
7070
7070
E038
ENDCHAR
STARTCHAR 0426
ENCODING 1062
SWIDTH 600 0
DWIDTH 15 0
BBX 12 21 2 -3
BITMAP
E1C0
E1C0
E1C0
E1C0
E1C0
E1C0
E1C0
E1C0
E1C0
E1C0
E1C0
E1C0
E1C0
E1C0
E1C0
FFF0
FFF0
FFF0
0070
0070
0070
ENDCHAR
STARTCHAR 0427
ENCODING 1063
SWIDTH 600 0
DWIDTH 15 0
BBX 12 18 1 0
BITMAP
F070
F070
F070
F070
F070
F070
7070
7070
7DF0
3FF0
1FF0
0070
0070
0070
0070
0070
0070
0070
ENDCHAR
STARTCHAR 0428
ENCODING 1064
SWIDTH 600 0
DWIDTH 15 0
BBX 13 18 1 0
BITMAP
E738
E738
E738
E738
E738
E738
E738
E738
E738
E738
E738
E738
E738
E738
E738
E738
FFF8
FFF8
ENDCHAR
STARTCHAR 0429
ENCODING 1065
SWIDTH 600 0
DWIDTH 15 0
BBX 14 21 1 -3
BITMAP
E630
E630
E630
E630
E630
E630
E630
E630
E630
E630
E630
E630
E630
E630
E630
E630
FFFC
FFFC
001C
001C
001C
ENDCHAR
STARTCHAR 042A
ENCODING 1066
SWIDTH 600 0
DWIDTH 15 0
BBX 14 18 0 0
BITMAP
FC00
FC00
1C00
1C00
1C00
1C00
1C00
1FE0
1FF0
1FF8
1C3C
1C1C
1C1C
1C1C
1C3C
1FF8
1FF0
1FE0
ENDCHAR
STARTCHAR 042B
ENCODING 1067
SWIDTH 600 0
DWIDTH 15 0
BBX 13 18 1 0
BITMAP
E038
E038
E038
E038
E038
E038
E038
FC38
FE38
FF38
E338
E3B8
E3B8
E3B8
E338
EF38
FE38
FC38
ENDCHAR
STARTCHAR 042C
ENCODING 1068
SWIDTH 600 0
DWIDTH 15 0
BBX 12 18 2 0
BITMAP
E000
E000
E000
E000
E000
E000
E000
FF80
FFC0
FFE0
E0F0
E070
E070
E070
E0F0
FFE0
FFC0
FF80
ENDCHAR
STARTCHAR 042D
ENCODING 1069
SWIDTH 600 0
DWIDTH 15 0
BBX 11 18 2 0
BITMAP
3F80
7FC0
F1E0
E0E0
E0E0
00E0
00E0
1FE0
1FE0
1FE0
00E0
00E0
00E0
E0E0
E0E0
FBE0
7FC0
3F80
ENDCHAR
STARTCHAR 042E
ENCODING 1070
SWIDTH 600 0
DWIDTH 15 0
BBX 13 18 1 0
BITMAP
E3F0
E7F8
E638
E638
E638
E638
E638
FE38
FE38
FE38
E638
E638
E638
E638
E638
E738
E7F0
E3E0
ENDCHAR
STARTCHAR 042F
ENCODING 1071
SWIDTH 600 0
DWIDTH 15 0
BBX 12 18 1 0
BITMAP
1FF0
3FF0
7C70
7070
F070
F070
F070
7870
7FF0
3FF0
0FF0
1C70
1C70
3C70
3870
7870
7070
F070
ENDCHAR
STARTCHAR 0430
ENCODING 1072
SWIDTH 600 0
DWIDTH 15 0
BBX 12 14 1 0
BITMAP
0F80
3FE0
3FF0
7070
0070
0070
3FF0
7FF0
7070
F070
F070
70F0
7FF0
3F70
ENDCHAR
STARTCHAR 0431
ENCODING 1073
SWIDTH 600 0
DWIDTH 15 0
BBX 11 18 2 0
BITMAP
1FC0
3FC0
7FC0
F000
E000
E000
EF80
FFC0
F1E0
E0E0
E0E0
E0E0
E0E0
E0E0
E0E0
FBE0
7FC0
3F80
ENDCHAR
STARTCHAR 0432
ENCODING 1074
SWIDTH 600 0
DWIDTH 15 0
BBX 11 14 2 0
BITMAP
FF00
FFC0
FFE0
E0E0
E0E0
E0E0
FFC0
FFC0
E0E0
E0E0
E0E0
E1E0
FFE0
FF80
ENDCHAR
STARTCHAR 0433
ENCODING 1075
SWIDTH 600 0
DWIDTH 15 0
BBX 10 14 3 0
BITMAP
FFC0
FFC0
FFC0
E000
E000
E000
E000
E000
E000
E000
E000
E000
E000
E000
ENDCHAR
STARTCHAR 0434
ENCODING 1076
SWIDTH 600 0
DWIDTH 15 0
BBX 13 17 1 -3
BITMAP
3FF0
3FF0
3FF0
3870
3870
3870
3870
3870
3870
3870
7070
FFF8
FFF8
FFF8
C038
C038
C038
ENDCHAR
STARTCHAR 0435
ENCODING 1077
SWIDTH 600 0
DWIDTH 15 0
BBX 11 14 2 0
BITMAP
1F00
7FC0
7BC0
E0E0
E0E0
E0E0
FFE0
FFE0
E000
E000
E0E0
F1E0
7FC0
3F80
ENDCHAR
STARTCHAR 0436
ENCODING 1078
SWIDTH 600 0
DWIDTH 15 0
BBX 15 14 0 0
BITMAP
638C
739C
739C
3398
3BB8
3BB8
1FF0
1FF0
3BB8
3BB8
3398
739C
739C
E38E
ENDCHAR
STARTCHAR 0437
ENCODING 1079
SWIDTH 600 0
DWIDTH 15 0
BBX 12 14 1 0
BITMAP
0FC0
3FE0
7FF0
7070
0070
00F0
0FC0
0FE0
00F0
0070
F070
78F0
7FF0
1FC0
ENDCHAR
STARTCHAR 0438
ENCODING 1080
SWIDTH 600 0
DWIDTH 15 0
BBX 11 14 2 0
BITMAP
E1E0
E1E0
E3E0
E360
E7E0
E6E0
E6E0
EEE0
ECE0
FCE0
F8E0
F8E0
F0E0
F0E0
ENDCHAR
STARTCHAR 0439
ENCODING 1081
SWIDTH 600 0
DWIDTH 15 0
BBX 11 20 2 0
BITMAP
71C0
71C0
3F80
1F00
0000
0000
E1E0
E1E0
E3E0
E360
E7E0
E6E0
E6E0
EEE0
ECE0
FCE0
F8E0
F8E0
F0E0
F0E0
ENDCHAR
STARTCHAR 043A
ENCODING 1082
SWIDTH 600 0
DWIDTH 15 0
BBX 12 14 2 0
BITMAP
E0F0
E0E0
E1E0
E1C0
E380
E780
FF00
FF00
E780
E380
E3C0
E1E0
E0E0
E0F0
ENDCHAR
STARTCHAR 043B
ENCODING 1083
SWIDTH 600 0
DWIDTH 15 0
BBX 12 14 1 0
BITMAP
3FF0
3FF0
3FF0
3870
3870
3870
3870
3870
3870
3870
3870
F870
F070
E070
ENDCHAR
STARTCHAR 043C
ENCODING 1084
SWIDTH 600 0
DWIDTH 15 0
BBX 13 14 1 0
BITMAP
F078
F8F8
F8F8
F8F8
FCF8
EDB8
EDB8
EDB8
E738
E738
E038
E038
E038
E038
ENDCHAR
STARTCHAR 043D
ENCODING 1085
SWIDTH 600 0
DWIDTH 15 0
BBX 11 14 2 0
BITMAP
E0E0
E0E0
E0E0
E0E0
E0E0
E0E0
FFE0
FFE0
E0E0
E0E0
E0E0
E0E0
E0E0
E0E0
ENDCHAR
STARTCHAR 043E
ENCODING 1086
SWIDTH 600 0
DWIDTH 15 0
BBX 11 14 2 0
BITMAP
1F00
7FC0
7FE0
F1E0
E0E0
E0E0
E0E0
E0E0
E0E0
E0E0
E0E0
FBE0
7FC0
3F80
ENDCHAR
STARTCHAR 043F
ENCODING 1087
SWIDTH 600 0
DWIDTH 15 0
BBX 11 14 2 0
BITMAP
FFE0
FFE0
FFE0
E0E0
E0E0
E0E0
E0E0
E0E0
E0E0
E0E0
E0E0
E0E0
E0E0
E0E0
ENDCHAR
STARTCHAR 0440
ENCODING 1088
SWIDTH 600 0
DWIDTH 15 0
BBX 11 18 2 -4
BITMAP
E780
EFC0
FFE0
F1E0
E0E0
E0E0
E0E0
E0E0
E0E0
E0E0
E0E0
FBE0
FFC0
EF80
E000
E000
E000
E000
ENDCHAR
STARTCHAR 0441
ENCODING 1089
SWIDTH 600 0
DWIDTH 15 0
BBX 11 14 2 0
BITMAP
1F00
7FC0
7FE0
F0E0
E0E0
E000
E000
E000
E000
E0E0
E0E0
FBE0
7FC0
3F80
ENDCHAR
STARTCHAR 0442
ENCODING 1090
SWIDTH 600 0
DWIDTH 15 0
BBX 13 14 1 0
BITMAP
FFF8
FFF8
FFF8
0700
0700
0700
0700
0700
0700
0700
0700
0700
0700
0700
ENDCHAR
STARTCHAR 0443
ENCODING 1091
SWIDTH 600 0
DWIDTH 15 0
BBX 13 18 1 -4
BITMAP
E038
F078
7070
7870
38E0
38E0
3CE0
1DC0
1DC0
0FC0
0F80
0F80
0780
0700
0700
0F00
0E00
0E00
ENDCHAR
STARTCHAR 0444
ENCODING 1092
SWIDTH 600 0
DWIDTH 15 0
BBX 13 22 1 -4
BITMAP
0700
0700
0700
0700
0F80
3FE0
7FF0
E738
E738
E738
E738
E738
E738
E738
E738
7FF0
7FF0
1FC0
0700
0700
0700
0700
ENDCHAR
STARTCHAR 0445
ENCODING 1093
SWIDTH 600 0
DWIDTH 15 0
BBX 13 14 1 0
BITMAP
F078
78F0
38E0
3DE0
1DC0
0F80
0F80
0F80
0F80
1DC0
3DE0
38E0
7070
F078
ENDCHAR
STARTCHAR 0446
ENCODING 1094
SWIDTH 600 0
DWIDTH 15 0
BBX 12 17 2 -3
BITMAP
E1C0
E1C0
E1C0
E1C0
E1C0
E1C0
E1C0
E1C0
E1C0
E1C0
E1C0
FFF0
FFF0
FFF0
0070
0070
0070
ENDCHAR
STARTCHAR 0447
ENCODING 1095
SWIDTH 600 0
DWIDTH 15 0
BBX 11 14 2 0
BITMAP
E0E0
E0E0
E0E0
E0E0
E0E0
E0E0
F0E0
FFE0
7FE0
0EE0
00E0
00E0
00E0
00E0
ENDCHAR
STARTCHAR 0448
ENCODING 1096
SWIDTH 600 0
DWIDTH 15 0
BBX 13 14 1 0
BITMAP
E738
E738
E738
E738
E738
E738
E738
E738
E738
E738
E738
E738
FFF8
FFF8
ENDCHAR
STARTCHAR 0449
ENCODING 1097
SWIDTH 600 0
DWIDTH 15 0
BBX 14 17 1 -3
BITMAP
E630
E630
E630
E630
E630
E630
E630
E630
E630
E630
E630
E630
FFFC
FFFC
001C
001C
001C
ENDCHAR
STARTCHAR 044A
ENCODING 1098
SWIDTH 600 0
DWIDTH 15 0
BBX 14 14 0 0
BITMAP
FC00
FC00
FC00
1C00
1C00
1FF0
1FF8
1FFC
1C1C
1C1C
1C1C
1FFC
1FF8
1FE0
ENDCHAR
STARTCHAR 044B
ENCODING 1099
SWIDTH 600 0
DWIDTH 15 0
BBX 13 14 1 0
BITMAP
E038
E038
E038
E038
E038
FE38
FF38
E738
E3B8
E3B8
E3B8
E738
FF38
FC38
ENDCHAR
STARTCHAR 044C
ENCODING 1100
SWIDTH 600 0
DWIDTH 15 0
BBX 12 14 2 0
BITMAP
E000
E000
E000
E000
E000
FFC0
FFE0
FFF0
E070
E070
E070
FFF0
FFE0
FF80
ENDCHAR
STARTCHAR 044D
ENCODING 1101
SWIDTH 600 0
DWIDTH 15 0
BBX 11 14 2 0
BITMAP
1F00
7FC0
FFC0
E1E0
E0E0
00E0
0FE0
0FE0
00E0
E0E0
E0E0
FBE0
7FC0
3F80
ENDCHAR
STARTCHAR 044E
ENCODING 1102
SWIDTH 600 0
DWIDTH 15 0
BBX 13 14 1 0
BITMAP
E1E0
E3F0
E778
E638
E638
E638
FE38
FE38
E638
E638
E638
E738
E7F0
E3E0
ENDCHAR
STARTCHAR 044F
ENCODING 1103
SWIDTH 600 0
DWIDTH 15 0
BBX 11 14 2 0
BITMAP
1FE0
7FE0
FFE0
E0E0
E0E0
E0E0
F0E0
FFE0
7FE0
3CE0
38E0
70E0
F0E0
E0E0
ENDCHAR
STARTCHAR 0451
ENCODING 1105
SWIDTH 600 0
DWIDTH 15 0
BBX 11 19 2 0
BITMAP
71C0
73C0
71C0
0000
0000
1F00
7FC0
7BC0
E0E0
E0E0
E0E0
FFE0
FFE0
E000
E000
E0E0
F1E0
7FC0
3F80
ENDCHAR
STARTCHAR 0452
ENCODING 1106
SWIDTH 600 0
DWIDTH 15 0
BBX 13 22 0 -4
BITMAP
3800
3800
FF80
FF80
3800
3800
3BF0
3FF0
3C78
3838
3838
3838
3838
3838
3838
3838
3838
3838
0038
00F8
03F0
03E0
ENDCHAR
STARTCHAR 0453
ENCODING 1107
SWIDTH 600 0
DWIDTH 15 0
BBX 10 20 3 0
BITMAP
0780
0700
0E00
1C00
0000
0000
FFC0
FFC0
FFC0
E000
E000
E000
E000
E000
E000
E000
E000
E000
E000
E000
ENDCHAR
STARTCHAR 0454
ENCODING 1108
SWIDTH 600 0
DWIDTH 15 0
BBX 11 14 2 0
BITMAP
1F00
7FC0
7FE0
F0E0
E0E0
E000
FE00
FE00
E000
E0E0
F0E0
7FE0
7FC0
3F80
ENDCHAR
STARTCHAR 0455
ENCODING 1109
SWIDTH 600 0
DWIDTH 15 0
BBX 11 14 2 0
BITMAP
3F80
7FC0
FFE0
E0E0
E000
F800
7F80
3FE0
01E0
00E0
E0E0
F1E0
FFE0
3F80
ENDCHAR
STARTCHAR 0456
ENCODING 1110
SWIDTH 600 0
DWIDTH 15 0
BBX 12 19 2 0
BITMAP
0F00
0F00
0F00
0000
0000
FF00
FF00
FF00
0700
0700
0700
0700
0700
0700
0700
0700
FFF0
FFF0
FFF0
ENDCHAR
STARTCHAR 0457
ENCODING 1111
SWIDTH 600 0
DWIDTH 15 0
BBX 12 19 2 0
BITMAP
71C0
73C0
71C0
0000
0000
FF00
FF00
FF00
0700
0700
0700
0700
0700
0700
0700
0700
FFF0
FFF0
FFF0
ENDCHAR
STARTCHAR 0458
ENCODING 1112
SWIDTH 600 0
DWIDTH 15 0
BBX 10 23 2 -4
BITMAP
03C0
03C0
03C0
0000
0000
7F80
7F80
7F80
0380
0380
0380
0380
0380
0380
0380
0380
0380
0380
0380
0380
0F80
FF00
FE00
ENDCHAR
STARTCHAR 0459
ENCODING 1113
SWIDTH 600 0
DWIDTH 15 0
BBX 15 14 0 0
BITMAP
3FC0
3FC0
3FC0
39C0
39C0
39F8
39FC
39DE
39CE
39CE
31CE
71DE
F1FC
E1F8
ENDCHAR
STARTCHAR 045A
ENCODING 1114
SWIDTH 600 0
DWIDTH 15 0
BBX 14 14 1 0
BITMAP
E300
E300
E300
E300
E300
FFF0
FFF8
E33C
E31C
E31C
E31C
E338
E3F8
E3F0
ENDCHAR
STARTCHAR 045B
ENCODING 1115
SWIDTH 600 0
DWIDTH 15 0
BBX 13 18 0 0
BITMAP
3800
3800
FF80
FF80
3800
3800
3BF0
3FF0
3C78
3838
3838
3838
3838
3838
3838
3838
3838
3838
ENDCHAR
STARTCHAR 045C
ENCODING 1116
SWIDTH 600 0
DWIDTH 15 0
BBX 12 20 2 0
BITMAP
03C0
0380
0700
0E00
0000
0000
E0F0
E0E0
E1E0
E1C0
E380
E780
FF00
FF00
E780
E380
E3C0
E1E0
E0E0
E0F0
ENDCHAR
STARTCHAR 045E
ENCODING 1118
SWIDTH 600 0
DWIDTH 15 0
BBX 13 24 1 -4
BITMAP
38E0
38E0
1FC0
0F80
0000
0000
E038
F078
7070
7870
38E0
38E0
3CE0
1DC0
1DC0
0FC0
0F80
0F80
0780
0700
0700
0F00
0E00
0E00
ENDCHAR
STARTCHAR 045F
ENCODING 1119
SWIDTH 600 0
DWIDTH 15 0
BBX 11 17 2 -3
BITMAP
E0E0
E0E0
E0E0
E0E0
E0E0
E0E0
E0E0
E0E0
E0E0
E0E0
E0E0
FFE0
FFE0
FFE0
0E00
0E00
0E00
ENDCHAR
STARTCHAR 0490
ENCODING 1168
SWIDTH 600 0
DWIDTH 15 0
BBX 10 21 3 0
BITMAP
01C0
01C0
01C0
FFC0
FFC0
FFC0
E000
E000
E000
E000
E000
E000
E000
E000
E000
E000
E000
E000
E000
E000
E000
ENDCHAR
STARTCHAR 0491
ENCODING 1169
SWIDTH 600 0
DWIDTH 15 0
BBX 10 16 3 0
BITMAP
01C0
01C0
FFC0
FFC0
FFC0
E000
E000
E000
E000
E000
E000
E000
E000
E000
E000
E000
ENDCHAR
STARTCHAR 04AE
ENCODING 1198
SWIDTH 600 0
DWIDTH 15 0
BBX 13 18 1 0
BITMAP
E038
F078
7070
7870
38E0
38E0
1DC0
1DC0
0F80
0F80
0700
0700
0700
0700
0700
0700
0700
0700
ENDCHAR
STARTCHAR 04AF
ENCODING 1199
SWIDTH 600 0
DWIDTH 15 0
BBX 13 18 1 -4
BITMAP
E038
E038
7070
7070
38E0
38E0
3DE0
1DC0
1DC0
0F80
0F80
0700
0700
0700
0700
0700
0700
0700
ENDCHAR
STARTCHAR 04E8
ENCODING 1256
SWIDTH 600 0
DWIDTH 15 0
BBX 11 18 2 0
BITMAP
3F80
7FC0
F1E0
E0E0
E0E0
E0E0
E0E0
FFE0
FFE0
FFE0
E0E0
E0E0
E0E0
E0E0
E0E0
FBE0
7FC0
3F80
ENDCHAR
STARTCHAR 04E9
ENCODING 1257
SWIDTH 600 0
DWIDTH 15 0
BBX 11 14 2 0
BITMAP
1F00
7FC0
7FC0
E0E0
E0E0
E0E0
FFE0
FFE0
E0E0
E0E0
E0E0
FBE0
7FC0
3F80
ENDCHAR
STARTCHAR 1E80
ENCODING 7808
SWIDTH 600 0
DWIDTH 15 0
BBX 15 24 0 0
BITMAP
1E00
0E00
0700
0380
0000
0000
E38E
638C
638C
628C
728C
729C
76DC
76DC
76DC
76DC
76D8
34D8
3458
3458
3458
3C78
3C78
3C78
ENDCHAR
STARTCHAR 1E81
ENCODING 7809
SWIDTH 600 0
DWIDTH 15 0
BBX 13 20 1 0
BITMAP
3C00
1C00
0E00
0700
0000
0000
C718
C718
C718
E518
E538
EDB8
EDB8
6DB0
6DB0
69B0
68B0
78F0
78F0
78E0
ENDCHAR
STARTCHAR 1E82
ENCODING 7810
SWIDTH 600 0
DWIDTH 15 0
BBX 15 24 0 0
BITMAP
00F0
00E0
01C0
0380
0000
0000
E38E
638C
638C
628C
728C
729C
76DC
76DC
76DC
76DC
76D8
34D8
3458
3458
3458
3C78
3C78
3C78
ENDCHAR
STARTCHAR 1E83
ENCODING 7811
SWIDTH 600 0
DWIDTH 15 0
BBX 13 20 1 0
BITMAP
01E0
01C0
0380
0700
0000
0000
C718
C718
C718
E518
E538
EDB8
EDB8
6DB0
6DB0
69B0
68B0
78F0
78F0
78E0
ENDCHAR
STARTCHAR 1E84
ENCODING 7812
SWIDTH 600 0
DWIDTH 15 0
BBX 15 24 0 0
BITMAP
0820
1C70
1C70
0C60
0000
0000
E38E
638C
638C
628C
728C
729C
76DC
76DC
76DC
76DC
76D8
34D8
3458
3458
3458
3C78
3C78
3C78
ENDCHAR
STARTCHAR 1E85
ENCODING 7813
SWIDTH 600 0
DWIDTH 15 0
BBX 13 19 1 0
BITMAP
38E0
39E0
38E0
0000
0000
C718
C718
C718
E518
E538
EDB8
EDB8
6DB0
6DB0
69B0
68B0
78F0
78F0
78E0
ENDCHAR
STARTCHAR 1E9E
ENCODING 7838
SWIDTH 600 0
DWIDTH 15 0
BBX 12 18 2 0
BITMAP
3FE0
7FE0
F8E0
E0E0
E1C0
E380
E700
E700
E7C0
E7E0
E0E0
E0F0
E070
E0F0
E0E0
EFE0
EFC0
EF80
ENDCHAR
STARTCHAR 1EA0
ENCODING 7840
SWIDTH 600 0
DWIDTH 15 0
BBX 13 23 1 -5
BITMAP
0F80
0F80
0F80
0D80
1DC0
1DC0
1DC0
18C0
38E0
38E0
38E0
3FE0
7FF0
7FF0
7070
F070
E038
E038
0000
0000
0700
0F80
0700
ENDCHAR
STARTCHAR 1EA1
ENCODING 7841
SWIDTH 600 0
DWIDTH 15 0
BBX 12 19 1 -5
BITMAP
0F80
3FE0
3FF0
7070
0070
0070
3FF0
7FF0
7070
F070
F070
70F0
7FF0
3F70
0000
0000
0700
0F80
0700
ENDCHAR
STARTCHAR 1EA2
ENCODING 7842
SWIDTH 600 0
DWIDTH 15 0
BBX 13 25 1 0
BITMAP
0F80
0F80
01C0
0180
0300
0000
0000
0F80
0F80
0F80
0D80
1DC0
1DC0
1DC0
18C0
38E0
38E0
38E0
3FE0
7FF0
7FF0
7070
F070
E038
E038
ENDCHAR
STARTCHAR 1EA3
ENCODING 7843
SWIDTH 600 0
DWIDTH 15 0
BBX 12 21 1 0
BITMAP
0F00
0F80
01C0
0180
0300
0000
0000
0F80
3FE0
3FF0
7070
0070
0070
3FF0
7FF0
7070
F070
F070
70F0
7FF0
3F70
ENDCHAR
STARTCHAR 1EA4
ENCODING 7844
SWIDTH 600 0
DWIDTH 15 0
BBX 15 25 1 0
BITMAP
000E
001C
0FB8
1FC0
38C0
0020
0000
0F80
0F80
0F80
0D80
1DC0
1DC0
1DC0
18C0
38E0
38E0
38E0
3FE0
7FF0
7FF0
7070
F070
E038
E038
ENDCHAR
STARTCHAR 1EA5
ENCODING 7845
SWIDTH 600 0
DWIDTH 15 0
BBX 15 22 1 0
BITMAP
000E
001C
0738
0F80
1DC0
38E0
0000
0000
0F80
3FE0
3FF0
7070
0070
0070
3FF0
7FF0
7070
F070
F070
70F0
7FF0
3F70
ENDCHAR
STARTCHAR 1EA6
ENCODING 7846
SWIDTH 600 0
DWIDTH 15 0
BBX 15 25 -1 0
BITMAP
E000
7000
3BE0
07F0
0E30
0008
0000
03E0
03E0
03E0
0360
0770
0770
0770
0630
0E38
0E38
0E38
0FF8
1FFC
1FFC
1C1C
3C1C
380E
380E
ENDCHAR
STARTCHAR 1EA7
ENCODING 7847
SWIDTH 600 0
DWIDTH 15 0
BBX 14 22 -1 0
BITMAP
E000
7000
39C0
03E0
0770
0E38
0000
0000
03E0
0FF8
0FFC
1C1C
001C
001C
0FFC
1FFC
1C1C
3C1C
3C1C
1C3C
1FFC
0FDC
ENDCHAR
STARTCHAR 1EA8
ENCODING 7848
SWIDTH 600 0
DWIDTH 15 0
BBX 14 27 1 0
BITMAP
0070
0078
001C
0018
0FB0
1FC0
38C0
0020
0000
0F80
0F80
0F80
0D80
1DC0
1DC0
1DC0
18C0
38E0
38E0
38E0
3FE0
7FF0
7FF0
7070
F070
E038
E038
ENDCHAR
STARTCHAR 1EA9
ENCODING 7849
SWIDTH 600 0
DWIDTH 15 0
BBX 14 23 1 0
BITMAP
0078
001C
0018
0738
0F80
1DC0
38E0
0000
0000
0F80
3FE0
3FF0
7070
0070
0070
3FF0
7FF0
7070
F070
F070
70F0
7FF0
3F70
ENDCHAR
STARTCHAR 1EAA
ENCODING 7850
SWIDTH 600 0
DWIDTH 15 0
BBX 13 27 1 0
BITMAP
1E60
3FE0
33C0
0000
0F00
0F80
18C0
2020
0000
0F80
0F80
0F80
0D80
1DC0
1DC0
1DC0
18C0
38E0
38E0
38E0
3FE0
7FF0
7FF0
7070
F070
E038
E038
ENDCHAR
STARTCHAR 1EAB
ENCODING 7851
SWIDTH 600 0
DWIDTH 15 0
BBX 12 24 1 0
BITMAP
0C60
1F60
33C0
0000
0700
0F80
1DC0
38E0
0000
0000
0F80
3FE0
3FF0
7070
0070
0070
3FF0
7FF0
7070
F070
F070
70F0
7FF0
3F70
ENDCHAR
STARTCHAR 1EAC
ENCODING 7852
SWIDTH 600 0
DWIDTH 15 0
BBX 13 29 1 -5
BITMAP
0700
0F80
1DC0
38E0
0000
0000
0F80
0F80
0F80
0D80
1DC0
1DC0
1DC0
18C0
38E0
38E0
38E0
3FE0
7FF0
7FF0
7070
F070
E038
E038
0000
0000
0700
0F80
0700
ENDCHAR
STARTCHAR 1EAD
ENCODING 7853
SWIDTH 600 0
DWIDTH 15 0
BBX 12 25 1 -5
BITMAP
0700
0F80
1DC0
38E0
0000
0000
0F80
3FE0
3FF0
7070
0070
0070
3FF0
7FF0
7070
F070
F070
70F0
7FF0
3F70
0000
0000
0700
0F80
0700
ENDCHAR
STARTCHAR 1EAE
ENCODING 7854
SWIDTH 600 0
DWIDTH 15 0
BBX 13 26 1 0
BITMAP
01C0
0180
0300
3460
38E0
1FC0
0700
0000
0F80
0F80
0F80
0D80
1DC0
1DC0
1DC0
18C0
38E0
38E0
38E0
3FE0
7FF0
7FF0
7070
F070
E038
E038
ENDCHAR
STARTCHAR 1EAF
ENCODING 7855
SWIDTH 600 0
DWIDTH 15 0
BBX 12 23 1 0
BITMAP
00C0
01C0
0380
0700
38E0
1FC0
0F80
0000
0000
0F80
3FE0
3FF0
7070
0070
0070
3FF0
7FF0
7070
F070
F070
70F0
7FF0
3F70
ENDCHAR
STARTCHAR 1EB0
ENCODING 7856
SWIDTH 600 0
DWIDTH 15 0
BBX 13 26 1 0
BITMAP
1C00
0C00
0600
3160
38E0
1FC0
0700
0000
0F80
0F80
0F80
0D80
1DC0
1DC0
1DC0
18C0
38E0
38E0
38E0
3FE0
7FF0
7FF0
7070
F070
E038
E038
ENDCHAR
STARTCHAR 1EB1
ENCODING 7857
SWIDTH 600 0
DWIDTH 15 0
BBX 12 23 1 0
BITMAP
1800
1C00
0E00
0700
38E0
1FC0
0F80
0000
0000
0F80
3FE0
3FF0
7070
0070
0070
3FF0
7FF0
7070
F070
F070
70F0
7FF0
3F70
ENDCHAR
STARTCHAR 1EB2
ENCODING 7858
SWIDTH 600 0
DWIDTH 15 0
BBX 13 27 1 0
BITMAP
0F00
0F80
0180
0300
3060
38E0
1FC0
0700
0000
0F80
0F80
0F80
0D80
1DC0
1DC0
1DC0
18C0
38E0
38E0
38E0
3FE0
7FF0
7FF0
7070
F070
E038
E038
ENDCHAR
STARTCHAR 1EB3
ENCODING 7859
SWIDTH 600 0
DWIDTH 15 0
BBX 12 24 1 0
BITMAP
0F00
0F80
0180
0380
0700
38E0
1FC0
0F80
0000
0000
0F80
3FE0
3FF0
7070
0070
0070
3FF0
7FF0
7070
F070
F070
70F0
7FF0
3F70
ENDCHAR
STARTCHAR 1EB4
ENCODING 7860
SWIDTH 600 0
DWIDTH 15 0
BBX 13 27 1 0
BITMAP
1C60
3F60
33C0
0000
3060
3DE0
1FC0
0200
0000
0F80
0F80
0F80
0D80
1DC0
1DC0
1DC0
18C0
38E0
38E0
38E0
3FE0
7FF0
7FF0
7070
F070
E038
E038
ENDCHAR
STARTCHAR 1EB5
ENCODING 7861
SWIDTH 600 0
DWIDTH 15 0
BBX 12 24 1 0
BITMAP
0800
1E60
33E0
31C0
0000
38E0
1FC0
0F80
0000
0000
0F80
3FE0
3FF0
7070
0070
0070
3FF0
7FF0
7070
F070
F070
70F0
7FF0
3F70
ENDCHAR
STARTCHAR 1EB6
ENCODING 7862
SWIDTH 600 0
DWIDTH 15 0
BBX 13 29 1 -5
BITMAP
3060
38E0
1FC0
0F80
0000
0000
0F80
0F80
0F80
0D80
1DC0
1DC0
1DC0
18C0
38E0
38E0
38E0
3FE0
7FF0
7FF0
7070
F070
E038
E038
0000
0000
0700
0F80
0700
ENDCHAR
STARTCHAR 1EB7
ENCODING 7863
SWIDTH 600 0
DWIDTH 15 0
BBX 12 25 1 -5
BITMAP
38E0
38E0
1FC0
0F80
0000
0000
0F80
3FE0
3FF0
7070
0070
0070
3FF0
7FF0
7070
F070
F070
70F0
7FF0
3F70
0000
0000
0700
0F80
0700
ENDCHAR
STARTCHAR 1EB8
ENCODING 7864
SWIDTH 600 0
DWIDTH 15 0
BBX 11 23 2 -5
BITMAP
FFE0
FFE0
E000
E000
E000
E000
E000
FFC0
FFC0
FFC0
E000
E000
E000
E000
E000
FFE0
FFE0
FFE0
0000
0000
0E00
1F00
0E00
ENDCHAR
STARTCHAR 1EB9
ENCODING 7865
SWIDTH 600 0
DWIDTH 15 0
BBX 11 19 2 -5
BITMAP
1F00
7FC0
7BC0
E0E0
E0E0
E0E0
FFE0
FFE0
E000
E000
E0E0
F1E0
7FC0
3F80
0000
0000
0E00
1F00
0E00
ENDCHAR
STARTCHAR 1EBA
ENCODING 7866
SWIDTH 600 0
DWIDTH 15 0
BBX 11 25 2 0
BITMAP
1C00
1F00
0300
0700
0600
0000
0000
FFE0
FFE0
E000
E000
E000
E000
E000
FFC0
FFC0
FFC0
E000
E000
E000
E000
E000
FFE0
FFE0
FFE0
ENDCHAR
STARTCHAR 1EBB
ENCODING 7867
SWIDTH 600 0
DWIDTH 15 0
BBX 11 21 2 0
BITMAP
1E00
1F00
0300
0700
0600
0000
0000
1F00
7FC0
7BC0
E0E0
E0E0
E0E0
FFE0
FFE0
E000
E000
E0E0
F1E0
7FC0
3F80
ENDCHAR
STARTCHAR 1EBC
ENCODING 7868
SWIDTH 600 0
DWIDTH 15 0
BBX 11 24 2 0
BITMAP
1000
3CC0
6FC0
6380
0000
0000
FFE0
FFE0
E000
E000
E000
E000
E000
FFC0
FFC0
FFC0
E000
E000
E000
E000
E000
FFE0
FFE0
FFE0
ENDCHAR
STARTCHAR 1EBD
ENCODING 7869
SWIDTH 600 0
DWIDTH 15 0
BBX 11 20 2 0
BITMAP
10C0
3CC0
6FC0
6380
0000
0000
1F00
7FC0
7BC0
E0E0
E0E0
E0E0
FFE0
FFE0
E000
E000
E0E0
F1E0
7FC0
3F80
ENDCHAR
STARTCHAR 1EBE
ENCODING 7870
SWIDTH 600 0
DWIDTH 15 0
BBX 14 25 2 0
BITMAP
001C
0038
1F70
3F80
7180
0040
0000
FFE0
FFE0
E000
E000
E000
E000
E000
FFC0
FFC0
FFC0
E000
E000
E000
E000
E000
FFE0
FFE0
FFE0
ENDCHAR
STARTCHAR 1EBF
ENCODING 7871
SWIDTH 600 0
DWIDTH 15 0
BBX 14 22 2 0
BITMAP
001C
0038
0E70
1F00
3B80
71C0
0000
0000
1F00
7FC0
7BC0
E0E0
E0E0
E0E0
FFE0
FFE0
E000
E000
E0E0
F1E0
7FC0
3F80
ENDCHAR
STARTCHAR 1EC0
ENCODING 7872
SWIDTH 600 0
DWIDTH 15 0
BBX 14 25 -1 0
BITMAP
E000
7000
3BE0
07F0
0E30
0008
0000
1FFC
1FFC
1C00
1C00
1C00
1C00
1C00
1FF8
1FF8
1FF8
1C00
1C00
1C00
1C00
1C00
1FFC
1FFC
1FFC
ENDCHAR
STARTCHAR 1EC1
ENCODING 7873
SWIDTH 600 0
DWIDTH 15 0
BBX 14 22 -1 0
BITMAP
E000
7000
39C0
03E0
0770
0E38
0000
0000
03E0
0FF8
0F78
1C1C
1C1C
1C1C
1FFC
1FFC
1C00
1C00
1C1C
1E3C
0FF8
07F0
ENDCHAR
STARTCHAR 1EC2
ENCODING 7874
SWIDTH 600 0
DWIDTH 15 0
BBX 13 27 2 0
BITMAP
00E0
00F0
0038
0030
1F60
3F80
7180
0040
0000
FFE0
FFE0
E000
E000
E000
E000
E000
FFC0
FFC0
FFC0
E000
E000
E000
E000
E000
FFE0
FFE0
FFE0
ENDCHAR
STARTCHAR 1EC3
ENCODING 7875
SWIDTH 600 0
DWIDTH 15 0
BBX 13 23 2 0
BITMAP
00F0
0038
0030
0E70
1F00
3B80
71C0
0000
0000
1F00
7FC0
7BC0
E0E0
E0E0
E0E0
FFE0
FFE0
E000
E000
E0E0
F1E0
7FC0
3F80
ENDCHAR
STARTCHAR 1EC4
ENCODING 7876
SWIDTH 600 0
DWIDTH 15 0
BBX 11 27 2 0
BITMAP
3CC0
7FC0
6780
0000
1E00
1F00
3180
4040
0000
FFE0
FFE0
E000
E000
E000
E000
E000
FFC0
FFC0
FFC0
E000
E000
E000
E000
E000
FFE0
FFE0
FFE0
ENDCHAR
STARTCHAR 1EC5
ENCODING 7877
SWIDTH 600 0
DWIDTH 15 0
BBX 11 24 2 0
BITMAP
18C0
3EC0
6780
0000
0E00
1F00
3B80
71C0
0000
0000
1F00
7FC0
7BC0
E0E0
E0E0
E0E0
FFE0
FFE0
E000
E000
E0E0
F1E0
7FC0
3F80
ENDCHAR
STARTCHAR 1EC6
ENCODING 7878
SWIDTH 600 0
DWIDTH 15 0
BBX 11 29 2 -5
BITMAP
0E00
1F00
3B80
71C0
0000
0000
FFE0
FFE0
E000
E000
E000
E000
E000
FFC0
FFC0
FFC0
E000
E000
E000
E000
E000
FFE0
FFE0
FFE0
0000
0000
0E00
1F00
0E00
ENDCHAR
STARTCHAR 1EC7
ENCODING 7879
SWIDTH 600 0
DWIDTH 15 0
BBX 11 25 2 -5
BITMAP
0E00
1F00
3B80
71C0
0000
0000
1F00
7FC0
7BC0
E0E0
E0E0
E0E0
FFE0
FFE0
E000
E000
E0E0
F1E0
7FC0
3F80
0000
0000
0E00
1F00
0E00
ENDCHAR
STARTCHAR 1EC8
ENCODING 7880
SWIDTH 600 0
DWIDTH 15 0
BBX 11 25 2 0
BITMAP
1C00
1F00
0300
0300
0700
0000
0000
FFE0
FFE0
FFE0
0E00
0E00
0E00
0E00
0E00
0E00
0E00
0E00
0E00
0E00
0E00
0E00
FFE0
FFE0
FFE0
ENDCHAR
STARTCHAR 1EC9
ENCODING 7881
SWIDTH 600 0
DWIDTH 15 0
BBX 12 21 2 0
BITMAP
1E00
1F00
0380
0300
0600
0000
0000
FF00
FF00
FF00
0700
0700
0700
0700
0700
0700
0700
0700
FFF0
FFF0
FFF0
ENDCHAR
STARTCHAR 1ECA
ENCODING 7882
SWIDTH 600 0
DWIDTH 15 0
BBX 11 23 2 -5
BITMAP
FFE0
FFE0
FFE0
0E00
0E00
0E00
0E00
0E00
0E00
0E00
0E00
0E00
0E00
0E00
0E00
FFE0
FFE0
FFE0
0000
0000
0E00
1E00
1E00
ENDCHAR
STARTCHAR 1ECB
ENCODING 7883
SWIDTH 600 0
DWIDTH 15 0
BBX 12 24 2 -5
BITMAP
0F00
0F00
0F00
0000
0000
FF00
FF00
FF00
0700
0700
0700
0700
0700
0700
0700
0700
FFF0
FFF0
FFF0
0000
0000
0700
0F00
0F00
ENDCHAR
STARTCHAR 1ECC
ENCODING 7884
SWIDTH 600 0
DWIDTH 15 0
BBX 11 23 2 -5
BITMAP
3F80
7FC0
F1E0
E0E0
E0E0
E0E0
E0E0
E0E0
E0E0
E0E0
E0E0
E0E0
E0E0
E0E0
E0E0
FBE0
7FC0
3F80
0000
0000
0E00
1F00
0E00
ENDCHAR
STARTCHAR 1ECD
ENCODING 7885
SWIDTH 600 0
DWIDTH 15 0
BBX 11 19 2 -5
BITMAP
1F00
7FC0
7FE0
F1E0
E0E0
E0E0
E0E0
E0E0
E0E0
E0E0
E0E0
FBE0
7FC0
3F80
0000
0000
0E00
1F00
0E00
ENDCHAR
STARTCHAR 1ECE
ENCODING 7886
SWIDTH 600 0
DWIDTH 15 0
BBX 11 25 2 0
BITMAP
1C00
1F00
0300
0300
0700
0000
0000
3F80
7FC0
F1E0
E0E0
E0E0
E0E0
E0E0
E0E0
E0E0
E0E0
E0E0
E0E0
E0E0
E0E0
E0E0
FBE0
7FC0
3F80
ENDCHAR
STARTCHAR 1ECF
ENCODING 7887
SWIDTH 600 0
DWIDTH 15 0
BBX 11 21 2 0
BITMAP
1E00
1F00
0380
0300
0600
0000
0000
1F00
7FC0
7FE0
F1E0
E0E0
E0E0
E0E0
E0E0
E0E0
E0E0
E0E0
FBE0
7FC0
3F80
ENDCHAR
STARTCHAR 1ED0
ENCODING 7888
SWIDTH 600 0
DWIDTH 15 0
BBX 14 25 2 0
BITMAP
001C
0038
1F70
3F80
7180
0040
0000
3F80
7FC0
F1E0
E0E0
E0E0
E0E0
E0E0
E0E0
E0E0
E0E0
E0E0
E0E0
E0E0
E0E0
E0E0
FBE0
7FC0
3F80
ENDCHAR
STARTCHAR 1ED1
ENCODING 7889
SWIDTH 600 0
DWIDTH 15 0
BBX 14 22 2 0
BITMAP
001C
0038
0E70
1F00
3B80
71C0
0000
0000
1F00
7FC0
7FE0
F1E0
E0E0
E0E0
E0E0
E0E0
E0E0
E0E0
E0E0
FBE0
7FC0
3F80
ENDCHAR
STARTCHAR 1ED2
ENCODING 7890
SWIDTH 600 0
DWIDTH 15 0
BBX 14 25 -1 0
BITMAP
E000
7000
3BE0
07F0
0E30
0008
0000
07F0
0FF8
1E3C
1C1C
1C1C
1C1C
1C1C
1C1C
1C1C
1C1C
1C1C
1C1C
1C1C
1C1C
1C1C
1F7C
0FF8
07F0
ENDCHAR
STARTCHAR 1ED3
ENCODING 7891
SWIDTH 600 0
DWIDTH 15 0
BBX 14 22 -1 0
BITMAP
E000
7000
39C0
03E0
0770
0E38
0000
0000
03E0
0FF8
0FFC
1E3C
1C1C
1C1C
1C1C
1C1C
1C1C
1C1C
1C1C
1F7C
0FF8
07F0
ENDCHAR
STARTCHAR 1ED4
ENCODING 7892
SWIDTH 600 0
DWIDTH 15 0
BBX 13 27 2 0
BITMAP
00E0
00F0
0038
0030
1F60
3F80
7180
0040
0000
3F80
7FC0
F1E0
E0E0
E0E0
E0E0
E0E0
E0E0
E0E0
E0E0
E0E0
E0E0
E0E0
E0E0
E0E0
FBE0
7FC0
3F80
ENDCHAR
STARTCHAR 1ED5
ENCODING 7893
SWIDTH 600 0
DWIDTH 15 0
BBX 13 23 2 0
BITMAP
00F0
0038
0030
0E70
1F00
3B80
71C0
0000
0000
1F00
7FC0
7FE0
F1E0
E0E0
E0E0
E0E0
E0E0
E0E0
E0E0
E0E0
FBE0
7FC0
3F80
ENDCHAR
STARTCHAR 1ED6
ENCODING 7894
SWIDTH 600 0
DWIDTH 15 0
BBX 11 27 2 0
BITMAP
3CC0
7FC0
6780
0000
1E00
1F00
3180
4040
0000
3F80
7FC0
F1E0
E0E0
E0E0
E0E0
E0E0
E0E0
E0E0
E0E0
E0E0
E0E0
E0E0
E0E0
E0E0
FBE0
7FC0
3F80
ENDCHAR
STARTCHAR 1ED7
ENCODING 7895
SWIDTH 600 0
DWIDTH 15 0
BBX 11 24 2 0
BITMAP
18C0
3EC0
6780
0000
0E00
1F00
3B80
71C0
0000
0000
1F00
7FC0
7FE0
F1E0
E0E0
E0E0
E0E0
E0E0
E0E0
E0E0
E0E0
FBE0
7FC0
3F80
ENDCHAR
STARTCHAR 1ED8
ENCODING 7896
SWIDTH 600 0
DWIDTH 15 0
BBX 11 29 2 -5
BITMAP
0E00
1F00
3B80
71C0
0000
0000
3F80
7FC0
F1E0
E0E0
E0E0
E0E0
E0E0
E0E0
E0E0
E0E0
E0E0
E0E0
E0E0
E0E0
E0E0
FBE0
7FC0
3F80
0000
0000
0E00
1F00
0E00
ENDCHAR
STARTCHAR 1ED9
ENCODING 7897
SWIDTH 600 0
DWIDTH 15 0
BBX 11 25 2 -5
BITMAP
0E00
1F00
3B80
71C0
0000
0000
1F00
7FC0
7FE0
F1E0
E0E0
E0E0
E0E0
E0E0
E0E0
E0E0
E0E0
FBE0
7FC0
3F80
0000
0000
0E00
1F00
0E00
ENDCHAR
STARTCHAR 1EDA
ENCODING 7898
SWIDTH 600 0
DWIDTH 15 0
BBX 13 24 2 0
BITMAP
03C0
0380
0700
0E38
0038
0038
3FB0
7FF0
F1E0
E0E0
E0E0
E0E0
E0E0
E0E0
E0E0
E0E0
E0E0
E0E0
E0E0
E0E0
E0E0
FBE0
7FC0
3F80
ENDCHAR
STARTCHAR 1EDB
ENCODING 7899
SWIDTH 600 0
DWIDTH 15 0
BBX 12 20 2 0
BITMAP
03C0
0380
0700
0E00
0030
0030
1F30
7FF0
7FE0
F1E0
E0E0
E0E0
E0E0
E0E0
E0E0
E0E0
E0E0
FBE0
7FC0
3F80
ENDCHAR
STARTCHAR 1EDC
ENCODING 7900
SWIDTH 600 0
DWIDTH 15 0
BBX 13 24 2 0
BITMAP
7800
3800
1C00
0E38
0038
0038
3FB0
7FF0
F1E0
E0E0
E0E0
E0E0
E0E0
E0E0
E0E0
E0E0
E0E0
E0E0
E0E0
E0E0
E0E0
FBE0
7FC0
3F80
ENDCHAR
STARTCHAR 1EDD
ENCODING 7901
SWIDTH 600 0
DWIDTH 15 0
BBX 12 20 2 0
BITMAP
7800
3800
1C00
0E00
0030
0030
1F30
7FF0
7FE0
F1E0
E0E0
E0E0
E0E0
E0E0
E0E0
E0E0
E0E0
FBE0
7FC0
3F80
ENDCHAR
STARTCHAR 1EDE
ENCODING 7902
SWIDTH 600 0
DWIDTH 15 0
BBX 13 25 2 0
BITMAP
1C00
1F00
0300
0700
0638
0038
0038
3FB0
7FF0
F1E0
E0E0
E0E0
E0E0
E0E0
E0E0
E0E0
E0E0
E0E0
E0E0
E0E0
E0E0
E0E0
FBE0
7FC0
3F80
ENDCHAR
STARTCHAR 1EDF
ENCODING 7903
SWIDTH 600 0
DWIDTH 15 0
BBX 12 21 2 0
BITMAP
1E00
1F00
0300
0700
0600
0030
0030
1F30
7FF0
7FE0
F1E0
E0E0
E0E0
E0E0
E0E0
E0E0
E0E0
E0E0
FBE0
7FC0
3F80
ENDCHAR
STARTCHAR 1EE0
ENCODING 7904
SWIDTH 600 0
DWIDTH 15 0
BBX 13 24 2 0
BITMAP
1000
3CC0
6FC0
63B8
0038
0038
3FB0
7FF0
F1E0
E0E0
E0E0
E0E0
E0E0
E0E0
E0E0
E0E0
E0E0
E0E0
E0E0
E0E0
E0E0
FBE0
7FC0
3F80
ENDCHAR
STARTCHAR 1EE1
ENCODING 7905
SWIDTH 600 0
DWIDTH 15 0
BBX 12 20 2 0
BITMAP
10C0
3CC0
6FC0
6380
0030
0030
1F30
7FF0
7FE0
F1E0
E0E0
E0E0
E0E0
E0E0
E0E0
E0E0
E0E0
FBE0
7FC0
3F80
ENDCHAR
STARTCHAR 1EE2
ENCODING 7906
SWIDTH 600 0
DWIDTH 15 0
BBX 13 26 2 -5
BITMAP
0038
0038
0038
3FB0
7FF0
F1E0
E0E0
E0E0
E0E0
E0E0
E0E0
E0E0
E0E0
E0E0
E0E0
E0E0
E0E0
E0E0
FBE0
7FC0
3F80
0000
0000
0E00
1F00
0E00
ENDCHAR
STARTCHAR 1EE3
ENCODING 7907
SWIDTH 600 0
DWIDTH 15 0
BBX 12 21 2 -5
BITMAP
0030
0030
1F30
7FF0
7FE0
F1E0
E0E0
E0E0
E0E0
E0E0
E0E0
E0E0
E0E0
FBE0
7FC0
3F80
0000
0000
0E00
1F00
0E00
ENDCHAR
STARTCHAR 1EE4
ENCODING 7908
SWIDTH 600 0
DWIDTH 15 0
BBX 11 23 2 -5
BITMAP
E0E0
E0E0
E0E0
E0E0
E0E0
E0E0
E0E0
E0E0
E0E0
E0E0
E0E0
E0E0
E0E0
E0E0
E0E0
FBE0
7FC0
3F80
0000
0000
0E00
1F00
0E00
ENDCHAR
STARTCHAR 1EE5
ENCODING 7909
SWIDTH 600 0
DWIDTH 15 0
BBX 11 19 2 -5
BITMAP
E0E0
E0E0
E0E0
E0E0
E0E0
E0E0
E0E0
E0E0
E0E0
E0E0
E0E0
FBE0
7FC0
3F80
0000
0000
0E00
1F00
0E00
ENDCHAR
STARTCHAR 1EE6
ENCODING 7910
SWIDTH 600 0
DWIDTH 15 0
BBX 11 25 2 0
BITMAP
1C00
1F00
0300
0700
0600
0000
0000
E0E0
E0E0
E0E0
E0E0
E0E0
E0E0
E0E0
E0E0
E0E0
E0E0
E0E0
E0E0
E0E0
E0E0
E0E0
FBE0
7FC0
3F80
ENDCHAR
STARTCHAR 1EE7
ENCODING 7911
SWIDTH 600 0
DWIDTH 15 0
BBX 11 21 2 0
BITMAP
1E00
1F00
0300
0700
0600
0000
0000
E0E0
E0E0
E0E0
E0E0
E0E0
E0E0
E0E0
E0E0
E0E0
E0E0
E0E0
FBE0
7FC0
3F80
ENDCHAR
STARTCHAR 1EE8
ENCODING 7912
SWIDTH 600 0
DWIDTH 15 0
BBX 14 24 2 0
BITMAP
03C0
0380
0700
0E1C
001C
001C
E0F8
E0F0
E0E0
E0E0
E0E0
E0E0
E0E0
E0E0
E0E0
E0E0
E0E0
E0E0
E0E0
E0E0
E0E0
FBE0
7FC0
3F80
ENDCHAR
STARTCHAR 1EE9
ENCODING 7913
SWIDTH 600 0
DWIDTH 15 0
BBX 13 20 2 0
BITMAP
03C0
0380
0700
0E00
0018
0018
E0F8
E0F0
E0E0
E0E0
E0E0
E0E0
E0E0
E0E0
E0E0
E0E0
E0E0
FBE0
7FC0
3F80
ENDCHAR
STARTCHAR 1EEA
ENCODING 7914
SWIDTH 600 0
DWIDTH 15 0
BBX 14 24 2 0
BITMAP
7800
3800
1C00
0E1C
001C
001C
E0F8
E0F0
E0E0
E0E0
E0E0
E0E0
E0E0
E0E0
E0E0
E0E0
E0E0
E0E0
E0E0
E0E0
E0E0
FBE0
7FC0
3F80
ENDCHAR
STARTCHAR 1EEB
ENCODING 7915
SWIDTH 600 0
DWIDTH 15 0
BBX 13 20 2 0
BITMAP
7800
3800
1C00
0E00
0018
0018
E0F8
E0F0
E0E0
E0E0
E0E0
E0E0
E0E0
E0E0
E0E0
E0E0
E0E0
FBE0
7FC0
3F80
ENDCHAR
STARTCHAR 1EEC
ENCODING 7916
SWIDTH 600 0
DWIDTH 15 0
BBX 14 25 2 0
BITMAP
1C00
1F00
0300
0700
061C
001C
001C
E0F8
E0F0
E0E0
E0E0
E0E0
E0E0
E0E0
E0E0
E0E0
E0E0
E0E0
E0E0
E0E0
E0E0
E0E0
FBE0
7FC0
3F80
ENDCHAR
STARTCHAR 1EED
ENCODING 7917
SWIDTH 600 0
DWIDTH 15 0
BBX 13 21 2 0
BITMAP
1E00
1F00
0300
0700
0600
0018
0018
E0F8
E0F0
E0E0
E0E0
E0E0
E0E0
E0E0
E0E0
E0E0
E0E0
E0E0
FBE0
7FC0
3F80
ENDCHAR
STARTCHAR 1EEE
ENCODING 7918
SWIDTH 600 0
DWIDTH 15 0
BBX 14 24 2 0
BITMAP
1000
3CC0
6FC0
639C
001C
001C
E0F8
E0F0
E0E0
E0E0
E0E0
E0E0
E0E0
E0E0
E0E0
E0E0
E0E0
E0E0
E0E0
E0E0
E0E0
FBE0
7FC0
3F80
ENDCHAR
STARTCHAR 1EEF
ENCODING 7919
SWIDTH 600 0
DWIDTH 15 0
BBX 13 20 2 0
BITMAP
10C0
3CC0
6FC0
6380
0018
0018
E0F8
E0F0
E0E0
E0E0
E0E0
E0E0
E0E0
E0E0
E0E0
E0E0
E0E0
FBE0
7FC0
3F80
ENDCHAR
STARTCHAR 1EF0
ENCODING 7920
SWIDTH 600 0
DWIDTH 15 0
BBX 14 26 2 -5
BITMAP
001C
001C
001C
E0F8
E0F0
E0E0
E0E0
E0E0
E0E0
E0E0
E0E0
E0E0
E0E0
E0E0
E0E0
E0E0
E0E0
E0E0
FBE0
7FC0
3F80
0000
0000
0E00
1F00
0E00
ENDCHAR
STARTCHAR 1EF1
ENCODING 7921
SWIDTH 600 0
DWIDTH 15 0
BBX 13 21 2 -5
BITMAP
0018
0018
E0F8
E0F0
E0E0
E0E0
E0E0
E0E0
E0E0
E0E0
E0E0
E0E0
E0E0
FBE0
7FC0
3F80
0000
0000
0E00
1F00
0E00
ENDCHAR
STARTCHAR 1EF2
ENCODING 7922
SWIDTH 600 0
DWIDTH 15 0
BBX 13 24 1 0
BITMAP
3C00
1C00
0E00
0700
0000
0000
E038
F078
7070
7870
38E0
38E0
1DC0
1DC0
0F80
0F80
0700
0700
0700
0700
0700
0700
0700
0700
ENDCHAR
STARTCHAR 1EF3
ENCODING 7923
SWIDTH 600 0
DWIDTH 15 0
BBX 13 24 1 -4
BITMAP
3C00
1C00
0E00
0700
0000
0000
E038
F078
7070
7870
38E0
38E0
3CE0
1DC0
1DC0
0FC0
0F80
0F80
0780
0700
0700
0F00
0E00
0E00
ENDCHAR
STARTCHAR 1EF4
ENCODING 7924
SWIDTH 600 0
DWIDTH 15 0
BBX 13 23 1 -5
BITMAP
E038
F078
7070
7870
38E0
38E0
1DC0
1DC0
0F80
0F80
0700
0700
0700
0700
0700
0700
0700
0700
0000
0000
0700
0F80
0700
ENDCHAR
STARTCHAR 1EF5
ENCODING 7925
SWIDTH 600 0
DWIDTH 15 0
BBX 13 19 1 -5
BITMAP
E038
F078
7070
7870
38E0
38E0
3CE0
1DC0
1DC0
0FC0
0F80
0F80
0780
0700
0700
0F00
0E70
0EF8
1E70
ENDCHAR
STARTCHAR 1EF6
ENCODING 7926
SWIDTH 600 0
DWIDTH 15 0
BBX 13 25 1 0
BITMAP
0E00
0F80
0180
0380
0300
0000
0000
E038
F078
7070
7870
38E0
38E0
1DC0
1DC0
0F80
0F80
0700
0700
0700
0700
0700
0700
0700
0700
ENDCHAR
STARTCHAR 1EF7
ENCODING 7927
SWIDTH 600 0
DWIDTH 15 0
BBX 13 25 1 -4
BITMAP
0F00
0F80
0180
0180
0300
0000
0000
E038
F078
7070
7870
38E0
38E0
3CE0
1DC0
1DC0
0FC0
0F80
0F80
0780
0700
0700
0F00
0E00
0E00
ENDCHAR
STARTCHAR 1EF8
ENCODING 7928
SWIDTH 600 0
DWIDTH 15 0
BBX 13 24 1 0
BITMAP
0800
1E60
37E0
31C0
0000
0000
E038
F078
7070
7870
38E0
38E0
1DC0
1DC0
0F80
0F80
0700
0700
0700
0700
0700
0700
0700
0700
ENDCHAR
STARTCHAR 1EF9
ENCODING 7929
SWIDTH 600 0
DWIDTH 15 0
BBX 13 24 1 -4
BITMAP
0860
1E60
37E0
31C0
0000
0000
E038
F078
7070
7870
38E0
38E0
3CE0
1DC0
1DC0
0FC0
0F80
0F80
0780
0700
0700
0F00
0E00
0E00
ENDCHAR
STARTCHAR 2010
ENCODING 8208
SWIDTH 600 0
DWIDTH 15 0
BBX 11 3 2 7
BITMAP
FFE0
FFE0
FFE0
ENDCHAR
STARTCHAR 2013
ENCODING 8211
SWIDTH 600 0
DWIDTH 15 0
BBX 11 3 2 7
BITMAP
FFE0
FFE0
FFE0
ENDCHAR
STARTCHAR 2014
ENCODING 8212
SWIDTH 600 0
DWIDTH 15 0
BBX 15 3 0 7
BITMAP
FFFE
FFFE
FFFE
ENDCHAR
STARTCHAR 2018
ENCODING 8216
SWIDTH 600 0
DWIDTH 15 0
BBX 5 7 6 12
BITMAP
38
38
78
70
70
F0
F0
ENDCHAR
STARTCHAR 2019
ENCODING 8217
SWIDTH 600 0
DWIDTH 15 0
BBX 5 7 4 12
BITMAP
78
78
70
70
F0
E0
E0
ENDCHAR
STARTCHAR 201A
ENCODING 8218
SWIDTH 600 0
DWIDTH 15 0
BBX 6 8 4 -4
BITMAP
3C
78
78
70
70
F0
E0
E0
ENDCHAR
STARTCHAR 201C
ENCODING 8220
SWIDTH 600 0
DWIDTH 15 0
BBX 11 7 2 12
BITMAP
38E0
38E0
78E0
71C0
71C0
F3C0
F3C0
ENDCHAR
STARTCHAR 201D
ENCODING 8221
SWIDTH 600 0
DWIDTH 15 0
BBX 11 7 2 12
BITMAP
79E0
79E0
71C0
71C0
E3C0
E380
E380
ENDCHAR
STARTCHAR 201E
ENCODING 8222
SWIDTH 600 0
DWIDTH 15 0
BBX 12 8 2 -4
BITMAP
78F0
79E0
79E0
71C0
F1C0
E380
E380
C380
ENDCHAR
STARTCHAR 2020
ENCODING 8224
SWIDTH 600 0
DWIDTH 15 0
BBX 11 24 2 -3
BITMAP
0E00
0E00
0E00
0E00
0E00
0E00
FFE0
FFE0
FFE0
0E00
0E00
0E00
0E00
0E00
0E00
0E00
0E00
0E00
0E00
0E00
0E00
0E00
0E00
0E00
ENDCHAR
STARTCHAR 2021
ENCODING 8225
SWIDTH 600 0
DWIDTH 15 0
BBX 11 24 2 -3
BITMAP
0E00
0E00
0E00
0E00
0E00
0E00
FFE0
FFE0
FFE0
0E00
0E00
0E00
0E00
0E00
0E00
FFE0
FFE0
FFE0
0E00
0E00
0E00
0E00
0E00
0E00
ENDCHAR
STARTCHAR 2022
ENCODING 8226
SWIDTH 600 0
DWIDTH 15 0
BBX 7 6 4 6
BITMAP
7C
7C
FE
FE
7C
78
ENDCHAR
STARTCHAR 2024
ENCODING 8228
SWIDTH 600 0
DWIDTH 15 0
BBX 5 4 5 0
BITMAP
70
F8
F8
F0
ENDCHAR
STARTCHAR 2026
ENCODING 8230
SWIDTH 600 0
DWIDTH 15 0
BBX 13 4 1 0
BITMAP
E738
E738
E738
E738
ENDCHAR
STARTCHAR 2030
ENCODING 8240
SWIDTH 600 0
DWIDTH 15 0
BBX 15 18 0 0
BITMAP
7C20
CC60
CCC0
CC80
CD80
FD00
7B00
0600
0600
0C00
0800
1FFC
1666
3666
6666
6666
C6FE
83BC
ENDCHAR
STARTCHAR 2032
ENCODING 8242
SWIDTH 600 0
DWIDTH 15 0
BBX 5 7 4 12
BITMAP
78
78
78
70
F0
E0
E0
ENDCHAR
STARTCHAR 2033
ENCODING 8243
SWIDTH 600 0
DWIDTH 15 0
BBX 11 7 2 12
BITMAP
79E0
79E0
71C0
71C0
E3C0
E380
E380
ENDCHAR
STARTCHAR 2039
ENCODING 8249
SWIDTH 600 0
DWIDTH 15 0
BBX 7 12 4 1
BITMAP
0E
1C
38
78
70
E0
E0
70
78
3C
1C
0E
ENDCHAR
STARTCHAR 203A
ENCODING 8250
SWIDTH 600 0
DWIDTH 15 0
BBX 7 12 4 1
BITMAP
E0
70
78
3C
1C
0E
0E
1C
3C
38
70
E0
ENDCHAR
STARTCHAR 2044
ENCODING 8260
SWIDTH 600 0
DWIDTH 15 0
BBX 11 18 2 0
BITMAP
0060
00C0
00C0
0180
0180
0300
0300
0600
0600
0C00
0C00
1800
1800
3000
3000
6000
6000
C000
ENDCHAR
STARTCHAR 2070
ENCODING 8304
SWIDTH 600 0
DWIDTH 15 0
BBX 9 11 3 10
BITMAP
3E00
7F00
6300
E380
E380
E380
E380
E380
6300
7F00
3E00
ENDCHAR
STARTCHAR 2074
ENCODING 8308
SWIDTH 600 0
DWIDTH 15 0
BBX 8 11 3 10
BITMAP
0E
0C
18
38
33
63
E3
FF
FF
03
03
ENDCHAR
STARTCHAR 2075
ENCODING 8309
SWIDTH 600 0
DWIDTH 15 0
BBX 8 11 3 10
BITMAP
7F
7F
60
60
6C
7F
03
03
C3
7F
3C
ENDCHAR
STARTCHAR 2076
ENCODING 8310
SWIDTH 600 0
DWIDTH 15 0
BBX 9 11 3 10
BITMAP
0C00
1C00
1800
3000
7E00
7F00
6300
E380
6300
7F00
3E00
ENDCHAR
STARTCHAR 2077
ENCODING 8311
SWIDTH 600 0
DWIDTH 15 0
BBX 7 11 4 10
BITMAP
FE
FE
C6
C6
0C
0C
18
18
30
30
60
ENDCHAR
STARTCHAR 2078
ENCODING 8312
SWIDTH 600 0
DWIDTH 15 0
BBX 7 11 4 10
BITMAP
7C
FE
C6
C6
EE
7C
C6
C6
C6
EE
7C
ENDCHAR
STARTCHAR 2079
ENCODING 8313
SWIDTH 600 0
DWIDTH 15 0
BBX 9 11 3 10
BITMAP
3E00
7F00
6300
E380
6300
7F00
3F00
0600
0C00
1C00
1800
ENDCHAR
STARTCHAR 207A
ENCODING 8314
SWIDTH 600 0
DWIDTH 15 0
BBX 7 7 4 8
BITMAP
30
30
30
FE
FE
30
30
ENDCHAR
STARTCHAR 2080
ENCODING 8320
SWIDTH 600 0
DWIDTH 15 0
BBX 9 11 3 -3
BITMAP
3E00
7F00
6300
E380
E380
E380
E380
E380
6300
7F00
3E00
ENDCHAR
STARTCHAR 2081
ENCODING 8321
SWIDTH 600 0
DWIDTH 15 0
BBX 8 11 4 -3
BITMAP
38
78
D8
98
18
18
18
18
18
FF
FF
ENDCHAR
STARTCHAR 2082
ENCODING 8322
SWIDTH 600 0
DWIDTH 15 0
BBX 8 11 4 -3
BITMAP
7C
FE
C6
C6
06
0E
1C
70
E0
FF
FF
ENDCHAR
STARTCHAR 2083
ENCODING 8323
SWIDTH 600 0
DWIDTH 15 0
BBX 8 11 3 -3
BITMAP
7E
7E
06
0C
1C
1E
03
C3
E3
7E
3C
ENDCHAR
STARTCHAR 2084
ENCODING 8324
SWIDTH 600 0
DWIDTH 15 0
BBX 8 11 3 -3
BITMAP
0E
0C
18
38
33
63
E3
FF
FF
03
03
ENDCHAR
STARTCHAR 2085
ENCODING 8325
SWIDTH 600 0
DWIDTH 15 0
BBX 8 11 3 -3
BITMAP
7F
7F
60
60
7E
7F
03
03
E3
7E
3C
ENDCHAR
STARTCHAR 2086
ENCODING 8326
SWIDTH 600 0
DWIDTH 15 0
BBX 9 11 3 -3
BITMAP
0C00
1C00
1800
3000
7E00
7F00
6300
E380
6300
7F00
3E00
ENDCHAR
STARTCHAR 2087
ENCODING 8327
SWIDTH 600 0
DWIDTH 15 0
BBX 7 11 4 -3
BITMAP
FE
FE
C6
C6
0C
0C
18
18
30
30
60
ENDCHAR
STARTCHAR 2088
ENCODING 8328
SWIDTH 600 0
DWIDTH 15 0
BBX 7 11 4 -3
BITMAP
38
FE
C6
C6
EE
7C
EE
C6
C6
EE
7C
ENDCHAR
STARTCHAR 2089
ENCODING 8329
SWIDTH 600 0
DWIDTH 15 0
BBX 9 11 3 -3
BITMAP
3E00
7F00
6300
E380
6300
7F00
3F00
0600
0C00
1C00
1800
ENDCHAR
STARTCHAR 20AB
ENCODING 8363
SWIDTH 600 0
DWIDTH 15 0
BBX 13 20 2 -2
BITMAP
00E0
00E0
07F8
07F8
00E0
00E0
7EE0
7FE0
F1E0
E0E0
E0E0
E0E0
E0E0
F1E0
FFE0
7EE0
1CE0
0000
FFE0
FFE0
ENDCHAR
STARTCHAR 20AC
ENCODING 8364
SWIDTH 600 0
DWIDTH 15 0
BBX 14 18 0 0
BITMAP
07E0
1FF8
1FF8
3C3C
381C
3800
FF80
FF80
3800
3800
FF80
FF80
3800
381C
3C3C
1FF8
1FF8
07E0
ENDCHAR
STARTCHAR 20AE
ENCODING 8366
SWIDTH 600 0
DWIDTH 15 0
BBX 13 18 1 0
BITMAP
FFF8
FFF8
FFF8
0700
0700
0710
07F0
0FF0
7F80
7F00
4770
07F0
3FE0
7F00
7700
0700
0700
0700
ENDCHAR
STARTCHAR 20BD
ENCODING 8381
SWIDTH 600 0
DWIDTH 15 0
BBX 13 18 1 0
BITMAP
7FC0
7FF0
78F8
7878
7838
7838
7878
78F8
FFF0
FFE0
7800
7800
FFC0
FFC0
FFC0
7800
7800
7800
ENDCHAR
STARTCHAR 2113
ENCODING 8467
SWIDTH 600 0
DWIDTH 15 0
BBX 11 18 2 0
BITMAP
1F80
3FC0
3DE0
38E0
38E0
38E0
38E0
39C0
3FC0
3F80
FE00
F800
F800
3800
3880
3FE0
1FC0
0F80
ENDCHAR
STARTCHAR 2115
ENCODING 8469
SWIDTH 600 0
DWIDTH 15 0
BBX 11 18 2 0
BITMAP
F020
9020
C820
C820
AC20
A420
B420
9220
9A20
8920
8920
85A0
84A0
82E0
8260
8360
8120
81E0
ENDCHAR
STARTCHAR 2116
ENCODING 8470
SWIDTH 600 0
DWIDTH 15 0
BBX 14 18 1 0
BITMAP
E778
E76C
E76C
F76C
F76C
F76C
F76C
F76C
DB6C
DB78
DB00
DB00
CF00
CF00
CF00
CF00
C700
C700
ENDCHAR
STARTCHAR 2122
ENCODING 8482
SWIDTH 600 0
DWIDTH 15 0
BBX 14 9 0 9
BITMAP
FECC
10CC
10F4
10B4
10B4
1084
1084
1084
1084
ENDCHAR
STARTCHAR 212E
ENCODING 8494
SWIDTH 600 0
DWIDTH 15 0
BBX 12 18 1 0
BITMAP
1FC0
3060
6030
6030
6030
6030
E030
E030
FFF0
E000
E000
E000
6000
6000
6010
6030
3060
1F80
ENDCHAR
STARTCHAR 2190
ENCODING 8592
SWIDTH 600 0
DWIDTH 15 0
BBX 13 15 1 1
BITMAP
0300
0700
0E00
1C00
1800
3000
6000
FFF8
7FF8
7000
3800
1C00
0C00
0E00
0700
ENDCHAR
STARTCHAR 2191
ENCODING 8593
SWIDTH 600 0
DWIDTH 15 0
BBX 15 18 0 0
BITMAP
0380
07C0
0FE0
1FF0
3BB8
F39E
C386
8382
0380
0380
0380
0380
0380
0380
0380
0380
0380
0380
ENDCHAR
STARTCHAR 2192
ENCODING 8594
SWIDTH 600 0
DWIDTH 15 0
BBX 13 15 1 1
BITMAP
0700
0300
0380
01C0
00E0
0060
0030
FFF8
FFF8
0070
00E0
00C0
01C0
0380
0700
ENDCHAR
STARTCHAR 2193
ENCODING 8595
SWIDTH 600 0
DWIDTH 15 0
BBX 15 18 0 0
BITMAP
0380
0380
0380
0380
0380
0380
0380
0380
0380
0380
8382
E38E
739C
3BB8
1FF0
0FE0
07C0
0100
ENDCHAR
STARTCHAR 2194
ENCODING 8596
SWIDTH 600 0
DWIDTH 15 0
BBX 19 15 -2 1
BITMAP
031800
071C00
0E0E00
1C0700
180300
300180
6000C0
FFFFE0
7FFFC0
7001C0
380380
1C0700
0C0600
0E0E00
071C00
ENDCHAR
STARTCHAR 2195
ENCODING 8597
SWIDTH 600 0
DWIDTH 15 0
BBX 15 26 0 -4
BITMAP
0380
07C0
0FE0
1FF0
3BB8
F39E
C386
8382
0380
0380
0380
0380
0380
0380
0380
0380
0380
0380
8382
E38E
739C
3BB8
1FF0
0FE0
07C0
0100
ENDCHAR
STARTCHAR 2196
ENCODING 8598
SWIDTH 600 0
DWIDTH 15 0
BBX 14 13 1 2
BITMAP
FFC0
F000
F800
DC00
CE00
C700
C380
C1C0
C0E0
C070
0038
001C
0008
ENDCHAR
STARTCHAR 2197
ENCODING 8599
SWIDTH 600 0
DWIDTH 15 0
BBX 14 13 0 2
BITMAP
1FFC
003C
007C
00EC
01CC
038C
070C
0E0C
1C0C
380C
7000
E000
4000
ENDCHAR
STARTCHAR 2198
ENCODING 8600
SWIDTH 600 0
DWIDTH 15 0
BBX 13 13 1 2
BITMAP
C000
E000
7000
3818
1C18
0E18
0718
0398
01D8
00F8
0078
3FF8
3FF8
ENDCHAR
STARTCHAR 2199
ENCODING 8601
SWIDTH 600 0
DWIDTH 15 0
BBX 13 13 1 2
BITMAP
0018
0038
0070
C0E0
C1C0
C380
C700
CE00
DC00
D800
F000
FFC0
FFC0
ENDCHAR
STARTCHAR 2200
ENCODING 8704
SWIDTH 600 0
DWIDTH 15 0
BBX 13 18 1 0
BITMAP
E038
E038
7070
7070
7FF0
7FF0
3FE0
38E0
38E0
38E0
1DC0
1DC0
1DC0
1DC0
0D80
0F80
0F80
0F80
ENDCHAR
STARTCHAR 2202
ENCODING 8706
SWIDTH 600 0
DWIDTH 15 0
BBX 11 18 2 0
BITMAP
3E00
0F00
0780
03C0
01C0
00E0
3EE0
7FE0
F1E0
E0E0
E0E0
E0E0
E0E0
E0E0
E0E0
FBE0
7FC0
3F80
ENDCHAR
STARTCHAR 2203
ENCODING 8707
SWIDTH 600 0
DWIDTH 15 0
BBX 11 18 2 0
BITMAP
FFE0
FFE0
FFE0
00E0
00E0
00E0
00E0
7FE0
7FE0
7FE0
00E0
00E0
00E0
00E0
00E0
FFE0
FFE0
FFE0
ENDCHAR
STARTCHAR 2208
ENCODING 8712
SWIDTH 600 0
DWIDTH 15 0
BBX 13 14 1 2
BITMAP
3FF8
7FF8
F800
E000
E000
E000
FFF8
FFF8
E000
E000
E000
F800
7FF8
3FF8
ENDCHAR
STARTCHAR 2209
ENCODING 8713
SWIDTH 600 0
DWIDTH 15 0
BBX 13 20 1 -1
BITMAP
0060
00C0
00C0
3FF8
7FF8
F980
E180
E300
E300
FFF8
FFF8
E600
E600
EC00
FC00
7FF8
3FF8
1800
1800
3000
ENDCHAR
STARTCHAR 220B
ENCODING 8715
SWIDTH 600 0
DWIDTH 15 0
BBX 13 14 1 2
BITMAP
FFE0
FFF0
00F8
0038
0038
0038
FFF8
FFF8
0038
0038
0038
00F8
FFF0
FFE0
ENDCHAR
STARTCHAR 220C
ENCODING 8716
SWIDTH 600 0
DWIDTH 15 0
BBX 13 20 1 -1
BITMAP
0060
00C0
00C0
FFE0
FFF0
01F8
01B8
0338
0338
FFF8
FFF8
0638
0638
0C38
0CF8
FFF0
FFE0
1800
1800
3000
ENDCHAR
STARTCHAR 220F
ENCODING 8719
SWIDTH 600 0
DWIDTH 15 0
BBX 13 22 1 -4
BITMAP
FFF8
FFF8
FFF8
7070
7070
7070
7070
7070
7070
7070
7070
7070
7070
7070
7070
7070
7070
7070
7070
7070
7070
7070
ENDCHAR
STARTCHAR 2210
ENCODING 8720
SWIDTH 600 0
DWIDTH 15 0
BBX 13 22 1 -4
BITMAP
7070
7070
7070
7070
7070
7070
7070
7070
7070
7070
7070
7070
7070
7070
7070
7070
7070
7070
7070
7070
FFF8
FFF8
ENDCHAR
STARTCHAR 2211
ENCODING 8721
SWIDTH 600 0
DWIDTH 15 0
BBX 12 22 1 -4
BITMAP
FFF0
FFF0
FFF0
7800
3C00
1E00
0F00
0780
0780
03C0
01C0
01C0
01C0
03C0
0780
0F00
1E00
3C00
7800
F000
FFF0
FFF0
ENDCHAR
STARTCHAR 2212
ENCODING 8722
SWIDTH 600 0
DWIDTH 15 0
BBX 11 3 2 7
BITMAP
FFE0
FFE0
FFE0
ENDCHAR
STARTCHAR 2215
ENCODING 8725
SWIDTH 600 0
DWIDTH 15 0
BBX 11 18 2 0
BITMAP
0060
00C0
00C0
0180
0180
0300
0300
0600
0600
0C00
0C00
1800
1800
3000
3000
6000
6000
C000
ENDCHAR
STARTCHAR 2219
ENCODING 8729
SWIDTH 600 0
DWIDTH 15 0
BBX 5 4 5 6
BITMAP
70
F8
F8
70
ENDCHAR
STARTCHAR 221A
ENCODING 8730
SWIDTH 600 0
DWIDTH 15 0
BBX 15 18 0 0
BITMAP
000E
001C
001C
001C
F81C
F838
FC38
1C38
1C70
0C70
0E70
0E60
0EE0
06E0
07E0
07C0
07C0
03C0
ENDCHAR
STARTCHAR 221E
ENCODING 8734
SWIDTH 600 0
DWIDTH 15 0
BBX 13 9 1 4
BITMAP
1060
7CF8
EFB8
C718
C718
C318
C718
FDF8
78F0
ENDCHAR
STARTCHAR 2223
ENCODING 8739
SWIDTH 600 0
DWIDTH 15 0
BBX 3 18 6 0
BITMAP
E0
E0
E0
E0
E0
E0
E0
E0
E0
E0
E0
E0
E0
E0
E0
E0
E0
E0
ENDCHAR
STARTCHAR 2225
ENCODING 8741
SWIDTH 600 0
DWIDTH 15 0
BBX 9 18 3 0
BITMAP
E380
E380
E380
E380
E380
E380
E380
E380
E380
E380
E380
E380
E380
E380
E380
E380
E380
E380
ENDCHAR
STARTCHAR 2227
ENCODING 8743
SWIDTH 600 0
DWIDTH 15 0
BBX 13 13 1 1
BITMAP
0F80
0F80
0F80
1DC0
1DC0
1DC0
39E0
38E0
38E0
7070
7070
F078
E038
ENDCHAR
STARTCHAR 2228
ENCODING 8744
SWIDTH 600 0
DWIDTH 15 0
BBX 13 13 1 1
BITMAP
E038
F078
7070
7070
38E0
38E0
38E0
1DC0
1DC0
1DC0
0F80
0F80
0F80
ENDCHAR
STARTCHAR 222B
ENCODING 8747
SWIDTH 600 0
DWIDTH 15 0
BBX 14 22 0 -4
BITMAP
01FC
03FC
07C0
0700
0700
0700
0700
0700
0700
0700
0700
0700
0700
0700
0700
0700
0700
0700
0700
1F00
FE00
FC00
ENDCHAR
STARTCHAR 2237
ENCODING 8759
SWIDTH 600 0
DWIDTH 15 0
BBX 13 13 1 0
BITMAP
3060
78F0
F8F8
F8F8
7070
0000
0000
0000
0000
7070
F8F8
F8F8
7070
ENDCHAR
STARTCHAR 223C
ENCODING 8764
SWIDTH 600 0
DWIDTH 15 0
BBX 13 6 1 6
BITMAP
3800
7E38
FF38
E7B8
E3F0
E1E0
ENDCHAR
STARTCHAR 2248
ENCODING 8776
SWIDTH 600 0
DWIDTH 15 0
BBX 13 12 1 2
BITMAP
3C38
7E38
E738
E7F8
E3F0
00C0
3C38
7E38
EF38
E7F8
E3F0
00E0
ENDCHAR
STARTCHAR 2249
ENCODING 8777
SWIDTH 600 0
DWIDTH 15 0
BBX 13 20 1 -1
BITMAP
0060
00C0
00C0
00C0
0180
3DB8
7FB8
E738
E7F8
E3F0
06C0
3E38
7E38
EF38
EFF8
EFF0
18E0
1800
1800
3000
ENDCHAR
STARTCHAR 2260
ENCODING 8800
SWIDTH 600 0
DWIDTH 15 0
BBX 11 20 2 -1
BITMAP
00C0
0180
0180
0180
0300
0300
FFE0
FFE0
FFE0
0600
0C00
0C00
FFE0
FFE0
FFE0
1800
3000
3000
3000
6000
ENDCHAR
STARTCHAR 2261
ENCODING 8801
SWIDTH 600 0
DWIDTH 15 0
BBX 11 12 2 2
BITMAP
FFE0
FFE0
0000
0000
0000
FFE0
FFE0
0000
0000
FFE0
FFE0
FFE0
ENDCHAR
STARTCHAR 2264
ENCODING 8804
SWIDTH 600 0
DWIDTH 15 0
BBX 11 18 2 0
BITMAP
0020
00E0
07E0
1F80
7E00
F800
E000
F000
7E00
1F80
07E0
01E0
0060
0000
0000
FFE0
FFE0
FFE0
ENDCHAR
STARTCHAR 2265
ENCODING 8805
SWIDTH 600 0
DWIDTH 15 0
BBX 11 18 2 0
BITMAP
8000
E000
FC00
3F00
0FC0
03E0
00E0
01E0
0FC0
3F00
FC00
F000
C000
0000
0000
FFE0
FFE0
FFE0
ENDCHAR
STARTCHAR 2282
ENCODING 8834
SWIDTH 600 0
DWIDTH 15 0
BBX 13 12 1 3
BITMAP
1FF8
7FF8
FFF8
F000
E000
E000
E000
E000
F000
FFF8
7FF8
1FF8
ENDCHAR
STARTCHAR 2283
ENCODING 8835
SWIDTH 600 0
DWIDTH 15 0
BBX 13 12 1 3
BITMAP
FFC0
FFF0
FFF8
0078
0038
0038
0038
0038
0078
FFF8
FFF0
FFC0
ENDCHAR
STARTCHAR 2284
ENCODING 8836
SWIDTH 600 0
DWIDTH 15 0
BBX 13 20 1 -1
BITMAP
0060
00C0
00C0
00C0
1FF8
7FF8
FFF8
F300
E300
E300
E600
E600
F600
FFF8
7FF8
1FF8
1800
1800
1800
3000
ENDCHAR
STARTCHAR 2285
ENCODING 8837
SWIDTH 600 0
DWIDTH 15 0
BBX 13 20 1 -1
BITMAP
0060
00C0
00C0
00C0
FFC0
FFF0
FFF8
0378
0338
0338
0638
0638
0678
FFF8
FFF0
FFC0
1800
1800
1800
3000
ENDCHAR
STARTCHAR 2286
ENCODING 8838
SWIDTH 600 0
DWIDTH 15 0
BBX 13 17 1 0
BITMAP
3FF8
7FF8
FFF8
E000
E000
E000
E000
E000
F000
7FF8
7FF8
1FF8
0000
0000
FFF8
FFF8
FFF8
ENDCHAR
STARTCHAR 2287
ENCODING 8839
SWIDTH 600 0
DWIDTH 15 0
BBX 13 17 1 0
BITMAP
FFE0
FFF0
FFF8
0038
0038
0038
0038
0038
0078
FFF0
FFF0
FFC0
0000
0000
FFF8
FFF8
FFF8
ENDCHAR
STARTCHAR 2374
ENCODING 9076
SWIDTH 600 0
DWIDTH 15 0
BBX 11 18 2 -4
BITMAP
1F00
7FC0
7FE0
F1E0
E0E0
E0E0
E0E0
E0E0
E0E0
E0E0
E0E0
FBE0
FFC0
EF80
E000
E000
E000
E000
ENDCHAR
STARTCHAR 23FB
ENCODING 9211
SWIDTH 600 0
DWIDTH 15 0
BBX 15 18 0 0
BITMAP
0380
0380
0380
0380
3398
739C
739E
E38E
E38E
C386
C386
E386
E00E
E00E
701C
7C7C
3FF8
0FE0
ENDCHAR
STARTCHAR 23FC
ENCODING 9212
SWIDTH 600 0
DWIDTH 15 0
BBX 15 15 0 0
BITMAP
0FE0
3FF8
783C
701C
E38E
C386
C386
C386
C386
E38E
E38E
701C
7C7C
3FF8
0FE0
ENDCHAR
STARTCHAR 23FD
ENCODING 9213
SWIDTH 600 0
DWIDTH 15 0
BBX 3 15 6 0
BITMAP
E0
E0
E0
E0
E0
E0
E0
E0
E0
E0
E0
E0
E0
E0
E0
ENDCHAR
STARTCHAR 23FE
ENCODING 9214
SWIDTH 600 0
DWIDTH 15 0
BBX 15 14 0 1
BITMAP
1000
3000
7000
7000
F000
F000
F800
F800
FC00
7F00
7FE6
3FFC
1FF8
07E0
ENDCHAR
STARTCHAR 2500
ENCODING 9472
SWIDTH 600 0
DWIDTH 15 0
BBX 15 2 0 8
BITMAP
FFFE
FFFE
ENDCHAR
STARTCHAR 2501
ENCODING 9473
SWIDTH 600 0
DWIDTH 15 0
BBX 15 5 0 6
BITMAP
FFFE
FFFE
FFFE
FFFE
FFFE
ENDCHAR
STARTCHAR 2502
ENCODING 9474
SWIDTH 600 0
DWIDTH 15 0
BBX 3 36 6 -9
BITMAP
E0
E0
E0
E0
E0
E0
E0
E0
E0
E0
E0
E0
E0
E0
E0
E0
E0
E0
E0
E0
E0
E0
E0
E0
E0
E0
E0
E0
E0
E0
E0
E0
E0
E0
E0
E0
ENDCHAR
STARTCHAR 2503
ENCODING 9475
SWIDTH 600 0
DWIDTH 15 0
BBX 5 33 5 -8
BITMAP
F8
F8
F8
F8
F8
F8
F8
F8
F8
F8
F8
F8
F8
F8
F8
F8
F8
F8
F8
F8
F8
F8
F8
F8
F8
F8
F8
F8
F8
F8
F8
F8
F8
ENDCHAR
STARTCHAR 2504
ENCODING 9476
SWIDTH 600 0
DWIDTH 15 0
BBX 13 2 1 8
BITMAP
E738
E738
ENDCHAR
STARTCHAR 2505
ENCODING 9477
SWIDTH 600 0
DWIDTH 15 0
BBX 13 5 1 6
BITMAP
E738
E738
E738
E738
E738
ENDCHAR
STARTCHAR 2506
ENCODING 9478
SWIDTH 600 0
DWIDTH 15 0
BBX 3 29 6 -6
BITMAP
E0
E0
E0
E0
E0
E0
E0
E0
00
00
E0
E0
E0
E0
E0
E0
E0
E0
00
00
E0
E0
E0
E0
E0
E0
E0
E0
E0
ENDCHAR
STARTCHAR 2507
ENCODING 9479
SWIDTH 600 0
DWIDTH 15 0
BBX 5 29 5 -6
BITMAP
F8
F8
F8
F8
F8
F8
F8
F8
00
00
F8
F8
F8
F8
F8
F8
F8
F8
F8
00
00
F8
F8
F8
F8
F8
F8
F8
F8
ENDCHAR
STARTCHAR 2508
ENCODING 9480
SWIDTH 600 0
DWIDTH 15 0
BBX 13 2 1 8
BITMAP
DDD8
DDD8
ENDCHAR
STARTCHAR 2509
ENCODING 9481
SWIDTH 600 0
DWIDTH 15 0
BBX 13 5 1 6
BITMAP
DDD8
DDD8
DDD8
DDD8
DDD8
ENDCHAR
STARTCHAR 250A
ENCODING 9482
SWIDTH 600 0
DWIDTH 15 0
BBX 3 28 6 -5
BITMAP
E0
E0
E0
E0
E0
00
00
00
E0
E0
E0
E0
E0
00
00
E0
E0
E0
E0
E0
E0
00
00
E0
E0
E0
E0
E0
ENDCHAR
STARTCHAR 250B
ENCODING 9483
SWIDTH 600 0
DWIDTH 15 0
BBX 5 28 5 -5
BITMAP
F8
F8
F8
F8
F8
00
00
00
F8
F8
F8
F8
F8
00
00
F8
F8
F8
F8
F8
F8
00
00
F8
F8
F8
F8
F8
ENDCHAR
STARTCHAR 250C
ENCODING 9484
SWIDTH 600 0
DWIDTH 15 0
BBX 9 18 6 -8
BITMAP
FF80
FF80
E000
E000
E000
E000
E000
E000
E000
E000
E000
E000
E000
E000
E000
E000
E000
E000
ENDCHAR
STARTCHAR 250D
ENCODING 9485
SWIDTH 600 0
DWIDTH 15 0
BBX 9 19 6 -8
BITMAP
FF80
FF80
FF80
FF80
FF80
E000
E000
E000
E000
E000
E000
E000
E000
E000
E000
E000
E000
E000
E000
ENDCHAR
STARTCHAR 250E
ENCODING 9486
SWIDTH 600 0
DWIDTH 15 0
BBX 10 18 5 -8
BITMAP
FFC0
FFC0
F800
F800
F800
F800
F800
F800
F800
F800
F800
F800
F800
F800
F800
F800
F800
F800
ENDCHAR
STARTCHAR 250F
ENCODING 9487
SWIDTH 600 0
DWIDTH 15 0
BBX 10 19 5 -8
BITMAP
FFC0
FFC0
FFC0
FFC0
FFC0
F800
F800
F800
F800
F800
F800
F800
F800
F800
F800
F800
F800
F800
F800
ENDCHAR
STARTCHAR 2510
ENCODING 9488
SWIDTH 600 0
DWIDTH 15 0
BBX 9 18 0 -8
BITMAP
FF80
FF80
0380
0380
0380
0380
0380
0380
0380
0380
0380
0380
0380
0380
0380
0380
0380
0380
ENDCHAR
STARTCHAR 2511
ENCODING 9489
SWIDTH 600 0
DWIDTH 15 0
BBX 9 19 0 -8
BITMAP
FF80
FF80
FF80
FF80
FF80
0380
0380
0380
0380
0380
0380
0380
0380
0380
0380
0380
0380
0380
0380
ENDCHAR
STARTCHAR 2512
ENCODING 9490
SWIDTH 600 0
DWIDTH 15 0
BBX 10 18 0 -8
BITMAP
FFC0
FFC0
07C0
07C0
07C0
07C0
07C0
07C0
07C0
07C0
07C0
07C0
07C0
07C0
07C0
07C0
07C0
07C0
ENDCHAR
STARTCHAR 2513
ENCODING 9491
SWIDTH 600 0
DWIDTH 15 0
BBX 10 19 0 -8
BITMAP
FFC0
FFC0
FFC0
FFC0
FFC0
07C0
07C0
07C0
07C0
07C0
07C0
07C0
07C0
07C0
07C0
07C0
07C0
07C0
07C0
ENDCHAR
STARTCHAR 2514
ENCODING 9492
SWIDTH 600 0
DWIDTH 15 0
BBX 9 17 6 8
BITMAP
E000
E000
E000
E000
E000
E000
E000
E000
E000
E000
E000
E000
E000
E000
E000
FF80
FF80
ENDCHAR
STARTCHAR 2515
ENCODING 9493
SWIDTH 600 0
DWIDTH 15 0
BBX 9 19 6 6
BITMAP
E000
E000
E000
E000
E000
E000
E000
E000
E000
E000
E000
E000
E000
E000
FF80
FF80
FF80
FF80
FF80
ENDCHAR
STARTCHAR 2516
ENCODING 9494
SWIDTH 600 0
DWIDTH 15 0
BBX 10 17 5 8
BITMAP
F800
F800
F800
F800
F800
F800
F800
F800
F800
F800
F800
F800
F800
F800
F800
FFC0
FFC0
ENDCHAR
STARTCHAR 2517
ENCODING 9495
SWIDTH 600 0
DWIDTH 15 0
BBX 10 19 5 6
BITMAP
F800
F800
F800
F800
F800
F800
F800
F800
F800
F800
F800
F800
F800
F800
FFC0
FFC0
FFC0
FFC0
FFC0
ENDCHAR
STARTCHAR 2518
ENCODING 9496
SWIDTH 600 0
DWIDTH 15 0
BBX 9 17 0 8
BITMAP
0380
0380
0380
0380
0380
0380
0380
0380
0380
0380
0380
0380
0380
0380
0380
FF80
FF80
ENDCHAR
STARTCHAR 2519
ENCODING 9497
SWIDTH 600 0
DWIDTH 15 0
BBX 9 19 0 6
BITMAP
0380
0380
0380
0380
0380
0380
0380
0380
0380
0380
0380
0380
0380
0380
FF80
FF80
FF80
FF80
FF80
ENDCHAR
STARTCHAR 251A
ENCODING 9498
SWIDTH 600 0
DWIDTH 15 0
BBX 10 17 0 8
BITMAP
07C0
07C0
07C0
07C0
07C0
07C0
07C0
07C0
07C0
07C0
07C0
07C0
07C0
07C0
07C0
FFC0
FFC0
ENDCHAR
STARTCHAR 251B
ENCODING 9499
SWIDTH 600 0
DWIDTH 15 0
BBX 10 19 0 6
BITMAP
07C0
07C0
07C0
07C0
07C0
07C0
07C0
07C0
07C0
07C0
07C0
07C0
07C0
07C0
FFC0
FFC0
FFC0
FFC0
FFC0
ENDCHAR
STARTCHAR 251C
ENCODING 9500
SWIDTH 600 0
DWIDTH 15 0
BBX 9 33 6 -8
BITMAP
E000
E000
E000
E000
E000
E000
E000
E000
E000
E000
E000
E000
E000
E000
E000
FF80
FF80
E000
E000
E000
E000
E000
E000
E000
E000
E000
E000
E000
E000
E000
E000
E000
E000
ENDCHAR
STARTCHAR 251D
ENCODING 9501
SWIDTH 600 0
DWIDTH 15 0
BBX 9 33 6 -8
BITMAP
E000
E000
E000
E000
E000
E000
E000
E000
E000
E000
E000
E000
E000
E000
FF80
FF80
FF80
FF80
FF80
E000
E000
E000
E000
E000
E000
E000
E000
E000
E000
E000
E000
E000
E000
ENDCHAR
STARTCHAR 251E
ENCODING 9502
SWIDTH 600 0
DWIDTH 15 0
BBX 10 33 5 -8
BITMAP
F800
F800
F800
F800
F800
F800
F800
F800
F800
F800
F800
F800
F800
F800
F800
FFC0
FFC0
7000
7000
7000
7000
7000
7000
7000
7000
7000
7000
7000
7000
7000
7000
7000
7000
ENDCHAR
STARTCHAR 251F
ENCODING 9503
SWIDTH 600 0
DWIDTH 15 0
BBX 10 33 5 -8
BITMAP
7000
7000
7000
7000
7000
7000
7000
7000
7000
7000
7000
7000
7000
7000
7000
FFC0
FFC0
F800
F800
F800
F800
F800
F800
F800
F800
F800
F800
F800
F800
F800
F800
F800
F800
ENDCHAR
STARTCHAR 2520
ENCODING 9504
SWIDTH 600 0
DWIDTH 15 0
BBX 10 33 5 -8
BITMAP
F800
F800
F800
F800
F800
F800
F800
F800
F800
F800
F800
F800
F800
F800
F800
FFC0
FFC0
F800
F800
F800
F800
F800
F800
F800
F800
F800
F800
F800
F800
F800
F800
F800
F800
ENDCHAR
STARTCHAR 2521
ENCODING 9505
SWIDTH 600 0
DWIDTH 15 0
BBX 10 33 5 -8
BITMAP
F800
F800
F800
F800
F800
F800
F800
F800
F800
F800
F800
F800
F800
F800
FFC0
FFC0
FFC0
FFC0
FFC0
7000
7000
7000
7000
7000
7000
7000
7000
7000
7000
7000
7000
7000
7000
ENDCHAR
STARTCHAR 2522
ENCODING 9506
SWIDTH 600 0
DWIDTH 15 0
BBX 10 33 5 -8
BITMAP
7000
7000
7000
7000
7000
7000
7000
7000
7000
7000
7000
7000
7000
7000
FFC0
FFC0
FFC0
FFC0
FFC0
F800
F800
F800
F800
F800
F800
F800
F800
F800
F800
F800
F800
F800
F800
ENDCHAR
STARTCHAR 2523
ENCODING 9507
SWIDTH 600 0
DWIDTH 15 0
BBX 10 33 5 -8
BITMAP
F800
F800
F800
F800
F800
F800
F800
F800
F800
F800
F800
F800
F800
F800
FFC0
FFC0
FFC0
FFC0
FFC0
F800
F800
F800
F800
F800
F800
F800
F800
F800
F800
F800
F800
F800
F800
ENDCHAR
STARTCHAR 2524
ENCODING 9508
SWIDTH 600 0
DWIDTH 15 0
BBX 9 33 0 -8
BITMAP
0380
0380
0380
0380
0380
0380
0380
0380
0380
0380
0380
0380
0380
0380
0380
FF80
FF80
0380
0380
0380
0380
0380
0380
0380
0380
0380
0380
0380
0380
0380
0380
0380
0380
ENDCHAR
STARTCHAR 2525
ENCODING 9509
SWIDTH 600 0
DWIDTH 15 0
BBX 9 33 0 -8
BITMAP
0380
0380
0380
0380
0380
0380
0380
0380
0380
0380
0380
0380
0380
0380
FF80
FF80
FF80
FF80
FF80
0380
0380
0380
0380
0380
0380
0380
0380
0380
0380
0380
0380
0380
0380
ENDCHAR
STARTCHAR 2526
ENCODING 9510
SWIDTH 600 0
DWIDTH 15 0
BBX 10 33 0 -8
BITMAP
07C0
07C0
07C0
07C0
07C0
07C0
07C0
07C0
07C0
07C0
07C0
07C0
07C0
07C0
07C0
FFC0
FFC0
0380
0380
0380
0380
0380
0380
0380
0380
0380
0380
0380
0380
0380
0380
0380
0380
ENDCHAR
STARTCHAR 2527
ENCODING 9511
SWIDTH 600 0
DWIDTH 15 0
BBX 10 33 0 -8
BITMAP
0380
0380
0380
0380
0380
0380
0380
0380
0380
0380
0380
0380
0380
0380
0380
FFC0
FFC0
07C0
07C0
07C0
07C0
07C0
07C0
07C0
07C0
07C0
07C0
07C0
07C0
07C0
07C0
07C0
07C0
ENDCHAR
STARTCHAR 2528
ENCODING 9512
SWIDTH 600 0
DWIDTH 15 0
BBX 10 33 0 -8
BITMAP
07C0
07C0
07C0
07C0
07C0
07C0
07C0
07C0
07C0
07C0
07C0
07C0
07C0
07C0
07C0
FFC0
FFC0
07C0
07C0
07C0
07C0
07C0
07C0
07C0
07C0
07C0
07C0
07C0
07C0
07C0
07C0
07C0
07C0
ENDCHAR
STARTCHAR 2529
ENCODING 9513
SWIDTH 600 0
DWIDTH 15 0
BBX 10 33 0 -8
BITMAP
07C0
07C0
07C0
07C0
07C0
07C0
07C0
07C0
07C0
07C0
07C0
07C0
07C0
07C0
FFC0
FFC0
FFC0
FFC0
FFC0
0380
0380
0380
0380
0380
0380
0380
0380
0380
0380
0380
0380
0380
0380
ENDCHAR
STARTCHAR 252A
ENCODING 9514
SWIDTH 600 0
DWIDTH 15 0
BBX 10 33 0 -8
BITMAP
0380
0380
0380
0380
0380
0380
0380
0380
0380
0380
0380
0380
0380
0380
FFC0
FFC0
FFC0
FFC0
FFC0
07C0
07C0
07C0
07C0
07C0
07C0
07C0
07C0
07C0
07C0
07C0
07C0
07C0
07C0
ENDCHAR
STARTCHAR 252B
ENCODING 9515
SWIDTH 600 0
DWIDTH 15 0
BBX 10 33 0 -8
BITMAP
07C0
07C0
07C0
07C0
07C0
07C0
07C0
07C0
07C0
07C0
07C0
07C0
07C0
07C0
FFC0
FFC0
FFC0
FFC0
FFC0
07C0
07C0
07C0
07C0
07C0
07C0
07C0
07C0
07C0
07C0
07C0
07C0
07C0
07C0
ENDCHAR
STARTCHAR 252C
ENCODING 9516
SWIDTH 600 0
DWIDTH 15 0
BBX 15 18 0 -8
BITMAP
FFFE
FFFE
0380
0380
0380
0380
0380
0380
0380
0380
0380
0380
0380
0380
0380
0380
0380
0380
ENDCHAR
STARTCHAR 252D
ENCODING 9517
SWIDTH 600 0
DWIDTH 15 0
BBX 15 19 0 -8
BITMAP
FF80
FFFE
FFFE
FF80
FF80
0380
0380
0380
0380
0380
0380
0380
0380
0380
0380
0380
0380
0380
0380
ENDCHAR
STARTCHAR 252E
ENCODING 9518
SWIDTH 600 0
DWIDTH 15 0
BBX 15 19 0 -8
BITMAP
03FE
FFFE
FFFE
03FE
03FE
0380
0380
0380
0380
0380
0380
0380
0380
0380
0380
0380
0380
0380
0380
ENDCHAR
STARTCHAR 252F
ENCODING 9519
SWIDTH 600 0
DWIDTH 15 0
BBX 15 19 0 -8
BITMAP
FFFE
FFFE
FFFE
FFFE
FFFE
0380
0380
0380
0380
0380
0380
0380
0380
0380
0380
0380
0380
0380
0380
ENDCHAR
STARTCHAR 2530
ENCODING 9520
SWIDTH 600 0
DWIDTH 15 0
BBX 15 18 0 -8
BITMAP
FFFE
FFFE
07C0
07C0
07C0
07C0
07C0
07C0
07C0
07C0
07C0
07C0
07C0
07C0
07C0
07C0
07C0
07C0
ENDCHAR
STARTCHAR 2531
ENCODING 9521
SWIDTH 600 0
DWIDTH 15 0
BBX 15 19 0 -8
BITMAP
FFC0
FFFE
FFFE
FFC0
FFC0
07C0
07C0
07C0
07C0
07C0
07C0
07C0
07C0
07C0
07C0
07C0
07C0
07C0
07C0
ENDCHAR
STARTCHAR 2532
ENCODING 9522
SWIDTH 600 0
DWIDTH 15 0
BBX 15 19 0 -8
BITMAP
07FE
FFFE
FFFE
07FE
07FE
07C0
07C0
07C0
07C0
07C0
07C0
07C0
07C0
07C0
07C0
07C0
07C0
07C0
07C0
ENDCHAR
STARTCHAR 2533
ENCODING 9523
SWIDTH 600 0
DWIDTH 15 0
BBX 15 19 0 -8
BITMAP
FFFE
FFFE
FFFE
FFFE
FFFE
07C0
07C0
07C0
07C0
07C0
07C0
07C0
07C0
07C0
07C0
07C0
07C0
07C0
07C0
ENDCHAR
STARTCHAR 2534
ENCODING 9524
SWIDTH 600 0
DWIDTH 15 0
BBX 15 17 0 8
BITMAP
0380
0380
0380
0380
0380
0380
0380
0380
0380
0380
0380
0380
0380
0380
0380
FFFE
FFFE
ENDCHAR
STARTCHAR 2535
ENCODING 9525
SWIDTH 600 0
DWIDTH 15 0
BBX 15 19 0 6
BITMAP
0380
0380
0380
0380
0380
0380
0380
0380
0380
0380
0380
0380
0380
0380
FF80
FFFE
FFFE
FF80
FF80
ENDCHAR
STARTCHAR 2536
ENCODING 9526
SWIDTH 600 0
DWIDTH 15 0
BBX 15 19 0 6
BITMAP
0380
0380
0380
0380
0380
0380
0380
0380
0380
0380
0380
0380
0380
0380
03FE
FFFE
FFFE
03FE
03FE
ENDCHAR
STARTCHAR 2537
ENCODING 9527
SWIDTH 600 0
DWIDTH 15 0
BBX 15 19 0 6
BITMAP
0380
0380
0380
0380
0380
0380
0380
0380
0380
0380
0380
0380
0380
0380
FFFE
FFFE
FFFE
FFFE
FFFE
ENDCHAR
STARTCHAR 2538
ENCODING 9528
SWIDTH 600 0
DWIDTH 15 0
BBX 15 17 0 8
BITMAP
07C0
07C0
07C0
07C0
07C0
07C0
07C0
07C0
07C0
07C0
07C0
07C0
07C0
07C0
07C0
FFFE
FFFE
ENDCHAR
STARTCHAR 2539
ENCODING 9529
SWIDTH 600 0
DWIDTH 15 0
BBX 15 19 0 6
BITMAP
07C0
07C0
07C0
07C0
07C0
07C0
07C0
07C0
07C0
07C0
07C0
07C0
07C0
07C0
FFC0
FFFE
FFFE
FFC0
FFC0
ENDCHAR
STARTCHAR 253A
ENCODING 9530
SWIDTH 600 0
DWIDTH 15 0
BBX 15 19 0 6
BITMAP
07C0
07C0
07C0
07C0
07C0
07C0
07C0
07C0
07C0
07C0
07C0
07C0
07C0
07C0
07FE
FFFE
FFFE
07FE
07FE
ENDCHAR
STARTCHAR 253B
ENCODING 9531
SWIDTH 600 0
DWIDTH 15 0
BBX 15 19 0 6
BITMAP
07C0
07C0
07C0
07C0
07C0
07C0
07C0
07C0
07C0
07C0
07C0
07C0
07C0
07C0
FFFE
FFFE
FFFE
FFFE
FFFE
ENDCHAR
STARTCHAR 253C
ENCODING 9532
SWIDTH 600 0
DWIDTH 15 0
BBX 15 33 0 -8
BITMAP
0380
0380
0380
0380
0380
0380
0380
0380
0380
0380
0380
0380
0380
0380
0380
FFFE
FFFE
0380
0380
0380
0380
0380
0380
0380
0380
0380
0380
0380
0380
0380
0380
0380
0380
ENDCHAR
STARTCHAR 253D
ENCODING 9533
SWIDTH 600 0
DWIDTH 15 0
BBX 15 33 0 -8
BITMAP
0380
0380
0380
0380
0380
0380
0380
0380
0380
0380
0380
0380
0380
0380
FF80
FFFE
FFFE
FF80
FF80
0380
0380
0380
0380
0380
0380
0380
0380
0380
0380
0380
0380
0380
0380
ENDCHAR
STARTCHAR 253E
ENCODING 9534
SWIDTH 600 0
DWIDTH 15 0
BBX 15 33 0 -8
BITMAP
0380
0380
0380
0380
0380
0380
0380
0380
0380
0380
0380
0380
0380
0380
03FE
FFFE
FFFE
03FE
03FE
0380
0380
0380
0380
0380
0380
0380
0380
0380
0380
0380
0380
0380
0380
ENDCHAR
STARTCHAR 253F
ENCODING 9535
SWIDTH 600 0
DWIDTH 15 0
BBX 15 33 0 -8
BITMAP
0380
0380
0380
0380
0380
0380
0380
0380
0380
0380
0380
0380
0380
0380
FFFE
FFFE
FFFE
FFFE
FFFE
0380
0380
0380
0380
0380
0380
0380
0380
0380
0380
0380
0380
0380
0380
ENDCHAR
STARTCHAR 2540
ENCODING 9536
SWIDTH 600 0
DWIDTH 15 0
BBX 15 33 0 -8
BITMAP
07C0
07C0
07C0
07C0
07C0
07C0
07C0
07C0
07C0
07C0
07C0
07C0
07C0
07C0
07C0
FFFE
FFFE
0380
0380
0380
0380
0380
0380
0380
0380
0380
0380
0380
0380
0380
0380
0380
0380
ENDCHAR
STARTCHAR 2541
ENCODING 9537
SWIDTH 600 0
DWIDTH 15 0
BBX 15 33 0 -8
BITMAP
0380
0380
0380
0380
0380
0380
0380
0380
0380
0380
0380
0380
0380
0380
0380
FFFE
FFFE
07C0
07C0
07C0
07C0
07C0
07C0
07C0
07C0
07C0
07C0
07C0
07C0
07C0
07C0
07C0
07C0
ENDCHAR
STARTCHAR 2542
ENCODING 9538
SWIDTH 600 0
DWIDTH 15 0
BBX 15 33 0 -8
BITMAP
07C0
07C0
07C0
07C0
07C0
07C0
07C0
07C0
07C0
07C0
07C0
07C0
07C0
07C0
07C0
FFFE
FFFE
07C0
07C0
07C0
07C0
07C0
07C0
07C0
07C0
07C0
07C0
07C0
07C0
07C0
07C0
07C0
07C0
ENDCHAR
STARTCHAR 2543
ENCODING 9539
SWIDTH 600 0
DWIDTH 15 0
BBX 15 33 0 -8
BITMAP
07C0
07C0
07C0
07C0
07C0
07C0
07C0
07C0
07C0
07C0
07C0
07C0
07C0
07C0
FFC0
FFFE
FFFE
FFC0
FFC0
0380
0380
0380
0380
0380
0380
0380
0380
0380
0380
0380
0380
0380
0380
ENDCHAR
STARTCHAR 2544
ENCODING 9540
SWIDTH 600 0
DWIDTH 15 0
BBX 15 33 0 -8
BITMAP
07C0
07C0
07C0
07C0
07C0
07C0
07C0
07C0
07C0
07C0
07C0
07C0
07C0
07C0
07FE
FFFE
FFFE
07FE
07FE
0380
0380
0380
0380
0380
0380
0380
0380
0380
0380
0380
0380
0380
0380
ENDCHAR
STARTCHAR 2545
ENCODING 9541
SWIDTH 600 0
DWIDTH 15 0
BBX 15 33 0 -8
BITMAP
0380
0380
0380
0380
0380
0380
0380
0380
0380
0380
0380
0380
0380
0380
FFC0
FFFE
FFFE
FFC0
FFC0
07C0
07C0
07C0
07C0
07C0
07C0
07C0
07C0
07C0
07C0
07C0
07C0
07C0
07C0
ENDCHAR
STARTCHAR 2546
ENCODING 9542
SWIDTH 600 0
DWIDTH 15 0
BBX 15 33 0 -8
BITMAP
0380
0380
0380
0380
0380
0380
0380
0380
0380
0380
0380
0380
0380
0380
07FE
FFFE
FFFE
07FE
07FE
07C0
07C0
07C0
07C0
07C0
07C0
07C0
07C0
07C0
07C0
07C0
07C0
07C0
07C0
ENDCHAR
STARTCHAR 2547
ENCODING 9543
SWIDTH 600 0
DWIDTH 15 0
BBX 15 33 0 -8
BITMAP
07C0
07C0
07C0
07C0
07C0
07C0
07C0
07C0
07C0
07C0
07C0
07C0
07C0
07C0
FFFE
FFFE
FFFE
FFFE
FFFE
0380
0380
0380
0380
0380
0380
0380
0380
0380
0380
0380
0380
0380
0380
ENDCHAR
STARTCHAR 2548
ENCODING 9544
SWIDTH 600 0
DWIDTH 15 0
BBX 15 33 0 -8
BITMAP
0380
0380
0380
0380
0380
0380
0380
0380
0380
0380
0380
0380
0380
0380
FFFE
FFFE
FFFE
FFFE
FFFE
07C0
07C0
07C0
07C0
07C0
07C0
07C0
07C0
07C0
07C0
07C0
07C0
07C0
07C0
ENDCHAR
STARTCHAR 2549
ENCODING 9545
SWIDTH 600 0
DWIDTH 15 0
BBX 15 33 0 -8
BITMAP
07C0
07C0
07C0
07C0
07C0
07C0
07C0
07C0
07C0
07C0
07C0
07C0
07C0
07C0
FFC0
FFFE
FFFE
FFC0
FFC0
07C0
07C0
07C0
07C0
07C0
07C0
07C0
07C0
07C0
07C0
07C0
07C0
07C0
07C0
ENDCHAR
STARTCHAR 254A
ENCODING 9546
SWIDTH 600 0
DWIDTH 15 0
BBX 15 33 0 -8
BITMAP
07C0
07C0
07C0
07C0
07C0
07C0
07C0
07C0
07C0
07C0
07C0
07C0
07C0
07C0
07FE
FFFE
FFFE
07FE
07FE
07C0
07C0
07C0
07C0
07C0
07C0
07C0
07C0
07C0
07C0
07C0
07C0
07C0
07C0
ENDCHAR
STARTCHAR 254B
ENCODING 9547
SWIDTH 600 0
DWIDTH 15 0
BBX 15 33 0 -8
BITMAP
07C0
07C0
07C0
07C0
07C0
07C0
07C0
07C0
07C0
07C0
07C0
07C0
07C0
07C0
FFFE
FFFE
FFFE
FFFE
FFFE
07C0
07C0
07C0
07C0
07C0
07C0
07C0
07C0
07C0
07C0
07C0
07C0
07C0
07C0
ENDCHAR
STARTCHAR 254C
ENCODING 9548
SWIDTH 600 0
DWIDTH 15 0
BBX 11 2 2 8
BITMAP
F1E0
F1E0
ENDCHAR
STARTCHAR 254D
ENCODING 9549
SWIDTH 600 0
DWIDTH 15 0
BBX 11 5 2 6
BITMAP
F1E0
F1E0
F1E0
F1E0
F1E0
ENDCHAR
STARTCHAR 254E
ENCODING 9550
SWIDTH 600 0
DWIDTH 15 0
BBX 3 26 6 -4
BITMAP
E0
E0
E0
E0
E0
E0
E0
E0
E0
E0
E0
00
00
00
00
E0
E0
E0
E0
E0
E0
E0
E0
E0
E0
E0
ENDCHAR
STARTCHAR 254F
ENCODING 9551
SWIDTH 600 0
DWIDTH 15 0
BBX 5 26 5 -4
BITMAP
F8
F8
F8
F8
F8
F8
F8
F8
F8
F8
F8
00
00
00
00
00
F8
F8
F8
F8
F8
F8
F8
F8
F8
F8
ENDCHAR
STARTCHAR 2550
ENCODING 9552
SWIDTH 600 0
DWIDTH 15 0
BBX 15 8 0 5
BITMAP
FFFE
FFFE
FFFE
0000
0000
FFFE
FFFE
FFFE
ENDCHAR
STARTCHAR 2551
ENCODING 9553
SWIDTH 600 0
DWIDTH 15 0
BBX 7 33 4 -8
BITMAP
C6
C6
C6
C6
C6
C6
C6
C6
C6
C6
C6
C6
C6
C6
C6
C6
C6
C6
C6
C6
C6
C6
C6
C6
C6
C6
C6
C6
C6
C6
C6
C6
C6
ENDCHAR
STARTCHAR 2552
ENCODING 9554
SWIDTH 600 0
DWIDTH 15 0
BBX 9 21 6 -8
BITMAP
FF80
FF80
FF80
E000
E000
FF80
FF80
FF80
E000
E000
E000
E000
E000
E000
E000
E000
E000
E000
E000
E000
E000
ENDCHAR
STARTCHAR 2553
ENCODING 9555
SWIDTH 600 0
DWIDTH 15 0
BBX 11 18 4 -8
BITMAP
FFE0
FFE0
C600
C600
C600
C600
C600
C600
C600
C600
C600
C600
C600
C600
C600
C600
C600
C600
ENDCHAR
STARTCHAR 2554
ENCODING 9556
SWIDTH 600 0
DWIDTH 15 0
BBX 11 21 4 -8
BITMAP
FFE0
FFE0
FFE0
C000
C000
C7E0
C7E0
C7E0
C600
C600
C600
C600
C600
C600
C600
C600
C600
C600
C600
C600
C600
ENDCHAR
STARTCHAR 2555
ENCODING 9557
SWIDTH 600 0
DWIDTH 15 0
BBX 9 21 0 -8
BITMAP
FF80
FF80
FF80
0380
0380
FF80
FF80
FF80
0380
0380
0380
0380
0380
0380
0380
0380
0380
0380
0380
0380
0380
ENDCHAR
STARTCHAR 2556
ENCODING 9558
SWIDTH 600 0
DWIDTH 15 0
BBX 11 18 0 -8
BITMAP
FFE0
FFE0
0C60
0C60
0C60
0C60
0C60
0C60
0C60
0C60
0C60
0C60
0C60
0C60
0C60
0C60
0C60
0C60
ENDCHAR
STARTCHAR 2557
ENCODING 9559
SWIDTH 600 0
DWIDTH 15 0
BBX 11 21 0 -8
BITMAP
FFE0
FFE0
FFE0
0060
0060
FC60
FC60
FC60
0C60
0C60
0C60
0C60
0C60
0C60
0C60
0C60
0C60
0C60
0C60
0C60
0C60
ENDCHAR
STARTCHAR 2558
ENCODING 9560
SWIDTH 600 0
DWIDTH 15 0
BBX 9 20 6 5
BITMAP
E000
E000
E000
E000
E000
E000
E000
E000
E000
E000
E000
E000
FF80
FF80
FF80
E000
E000
FF80
FF80
FF80
ENDCHAR
STARTCHAR 2559
ENCODING 9561
SWIDTH 600 0
DWIDTH 15 0
BBX 11 17 4 8
BITMAP
C600
C600
C600
C600
C600
C600
C600
C600
C600
C600
C600
C600
C600
C600
C600
FFE0
FFE0
ENDCHAR
STARTCHAR 255A
ENCODING 9562
SWIDTH 600 0
DWIDTH 15 0
BBX 11 20 4 5
BITMAP
C600
C600
C600
C600
C600
C600
C600
C600
C600
C600
C600
C600
C7E0
C7E0
C7E0
C000
C000
FFE0
FFE0
FFE0
ENDCHAR
STARTCHAR 255B
ENCODING 9563
SWIDTH 600 0
DWIDTH 15 0
BBX 9 20 0 5
BITMAP
0380
0380
0380
0380
0380
0380
0380
0380
0380
0380
0380
0380
FF80
FF80
FF80
0380
0380
FF80
FF80
FF80
ENDCHAR
STARTCHAR 255C
ENCODING 9564
SWIDTH 600 0
DWIDTH 15 0
BBX 11 17 0 8
BITMAP
0C60
0C60
0C60
0C60
0C60
0C60
0C60
0C60
0C60
0C60
0C60
0C60
0C60
0C60
0C60
FFE0
FFE0
ENDCHAR
STARTCHAR 255D
ENCODING 9565
SWIDTH 600 0
DWIDTH 15 0
BBX 11 20 0 5
BITMAP
0C60
0C60
0C60
0C60
0C60
0C60
0C60
0C60
0C60
0C60
0C60
0C60
FC60
FC60
FC60
0060
0060
FFE0
FFE0
FFE0
ENDCHAR
STARTCHAR 255E
ENCODING 9566
SWIDTH 600 0
DWIDTH 15 0
BBX 9 33 6 -8
BITMAP
E000
E000
E000
E000
E000
E000
E000
E000
E000
E000
E000
E000
FF80
FF80
FF80
E000
E000
FF80
FF80
FF80
E000
E000
E000
E000
E000
E000
E000
E000
E000
E000
E000
E000
E000
ENDCHAR
STARTCHAR 255F
ENCODING 9567
SWIDTH 600 0
DWIDTH 15 0
BBX 11 33 4 -8
BITMAP
C600
C600
C600
C600
C600
C600
C600
C600
C600
C600
C600
C600
C600
C600
C600
C7E0
C7E0
C600
C600
C600
C600
C600
C600
C600
C600
C600
C600
C600
C600
C600
C600
C600
C600
ENDCHAR
STARTCHAR 2560
ENCODING 9568
SWIDTH 600 0
DWIDTH 15 0
BBX 11 33 4 -8
BITMAP
C600
C600
C600
C600
C600
C600
C600
C600
C600
C600
C600
C600
C7E0
C7E0
C7E0
C000
C000
C7E0
C7E0
C7E0
C600
C600
C600
C600
C600
C600
C600
C600
C600
C600
C600
C600
C600
ENDCHAR
STARTCHAR 2561
ENCODING 9569
SWIDTH 600 0
DWIDTH 15 0
BBX 9 33 0 -8
BITMAP
0380
0380
0380
0380
0380
0380
0380
0380
0380
0380
0380
0380
FF80
FF80
FF80
0380
0380
FF80
FF80
FF80
0380
0380
0380
0380
0380
0380
0380
0380
0380
0380
0380
0380
0380
ENDCHAR
STARTCHAR 2562
ENCODING 9570
SWIDTH 600 0
DWIDTH 15 0
BBX 11 33 0 -8
BITMAP
0C60
0C60
0C60
0C60
0C60
0C60
0C60
0C60
0C60
0C60
0C60
0C60
0C60
0C60
0C60
FC60
FC60
0C60
0C60
0C60
0C60
0C60
0C60
0C60
0C60
0C60
0C60
0C60
0C60
0C60
0C60
0C60
0C60
ENDCHAR
STARTCHAR 2563
ENCODING 9571
SWIDTH 600 0
DWIDTH 15 0
BBX 11 33 0 -8
BITMAP
0C60
0C60
0C60
0C60
0C60
0C60
0C60
0C60
0C60
0C60
0C60
0C60
FC60
FC60
FC60
0060
0060
FC60
FC60
FC60
0C60
0C60
0C60
0C60
0C60
0C60
0C60
0C60
0C60
0C60
0C60
0C60
0C60
ENDCHAR
STARTCHAR 2564
ENCODING 9572
SWIDTH 600 0
DWIDTH 15 0
BBX 15 21 0 -8
BITMAP
FFFE
FFFE
FFFE
0000
0000
FFFE
FFFE
FFFE
0380
0380
0380
0380
0380
0380
0380
0380
0380
0380
0380
0380
0380
ENDCHAR
STARTCHAR 2565
ENCODING 9573
SWIDTH 600 0
DWIDTH 15 0
BBX 15 18 0 -8
BITMAP
FFFE
FFFE
0C60
0C60
0C60
0C60
0C60
0C60
0C60
0C60
0C60
0C60
0C60
0C60
0C60
0C60
0C60
0C60
ENDCHAR
STARTCHAR 2566
ENCODING 9574
SWIDTH 600 0
DWIDTH 15 0
BBX 15 21 0 -8
BITMAP
FFFE
FFFE
FFFE
0000
0000
FC7E
FC7E
FC7E
0C60
0C60
0C60
0C60
0C60
0C60
0C60
0C60
0C60
0C60
0C60
0C60
0C60
ENDCHAR
STARTCHAR 2567
ENCODING 9575
SWIDTH 600 0
DWIDTH 15 0
BBX 15 20 0 5
BITMAP
0380
0380
0380
0380
0380
0380
0380
0380
0380
0380
0380
0380
FFFE
FFFE
FFFE
0000
0000
FFFE
FFFE
FFFE
ENDCHAR
STARTCHAR 2568
ENCODING 9576
SWIDTH 600 0
DWIDTH 15 0
BBX 15 17 0 8
BITMAP
0C60
0C60
0C60
0C60
0C60
0C60
0C60
0C60
0C60
0C60
0C60
0C60
0C60
0C60
0C60
FFFE
FFFE
ENDCHAR
STARTCHAR 2569
ENCODING 9577
SWIDTH 600 0
DWIDTH 15 0
BBX 15 20 0 5
BITMAP
0C60
0C60
0C60
0C60
0C60
0C60
0C60
0C60
0C60
0C60
0C60
0C60
FC7E
FC7E
FC7E
0000
0000
FFFE
FFFE
FFFE
ENDCHAR
STARTCHAR 256A
ENCODING 9578
SWIDTH 600 0
DWIDTH 15 0
BBX 15 33 0 -8
BITMAP
0380
0380
0380
0380
0380
0380
0380
0380
0380
0380
0380
0380
FFFE
FFFE
FFFE
0380
0380
FFFE
FFFE
FFFE
0380
0380
0380
0380
0380
0380
0380
0380
0380
0380
0380
0380
0380
ENDCHAR
STARTCHAR 256B
ENCODING 9579
SWIDTH 600 0
DWIDTH 15 0
BBX 15 33 0 -8
BITMAP
0C60
0C60
0C60
0C60
0C60
0C60
0C60
0C60
0C60
0C60
0C60
0C60
0C60
0C60
0C60
FFFE
FFFE
0C60
0C60
0C60
0C60
0C60
0C60
0C60
0C60
0C60
0C60
0C60
0C60
0C60
0C60
0C60
0C60
ENDCHAR
STARTCHAR 256C
ENCODING 9580
SWIDTH 600 0
DWIDTH 15 0
BBX 15 33 0 -8
BITMAP
0C60
0C60
0C60
0C60
0C60
0C60
0C60
0C60
0C60
0C60
0C60
0C60
FC7E
FC7E
FC7E
0000
0000
FC7E
FC7E
FC7E
0C60
0C60
0C60
0C60
0C60
0C60
0C60
0C60
0C60
0C60
0C60
0C60
0C60
ENDCHAR
STARTCHAR 256D
ENCODING 9581
SWIDTH 600 0
DWIDTH 15 0
BBX 9 18 6 -8
BITMAP
0780
1F80
3E00
7800
7000
6000
E000
E000
E000
E000
E000
E000
E000
E000
E000
E000
E000
E000
ENDCHAR
STARTCHAR 256E
ENCODING 9582
SWIDTH 600 0
DWIDTH 15 0
BBX 9 18 0 -8
BITMAP
F000
FC00
3E00
0F00
0700
0300
0380
0380
0380
0380
0380
0380
0380
0380
0380
0380
0380
0380
ENDCHAR
STARTCHAR 256F
ENCODING 9583
SWIDTH 600 0
DWIDTH 15 0
BBX 9 17 0 8
BITMAP
0380
0380
0380
0380
0380
0380
0380
0380
0380
0380
0380
0300
0700
0F00
3E00
FC00
F000
ENDCHAR
STARTCHAR 2570
ENCODING 9584
SWIDTH 600 0
DWIDTH 15 0
BBX 9 17 6 8
BITMAP
E000
E000
E000
E000
E000
E000
E000
E000
E000
E000
E000
6000
7000
7800
3E00
1F80
0780
ENDCHAR
STARTCHAR 2571
ENCODING 9585
SWIDTH 600 0
DWIDTH 15 0
BBX 15 26 0 -4
BITMAP
0006
0006
000E
000C
001C
0018
0038
0070
0060
00E0
00C0
01C0
0180
0380
0300
0700
0E00
0C00
1C00
1800
3800
3000
7000
E000
C000
C000
ENDCHAR
STARTCHAR 2572
ENCODING 9586
SWIDTH 600 0
DWIDTH 15 0
BBX 15 26 0 -4
BITMAP
C000
C000
E000
6000
7000
3000
3800
1C00
0C00
0E00
0600
0700
0300
0380
0180
01C0
00E0
0060
0070
0030
0038
0018
001C
000E
000E
0006
ENDCHAR
STARTCHAR 2573
ENCODING 9587
SWIDTH 600 0
DWIDTH 15 0
BBX 15 26 0 -4
BITMAP
C006
C006
E00E
600C
701C
3018
3838
1C70
0C60
0EE0
06C0
07C0
0380
0380
0380
07C0
0EE0
0C60
1C70
1830
3838
3018
701C
E00E
C00E
C006
ENDCHAR
STARTCHAR 2574
ENCODING 9588
SWIDTH 600 0
DWIDTH 15 0
BBX 9 2 0 8
BITMAP
FF80
FF80
ENDCHAR
STARTCHAR 2575
ENCODING 9589
SWIDTH 600 0
DWIDTH 15 0
BBX 3 17 6 8
BITMAP
E0
E0
E0
E0
E0
E0
E0
E0
E0
E0
E0
E0
E0
E0
E0
E0
E0
ENDCHAR
STARTCHAR 2576
ENCODING 9590
SWIDTH 600 0
DWIDTH 15 0
BBX 9 2 6 8
BITMAP
FF80
FF80
ENDCHAR
STARTCHAR 2577
ENCODING 9591
SWIDTH 600 0
DWIDTH 15 0
BBX 3 18 6 -8
BITMAP
E0
E0
E0
E0
E0
E0
E0
E0
E0
E0
E0
E0
E0
E0
E0
E0
E0
E0
ENDCHAR
STARTCHAR 2578
ENCODING 9592
SWIDTH 600 0
DWIDTH 15 0
BBX 9 5 0 6
BITMAP
FF80
FF80
FF80
FF80
FF80
ENDCHAR
STARTCHAR 2579
ENCODING 9593
SWIDTH 600 0
DWIDTH 15 0
BBX 5 17 5 8
BITMAP
F8
F8
F8
F8
F8
F8
F8
F8
F8
F8
F8
F8
F8
F8
F8
F8
F8
ENDCHAR
STARTCHAR 257A
ENCODING 9594
SWIDTH 600 0
DWIDTH 15 0
BBX 9 5 6 6
BITMAP
FF80
FF80
FF80
FF80
FF80
ENDCHAR
STARTCHAR 257B
ENCODING 9595
SWIDTH 600 0
DWIDTH 15 0
BBX 5 18 5 -8
BITMAP
F8
F8
F8
F8
F8
F8
F8
F8
F8
F8
F8
F8
F8
F8
F8
F8
F8
F8
ENDCHAR
STARTCHAR 257C
ENCODING 9596
SWIDTH 600 0
DWIDTH 15 0
BBX 15 5 0 6
BITMAP
03FE
FFFE
FFFE
03FE
03FE
ENDCHAR
STARTCHAR 257D
ENCODING 9597
SWIDTH 600 0
DWIDTH 15 0
BBX 5 33 5 -8
BITMAP
70
70
70
70
70
70
70
70
70
70
70
70
70
70
70
F8
F8
F8
F8
F8
F8
F8
F8
F8
F8
F8
F8
F8
F8
F8
F8
F8
F8
ENDCHAR
STARTCHAR 257E
ENCODING 9598
SWIDTH 600 0
DWIDTH 15 0
BBX 15 5 0 6
BITMAP
FF80
FFFE
FFFE
FF80
FF80
ENDCHAR
STARTCHAR 257F
ENCODING 9599
SWIDTH 600 0
DWIDTH 15 0
BBX 5 33 5 -8
BITMAP
F8
F8
F8
F8
F8
F8
F8
F8
F8
F8
F8
F8
F8
F8
F8
F8
F8
70
70
70
70
70
70
70
70
70
70
70
70
70
70
70
70
ENDCHAR
STARTCHAR 2580
ENCODING 9600
SWIDTH 600 0
DWIDTH 15 0
BBX 15 16 0 9
BITMAP
FFFE
FFFE
FFFE
FFFE
FFFE
FFFE
FFFE
FFFE
FFFE
FFFE
FFFE
FFFE
FFFE
FFFE
FFFE
FFFE
ENDCHAR
STARTCHAR 2581
ENCODING 9601
SWIDTH 600 0
DWIDTH 15 0
BBX 15 5 0 -8
BITMAP
FFFE
FFFE
FFFE
FFFE
FFFE
ENDCHAR
STARTCHAR 2582
ENCODING 9602
SWIDTH 600 0
DWIDTH 15 0
BBX 15 9 0 -8
BITMAP
FFFE
FFFE
FFFE
FFFE
FFFE
FFFE
FFFE
FFFE
FFFE
ENDCHAR
STARTCHAR 2583
ENCODING 9603
SWIDTH 600 0
DWIDTH 15 0
BBX 15 12 0 -8
BITMAP
FFFE
FFFE
FFFE
FFFE
FFFE
FFFE
FFFE
FFFE
FFFE
FFFE
FFFE
FFFE
ENDCHAR
STARTCHAR 2584
ENCODING 9604
SWIDTH 600 0
DWIDTH 15 0
BBX 15 17 0 -8
BITMAP
FFFE
FFFE
FFFE
FFFE
FFFE
FFFE
FFFE
FFFE
FFFE
FFFE
FFFE
FFFE
FFFE
FFFE
FFFE
FFFE
FFFE
ENDCHAR
STARTCHAR 2585
ENCODING 9605
SWIDTH 600 0
DWIDTH 15 0
BBX 15 21 0 -8
BITMAP
FFFE
FFFE
FFFE
FFFE
FFFE
FFFE
FFFE
FFFE
FFFE
FFFE
FFFE
FFFE
FFFE
FFFE
FFFE
FFFE
FFFE
FFFE
FFFE
FFFE
FFFE
ENDCHAR
STARTCHAR 2586
ENCODING 9606
SWIDTH 600 0
DWIDTH 15 0
BBX 15 24 0 -8
BITMAP
FFFE
FFFE
FFFE
FFFE
FFFE
FFFE
FFFE
FFFE
FFFE
FFFE
FFFE
FFFE
FFFE
FFFE
FFFE
FFFE
FFFE
FFFE
FFFE
FFFE
FFFE
FFFE
FFFE
FFFE
ENDCHAR
STARTCHAR 2587
ENCODING 9607
SWIDTH 600 0
DWIDTH 15 0
BBX 15 28 0 -8
BITMAP
FFFE
FFFE
FFFE
FFFE
FFFE
FFFE
FFFE
FFFE
FFFE
FFFE
FFFE
FFFE
FFFE
FFFE
FFFE
FFFE
FFFE
FFFE
FFFE
FFFE
FFFE
FFFE
FFFE
FFFE
FFFE
FFFE
FFFE
FFFE
ENDCHAR
STARTCHAR 2588
ENCODING 9608
SWIDTH 600 0
DWIDTH 15 0
BBX 15 33 0 -8
BITMAP
FFFE
FFFE
FFFE
FFFE
FFFE
FFFE
FFFE
FFFE
FFFE
FFFE
FFFE
FFFE
FFFE
FFFE
FFFE
FFFE
FFFE
FFFE
FFFE
FFFE
FFFE
FFFE
FFFE
FFFE
FFFE
FFFE
FFFE
FFFE
FFFE
FFFE
FFFE
FFFE
FFFE
ENDCHAR
STARTCHAR 2589
ENCODING 9609
SWIDTH 600 0
DWIDTH 15 0
BBX 13 33 0 -8
BITMAP
FFF8
FFF8
FFF8
FFF8
FFF8
FFF8
FFF8
FFF8
FFF8
FFF8
FFF8
FFF8
FFF8
FFF8
FFF8
FFF8
FFF8
FFF8
FFF8
FFF8
FFF8
FFF8
FFF8
FFF8
FFF8
FFF8
FFF8
FFF8
FFF8
FFF8
FFF8
FFF8
FFF8
ENDCHAR
STARTCHAR 258A
ENCODING 9610
SWIDTH 600 0
DWIDTH 15 0
BBX 11 33 0 -8
BITMAP
FFE0
FFE0
FFE0
FFE0
FFE0
FFE0
FFE0
FFE0
FFE0
FFE0
FFE0
FFE0
FFE0
FFE0
FFE0
FFE0
FFE0
FFE0
FFE0
FFE0
FFE0
FFE0
FFE0
FFE0
FFE0
FFE0
FFE0
FFE0
FFE0
FFE0
FFE0
FFE0
FFE0
ENDCHAR
STARTCHAR 258B
ENCODING 9611
SWIDTH 600 0
DWIDTH 15 0
BBX 9 33 0 -8
BITMAP
FF80
FF80
FF80
FF80
FF80
FF80
FF80
FF80
FF80
FF80
FF80
FF80
FF80
FF80
FF80
FF80
FF80
FF80
FF80
FF80
FF80
FF80
FF80
FF80
FF80
FF80
FF80
FF80
FF80
FF80
FF80
FF80
FF80
ENDCHAR
STARTCHAR 258C
ENCODING 9612
SWIDTH 600 0
DWIDTH 15 0
BBX 7 33 0 -8
BITMAP
FE
FE
FE
FE
FE
FE
FE
FE
FE
FE
FE
FE
FE
FE
FE
FE
FE
FE
FE
FE
FE
FE
FE
FE
FE
FE
FE
FE
FE
FE
FE
FE
FE
ENDCHAR
STARTCHAR 258D
ENCODING 9613
SWIDTH 600 0
DWIDTH 15 0
BBX 5 33 0 -8
BITMAP
F8
F8
F8
F8
F8
F8
F8
F8
F8
F8
F8
F8
F8
F8
F8
F8
F8
F8
F8
F8
F8
F8
F8
F8
F8
F8
F8
F8
F8
F8
F8
F8
F8
ENDCHAR
STARTCHAR 258E
ENCODING 9614
SWIDTH 600 0
DWIDTH 15 0
BBX 4 33 0 -8
BITMAP
F0
F0
F0
F0
F0
F0
F0
F0
F0
F0
F0
F0
F0
F0
F0
F0
F0
F0
F0
F0
F0
F0
F0
F0
F0
F0
F0
F0
F0
F0
F0
F0
F0
ENDCHAR
STARTCHAR 258F
ENCODING 9615
SWIDTH 600 0
DWIDTH 15 0
BBX 2 33 0 -8
BITMAP
C0
C0
C0
C0
C0
C0
C0
C0
C0
C0
C0
C0
C0
C0
C0
C0
C0
C0
C0
C0
C0
C0
C0
C0
C0
C0
C0
C0
C0
C0
C0
C0
C0
ENDCHAR
STARTCHAR 2590
ENCODING 9616
SWIDTH 600 0
DWIDTH 15 0
BBX 8 33 7 -8
BITMAP
FF
FF
FF
FF
FF
FF
FF
FF
FF
FF
FF
FF
FF
FF
FF
FF
FF
FF
FF
FF
FF
FF
FF
FF
FF
FF
FF
FF
FF
FF
FF
FF
FF
ENDCHAR
STARTCHAR 2591
ENCODING 9617
SWIDTH 600 0
DWIDTH 15 0
BBX 14 29 1 -5
BITMAP
DB6C
0000
0000
DB6C
0000
0000
DB6C
DB6C
0000
DB6C
DB6C
0000
DB6C
DB6C
0000
DB6C
DB6C
0000
DB6C
DB6C
0000
DB6C
DB6C
0000
0000
DB6C
0000
0000
DB6C
ENDCHAR
STARTCHAR 2592
ENCODING 9618
SWIDTH 600 0
DWIDTH 15 0
BBX 15 31 0 -7
BITMAP
6DB6
9248
9248
6DB6
9248
9248
6DB6
6DB6
9248
6DB6
6DB6
9248
6DB6
6DB6
9248
6DB6
6DB6
9248
6DB6
6DB6
9248
6DB6
6DB6
9248
9248
6DB6
9248
9248
6DB6
9248
9248
ENDCHAR
STARTCHAR 2593
ENCODING 9619
SWIDTH 600 0
DWIDTH 15 0
BBX 15 31 0 -7
BITMAP
FFFE
9248
9248
FFFE
9248
9248
FFFE
FFFE
9248
FFFE
FFFE
9248
FFFE
FFFE
9248
FFFE
FFFE
9248
FFFE
FFFE
9248
FFFE
FFFE
9248
9248
FFFE
9248
9248
FFFE
9248
9248
ENDCHAR
STARTCHAR 2594
ENCODING 9620
SWIDTH 600 0
DWIDTH 15 0
BBX 15 5 0 20
BITMAP
FFFE
FFFE
FFFE
FFFE
FFFE
ENDCHAR
STARTCHAR 2595
ENCODING 9621
SWIDTH 600 0
DWIDTH 15 0
BBX 2 33 13 -8
BITMAP
C0
C0
C0
C0
C0
C0
C0
C0
C0
C0
C0
C0
C0
C0
C0
C0
C0
C0
C0
C0
C0
C0
C0
C0
C0
C0
C0
C0
C0
C0
C0
C0
C0
ENDCHAR
STARTCHAR 2596
ENCODING 9622
SWIDTH 600 0
DWIDTH 15 0
BBX 7 17 0 -8
BITMAP
FE
FE
FE
FE
FE
FE
FE
FE
FE
FE
FE
FE
FE
FE
FE
FE
FE
ENDCHAR
STARTCHAR 2597
ENCODING 9623
SWIDTH 600 0
DWIDTH 15 0
BBX 8 17 7 -8
BITMAP
FF
FF
FF
FF
FF
FF
FF
FF
FF
FF
FF
FF
FF
FF
FF
FF
FF
ENDCHAR
STARTCHAR 2598
ENCODING 9624
SWIDTH 600 0
DWIDTH 15 0
BBX 7 16 0 9
BITMAP
FE
FE
FE
FE
FE
FE
FE
FE
FE
FE
FE
FE
FE
FE
FE
FE
ENDCHAR
STARTCHAR 2599
ENCODING 9625
SWIDTH 600 0
DWIDTH 15 0
BBX 15 33 0 -8
BITMAP
FE00
FE00
FE00
FE00
FE00
FE00
FE00
FE00
FE00
FE00
FE00
FE00
FE00
FE00
FE00
FE00
FFFE
FFFE
FFFE
FFFE
FFFE
FFFE
FFFE
FFFE
FFFE
FFFE
FFFE
FFFE
FFFE
FFFE
FFFE
FFFE
FFFE
ENDCHAR
STARTCHAR 259A
ENCODING 9626
SWIDTH 600 0
DWIDTH 15 0
BBX 15 33 0 -8
BITMAP
FE00
FE00
FE00
FE00
FE00
FE00
FE00
FE00
FE00
FE00
FE00
FE00
FE00
FE00
FE00
FE00
01FE
01FE
01FE
01FE
01FE
01FE
01FE
01FE
01FE
01FE
01FE
01FE
01FE
01FE
01FE
01FE
01FE
ENDCHAR
STARTCHAR 259B
ENCODING 9627
SWIDTH 600 0
DWIDTH 15 0
BBX 15 33 0 -8
BITMAP
FFFE
FFFE
FFFE
FFFE
FFFE
FFFE
FFFE
FFFE
FFFE
FFFE
FFFE
FFFE
FFFE
FFFE
FFFE
FFFE
FE00
FE00
FE00
FE00
FE00
FE00
FE00
FE00
FE00
FE00
FE00
FE00
FE00
FE00
FE00
FE00
FE00
ENDCHAR
STARTCHAR 259C
ENCODING 9628
SWIDTH 600 0
DWIDTH 15 0
BBX 15 33 0 -8
BITMAP
FFFE
FFFE
FFFE
FFFE
FFFE
FFFE
FFFE
FFFE
FFFE
FFFE
FFFE
FFFE
FFFE
FFFE
FFFE
FFFE
01FE
01FE
01FE
01FE
01FE
01FE
01FE
01FE
01FE
01FE
01FE
01FE
01FE
01FE
01FE
01FE
01FE
ENDCHAR
STARTCHAR 259D
ENCODING 9629
SWIDTH 600 0
DWIDTH 15 0
BBX 8 16 7 9
BITMAP
FF
FF
FF
FF
FF
FF
FF
FF
FF
FF
FF
FF
FF
FF
FF
FF
ENDCHAR
STARTCHAR 259E
ENCODING 9630
SWIDTH 600 0
DWIDTH 15 0
BBX 15 33 0 -8
BITMAP
01FE
01FE
01FE
01FE
01FE
01FE
01FE
01FE
01FE
01FE
01FE
01FE
01FE
01FE
01FE
01FE
FE00
FE00
FE00
FE00
FE00
FE00
FE00
FE00
FE00
FE00
FE00
FE00
FE00
FE00
FE00
FE00
FE00
ENDCHAR
STARTCHAR 259F
ENCODING 9631
SWIDTH 600 0
DWIDTH 15 0
BBX 15 33 0 -8
BITMAP
01FE
01FE
01FE
01FE
01FE
01FE
01FE
01FE
01FE
01FE
01FE
01FE
01FE
01FE
01FE
01FE
FFFE
FFFE
FFFE
FFFE
FFFE
FFFE
FFFE
FFFE
FFFE
FFFE
FFFE
FFFE
FFFE
FFFE
FFFE
FFFE
FFFE
ENDCHAR
STARTCHAR 25A0
ENCODING 9632
SWIDTH 600 0
DWIDTH 15 0
BBX 15 15 0 1
BITMAP
FFFE
FFFE
FFFE
FFFE
FFFE
FFFE
FFFE
FFFE
FFFE
FFFE
FFFE
FFFE
FFFE
FFFE
FFFE
ENDCHAR
STARTCHAR 25B2
ENCODING 9650
SWIDTH 600 0
DWIDTH 15 0
BBX 15 16 0 1
BITMAP
0100
0100
0380
0380
07C0
07C0
0FE0
0FE0
1FF0
1FF0
3FF8
3FF8
7FFC
7FFC
FFFE
FFFE
ENDCHAR
STARTCHAR 25B6
ENCODING 9654
SWIDTH 600 0
DWIDTH 15 0
BBX 15 15 0 2
BITMAP
C000
F000
FC00
FF00
FFC0
FFF0
FFFC
FFFE
FFF0
FFC0
FF00
FC00
F000
C000
8000
ENDCHAR
STARTCHAR 25BC
ENCODING 9660
SWIDTH 600 0
DWIDTH 15 0
BBX 15 15 0 1
BITMAP
FFFE
7FFC
7FFC
3FF8
3FF8
1FF0
1FF0
0FE0
0FE0
07C0
07C0
0380
0380
0100
0100
ENDCHAR
STARTCHAR 25C0
ENCODING 9664
SWIDTH 600 0
DWIDTH 15 0
BBX 15 15 0 2
BITMAP
0006
001E
007E
01FE
07FE
1FFE
7FFE
FFFE
1FFE
07FE
01FE
007E
003E
000E
0002
ENDCHAR
STARTCHAR 25C6
ENCODING 9670
SWIDTH 600 0
DWIDTH 15 0
BBX 15 16 0 1
BITMAP
0100
0380
07C0
0FE0
1FF0
3FF8
7FFC
FFFE
FFFE
7FFC
3FF8
1FF0
0FE0
07C0
0380
0100
ENDCHAR
STARTCHAR 25CA
ENCODING 9674
SWIDTH 600 0
DWIDTH 15 0
BBX 13 18 1 0
BITMAP
0F80
0F80
1DC0
1DE0
38E0
78F0
7070
F078
E038
E038
F078
7070
78F0
38E0
3DE0
1DC0
0F80
0F80
ENDCHAR
STARTCHAR 25CF
ENCODING 9679
SWIDTH 600 0
DWIDTH 15 0
BBX 15 16 0 1
BITMAP
03C0
1FF0
3FF8
7FFC
7FFC
FFFE
FFFE
FFFE
FFFE
FFFE
FFFE
7FFC
7FFC
3FF8
1FF0
07C0
ENDCHAR
STARTCHAR 27E8
ENCODING 10216
SWIDTH 600 0
DWIDTH 15 0
BBX 9 23 3 -3
BITMAP
0300
0700
0600
0E00
1C00
1800
3800
7000
7000
E000
C000
C000
E000
6000
7000
3800
3800
1C00
0C00
0E00
0700
0300
0380
ENDCHAR
STARTCHAR 27E9
ENCODING 10217
SWIDTH 600 0
DWIDTH 15 0
BBX 9 23 3 -3
BITMAP
6000
7000
3000
3800
1C00
0C00
0E00
0600
0700
0380
0180
0180
0380
0300
0700
0E00
0E00
1C00
1800
3800
7000
6000
E000
ENDCHAR
STARTCHAR 2B58
ENCODING 11096
SWIDTH 600 0
DWIDTH 15 0
BBX 15 15 0 0
BITMAP
0FE0
3FF8
783C
701C
E00E
C006
C006
C006
C006
E00E
E00E
701C
7C7C
3FF8
0FE0
ENDCHAR
STARTCHAR E000
ENCODING 57344
SWIDTH 600 0
DWIDTH 15 0
BBX 18 29 -2 -6
BITMAP
01C7C0
63E780
E32080
A22080
223180
223180
223100
223100
223300
223300
222300
232300
2DEB00
2C8B00
000000
080200
180300
0FFE00
10E100
224C80
264C80
26CC80
20F080
300180
3E0180
1FC700
0FFE00
07FC00
01F000
ENDCHAR
STARTCHAR E0A0
ENCODING 57504
SWIDTH 600 0
DWIDTH 15 0
BBX 12 31 2 -7
BITMAP
E000
E000
E000
E000
E080
E1C0
E3E0
E7F0
E1C0
E1C0
E1C0
E1C0
E1C0
C1C0
83C0
0780
1F00
3E00
7800
7000
E000
E000
E000
E000
E000
E000
E000
E000
E000
E000
E000
ENDCHAR
STARTCHAR E0A1
ENCODING 57505
SWIDTH 600 0
DWIDTH 15 0
BBX 9 27 3 -5
BITMAP
C000
C000
C000
C000
C000
C000
C000
C000
C000
C000
FE00
FE00
0000
0000
0000
7180
7180
7980
7980
6D80
6D80
6780
6680
6280
6380
6180
6180
ENDCHAR
STARTCHAR E0A2
ENCODING 57506
SWIDTH 600 0
DWIDTH 15 0
BBX 13 24 1 -2
BITMAP
0700
1FC0
38E0
3060
3060
3060
3060
3060
3060
3060
7FF0
FFF8
FFF8
F078
F078
F078
F8F8
F8F8
F8F8
F8F8
F8F8
FFF8
FFF8
7FF0
ENDCHAR
STARTCHAR E0B0
ENCODING 57520
SWIDTH 600 0
DWIDTH 15 0
BBX 15 30 0 -7
BITMAP
8000
C000
E000
F000
F800
FC00
FE00
FE00
FF00
FF80
FFC0
FFE0
FFF0
FFF8
FFFC
FFFE
FFFC
FFF8
FFF0
FFE0
FFC0
FF80
FF00
FE00
FC00
F800
F000
E000
C000
8000
ENDCHAR
STARTCHAR E0B1
ENCODING 57521
SWIDTH 600 0
DWIDTH 15 0
BBX 15 31 0 -7
BITMAP
7000
7000
3800
1C00
0E00
0600
0700
0380
01C0
00E0
00E0
0070
0038
001C
001C
000E
001C
0038
0030
0070
00E0
01C0
0380
0380
0700
0E00
1C00
1800
3800
7000
E000
ENDCHAR
STARTCHAR E0B2
ENCODING 57522
SWIDTH 600 0
DWIDTH 15 0
BBX 15 30 0 -7
BITMAP
0002
0006
000E
001E
003E
007E
00FE
00FE
01FE
03FE
07FE
0FFE
1FFE
3FFE
7FFE
FFFE
7FFE
3FFE
1FFE
0FFE
07FE
03FE
01FE
00FE
007E
003E
001E
000E
0006
0002
ENDCHAR
STARTCHAR E0B3
ENCODING 57523
SWIDTH 600 0
DWIDTH 15 0
BBX 15 31 0 -7
BITMAP
001C
001C
0038
0070
00E0
00C0
01C0
0380
0700
0E00
0E00
1C00
3800
7000
7000
E000
7000
3800
1800
1C00
0E00
0700
0380
0380
01C0
00E0
0070
0030
0038
001C
000E
ENDCHAR
STARTCHAR FEFF
ENCODING 65279
SWIDTH 0 0
DWIDTH 0 0
BBX 0 0 0 0
BITMAP
ENDCHAR
ENDFONT
